<svg width="18" height="18" viewBox="0 0 18 18" fill="none" xmlns="http://www.w3.org/2000/svg">
<g clip-path="url(#clip0_0_1448)">
<path d="M2.39995 1.79999C1.73695 1.79999 1.19995 2.33699 1.19995 2.99999V4.79999H7.79995H16.8V4.19999C16.8 3.53699 16.263 2.99999 15.6 2.99999H6.71948L6.34917 2.38241C6.13257 2.02121 5.74206 1.79999 5.32026 1.79999H2.39995ZM1.79995 5.99999C1.46875 5.99999 1.19995 6.26879 1.19995 6.59999V13.8C1.19995 14.463 1.73695 15 2.39995 15H8.53823C8.45003 14.6136 8.39995 14.2128 8.39995 13.8C8.39995 10.8174 10.8174 8.39999 13.8 8.39999C14.9106 8.39999 15.942 8.73573 16.8 9.31053V6.59999C16.8 6.26879 16.5312 5.99999 16.2 5.99999H1.79995ZM13.8 9.59999C11.4804 9.59999 9.59995 11.4804 9.59995 13.8C9.59995 16.1196 11.4804 18 13.8 18C16.1196 18 18 16.1196 18 13.8C18 11.4804 16.1196 9.59999 13.8 9.59999ZM13.8 11.4C14.1312 11.4 14.4 11.6682 14.4 12V13.2H15.6C15.9312 13.2 16.2 13.4682 16.2 13.8C16.2 14.1318 15.9312 14.4 15.6 14.4H14.4V15.6C14.4 15.9318 14.1312 16.2 13.8 16.2C13.4688 16.2 13.2 15.9318 13.2 15.6V14.4H12C11.6688 14.4 11.4 14.1318 11.4 13.8C11.4 13.4682 11.6688 13.2 12 13.2H13.2V12C13.2 11.6682 13.4688 11.4 13.8 11.4Z" fill="#49A6FC"/>
</g>
<defs>
<clipPath id="clip0_0_1448">
<rect width="18" height="18" fill="white"/>
</clipPath>
</defs>
</svg>
