<svg width="199" height="174" viewBox="0 0 199 174" fill="none" xmlns="http://www.w3.org/2000/svg">
<g clip-path="url(#clip0_0_673)">
<path d="M82.4097 173.267C77.5463 172.72 72.7771 171.753 68.0657 169.985C57.9264 166.183 48.3685 160.458 40.3814 152.805C25.0243 138.091 17.4441 117.28 16.3298 95.6673C15.4402 78.4134 17.1839 59.0079 27.2329 44.6788C36.7377 31.1258 52.3528 26.9436 67.6537 29.9192C72.1352 30.7907 77.1475 33.9204 81.7676 31.992C86.4479 30.0392 85.0986 25.5228 82.5285 22.0473C78.3294 16.3687 80.0748 9.66291 85.0836 5.34533C93.6269 -2.01982 108.728 -0.0871331 119.027 1.35218C131.402 3.08195 143.226 8.20844 151.983 17.8404C165.587 32.8042 160.644 51.3384 165.06 69.5178C167.765 80.6476 177.147 88.7345 180.678 99.7333C184.58 111.885 182.248 124.349 176.581 135.441C159.819 168.25 121.378 175.354 89.1744 173.791C86.8971 173.68 84.6434 173.518 82.4097 173.267Z" fill="#EDF2F9"/>
<path d="M91.2452 27.7107L33.5336 153.105L165.496 153.366L105.999 27.7107H91.2452Z" fill="#FBFDFF"/>
<path d="M199 173.578L0 174L15.908 151.551H183.204L199 173.578Z" fill="#3478F6"/>
<path d="M201.568 171.394H-0.982171C-1.02725 171.4 -1.07315 171.397 -1.11675 171.383C-1.16036 171.37 -1.20065 171.348 -1.23495 171.318C-1.26925 171.288 -1.29675 171.251 -1.31559 171.21C-1.33444 171.168 -1.34418 171.123 -1.34418 171.077C-1.34418 171.032 -1.33444 170.987 -1.31559 170.945C-1.29675 170.904 -1.26925 170.867 -1.23495 170.837C-1.20065 170.807 -1.16036 170.784 -1.11675 170.771C-1.07315 170.758 -1.02725 170.755 -0.982171 170.761H201.568C201.613 170.755 201.659 170.758 201.703 170.771C201.746 170.784 201.787 170.807 201.821 170.837C201.855 170.867 201.883 170.904 201.902 170.945C201.92 170.987 201.93 171.032 201.93 171.077C201.93 171.123 201.92 171.168 201.902 171.21C201.883 171.251 201.855 171.288 201.821 171.318C201.787 171.348 201.746 171.37 201.703 171.383C201.659 171.397 201.613 171.4 201.568 171.394ZM201.568 167.993H-0.982171C-1.02725 167.999 -1.07315 167.996 -1.11675 167.983C-1.16036 167.969 -1.20065 167.947 -1.23495 167.917C-1.26925 167.887 -1.29675 167.85 -1.31559 167.809C-1.33444 167.767 -1.34418 167.722 -1.34418 167.676C-1.34418 167.631 -1.33444 167.586 -1.31559 167.544C-1.29675 167.503 -1.26925 167.466 -1.23495 167.436C-1.20065 167.406 -1.16036 167.383 -1.11675 167.37C-1.07315 167.357 -1.02725 167.354 -0.982171 167.36H201.568C201.613 167.354 201.659 167.357 201.703 167.37C201.746 167.383 201.787 167.406 201.821 167.436C201.855 167.466 201.883 167.503 201.902 167.544C201.92 167.586 201.93 167.631 201.93 167.676C201.93 167.722 201.92 167.767 201.902 167.809C201.883 167.85 201.855 167.887 201.821 167.917C201.787 167.947 201.746 167.969 201.703 167.983C201.659 167.996 201.613 167.999 201.568 167.993ZM201.568 164.593H-0.982171C-1.02725 164.599 -1.07315 164.595 -1.11675 164.582C-1.16036 164.569 -1.20065 164.547 -1.23495 164.517C-1.26925 164.487 -1.29675 164.45 -1.31559 164.408C-1.33444 164.367 -1.34418 164.322 -1.34418 164.276C-1.34418 164.23 -1.33444 164.185 -1.31559 164.144C-1.29675 164.102 -1.26925 164.065 -1.23495 164.035C-1.20065 164.005 -1.16036 163.983 -1.11675 163.97C-1.07315 163.957 -1.02725 163.953 -0.982171 163.96H201.568C201.613 163.953 201.659 163.957 201.703 163.97C201.746 163.983 201.787 164.005 201.821 164.035C201.855 164.065 201.883 164.102 201.902 164.144C201.92 164.185 201.93 164.23 201.93 164.276C201.93 164.322 201.92 164.367 201.902 164.408C201.883 164.45 201.855 164.487 201.821 164.517C201.787 164.547 201.746 164.569 201.703 164.582C201.659 164.595 201.613 164.599 201.568 164.593ZM201.568 161.192H-0.982171C-1.02726 161.198 -1.07314 161.195 -1.11672 161.182C-1.16031 161.169 -1.20059 161.146 -1.23486 161.116C-1.26914 161.086 -1.29662 161.049 -1.31544 161.008C-1.33427 160.966 -1.344 160.921 -1.344 160.875C-1.344 160.83 -1.33427 160.785 -1.31544 160.743C-1.29662 160.702 -1.26914 160.665 -1.23486 160.635C-1.20059 160.605 -1.16031 160.582 -1.11672 160.569C-1.07314 160.556 -1.02726 160.552 -0.982171 160.559H201.568C201.613 160.552 201.659 160.556 201.703 160.569C201.746 160.582 201.787 160.605 201.821 160.635C201.855 160.665 201.883 160.702 201.901 160.743C201.92 160.785 201.93 160.83 201.93 160.875C201.93 160.921 201.92 160.966 201.901 161.008C201.883 161.049 201.855 161.086 201.821 161.116C201.787 161.146 201.746 161.169 201.703 161.182C201.659 161.195 201.613 161.198 201.568 161.192ZM201.568 157.791H-0.982171C-1.0274 157.798 -1.07349 157.794 -1.11733 157.782C-1.16116 157.769 -1.20172 157.746 -1.23624 157.716C-1.27076 157.686 -1.29845 157.649 -1.31742 157.608C-1.3364 157.566 -1.34622 157.521 -1.34622 157.475C-1.34622 157.429 -1.3364 157.384 -1.31742 157.342C-1.29845 157.3 -1.27076 157.263 -1.23624 157.233C-1.20172 157.203 -1.16116 157.181 -1.11733 157.168C-1.07349 157.155 -1.0274 157.152 -0.982171 157.158H201.568C201.613 157.152 201.659 157.155 201.703 157.168C201.747 157.181 201.788 157.203 201.822 157.233C201.857 157.263 201.884 157.3 201.903 157.342C201.922 157.384 201.932 157.429 201.932 157.475C201.932 157.521 201.922 157.566 201.903 157.608C201.884 157.649 201.857 157.686 201.822 157.716C201.788 157.746 201.747 157.769 201.703 157.782C201.659 157.794 201.613 157.798 201.568 157.791ZM201.568 154.391H-0.982171C-1.02725 154.397 -1.07315 154.394 -1.11675 154.381C-1.16036 154.368 -1.20065 154.345 -1.23495 154.315C-1.26925 154.285 -1.29675 154.248 -1.31559 154.207C-1.33444 154.165 -1.34418 154.12 -1.34418 154.075C-1.34418 154.029 -1.33444 153.984 -1.31559 153.942C-1.29675 153.901 -1.26925 153.864 -1.23495 153.834C-1.20065 153.804 -1.16036 153.781 -1.11675 153.768C-1.07315 153.755 -1.02725 153.752 -0.982171 153.758H201.568C201.613 153.752 201.659 153.755 201.703 153.768C201.746 153.781 201.787 153.804 201.821 153.834C201.855 153.864 201.883 153.901 201.902 153.942C201.92 153.984 201.93 154.029 201.93 154.075C201.93 154.12 201.92 154.165 201.902 154.207C201.883 154.248 201.855 154.285 201.821 154.315C201.787 154.345 201.746 154.368 201.703 154.381C201.659 154.394 201.613 154.397 201.568 154.391Z" fill="white"/>
<path d="M34.8242 120.384H70.2485C70.6326 120.384 71.0009 120.537 71.2725 120.809C71.5441 121.081 71.6967 121.451 71.6967 121.836V161.03C71.6967 161.415 71.5441 161.785 71.2725 162.057C71.0009 162.329 70.6326 162.482 70.2485 162.482H34.8242C34.4401 162.482 34.0717 162.329 33.8001 162.057C33.5286 161.785 33.376 161.415 33.376 161.03V121.836C33.376 121.451 33.5286 121.081 33.8001 120.809C34.0717 120.537 34.4401 120.384 34.8242 120.384V120.384Z" fill="#946E6B"/>
<path d="M29.7176 152.201C29.7176 152.201 31.064 156.743 34.2886 157.411C37.5131 158.078 36.6842 134.711 40.527 130.681C44.3698 126.651 60.9074 126.96 61.3776 120.384H34.8477C31.7409 120.387 31.4787 125.133 30.6529 128.124C29.1314 135.519 26.4324 145.094 29.7176 152.201Z" fill="#5B2F2E"/>
<path d="M52.836 81.3581C52.836 81.3581 60.2621 85.4699 62.7452 85.3536C65.2283 85.2373 70.6842 74.749 71.0878 71.5291C71.0878 71.5291 69.2666 68.0482 69.6181 66.6893C69.9696 65.3304 71.603 67.7494 71.603 67.7494C71.603 67.7494 72.3818 63.6927 73.8669 62.9301C75.352 62.1675 78.4219 62.7798 78.504 64.5463C78.586 66.3128 78.6555 71.162 76.328 72.9344C76.328 72.9344 71.4892 88.7 70.0332 90.0789C68.5772 91.4579 65.1406 94.2357 61.6116 93.6616C59.4305 93.3066 49.5519 89.9917 49.5519 89.9917L52.836 81.3581Z" fill="#F4937D"/>
<path d="M81.8919 145.769L83.6178 155.26C83.6178 155.26 82.716 161.706 83.9753 161.751C86.1814 161.832 98.2593 162.482 98.2593 162.482C98.2593 162.482 100.646 161.811 98.4427 159.498C96.2397 157.185 90.7014 155.737 90.7014 155.737L89.3089 144.891L81.8919 145.769Z" fill="#F4937D"/>
<path d="M45.4928 105.292C45.5463 108.384 46.2343 111.491 47.2644 113.702C49.3191 118.113 53.6695 120.63 58.4002 121.085C63.0657 121.534 78.5839 119.854 78.1858 123.544C77.6719 128.313 80.4552 147.971 80.4552 147.971C80.4552 147.971 87.3362 147.907 90.423 146.703C90.423 146.703 91.2931 118.022 85.3839 112.331C80.6874 107.807 61.8931 107.233 51.0782 106.037C44.3011 105.288 45.3896 99.3039 45.4928 105.292Z" fill="#08565E"/>
<path d="M73.3297 148.631L75.0563 158.122C75.0563 158.122 74.1539 164.568 75.4136 164.614C77.6197 164.695 89.6976 165.344 89.6976 165.344C89.6976 165.344 92.084 164.673 89.8809 162.36C87.6778 160.047 82.1396 158.599 82.1396 158.599L80.7471 147.753L73.3297 148.631Z" fill="#F9A99B"/>
<path d="M36.9308 108.154C36.9843 111.246 37.6722 114.353 38.7023 116.564C40.757 120.975 45.1076 123.493 49.8381 123.947C54.5036 124.396 70.0215 122.716 69.6238 126.406C69.1099 131.175 71.8931 150.832 71.8931 150.832C71.8931 150.832 78.7742 150.768 81.8609 149.565C81.8609 149.565 82.7309 120.884 76.8218 115.192C72.1248 110.669 53.7041 104.788 42.8892 103.592C36.1121 102.843 36.8277 102.166 36.9308 108.154Z" fill="#288284"/>
<path d="M43.3301 72.7129C46.7275 75.0818 52.7716 78.9122 56.5573 82.3159L51.4813 91.1768C51.4813 91.1768 44.525 89.3859 41.5166 85.1444C39.1827 81.8529 37.9379 77.7302 39.1607 74.0587C39.736 72.3298 41.8382 71.672 43.3301 72.7129Z" fill="#D1831C"/>
<path d="M40.5683 71.1194C37.0793 69.9433 35.4316 71.0636 32.3793 77.5002C29.3271 83.9368 29.3129 103.899 37.3814 115.183L58.0792 104.968C58.0792 104.968 48.8245 80.581 48.1255 79.0592C46.8696 76.3244 44.4648 72.4324 40.5683 71.1194Z" fill="#E59A13"/>
<path d="M49.8488 83.4204C45.735 80.4415 43.3089 79.1397 42.1078 79.7656C39.3058 81.2267 38.9583 88.6914 42.1078 93.4315C45.102 97.9388 50.9102 99.4587 55.9792 99.4438C54.1612 94.666 51.5616 87.8497 49.8488 83.4204Z" fill="#D1831C"/>
<path d="M49.2482 91.8652C49.2482 91.8652 54.0331 96.6378 60.6309 96.2716C67.2288 95.9053 75.1965 84.8291 75.1965 84.8291C75.1965 84.8291 81.2427 83.14 82.4963 80.2386C83.7499 77.3373 82.8253 73.7152 80.8005 74.8843C78.7758 76.0534 76.7982 78.2319 76.7982 78.2319C76.7982 78.2319 76.9962 74.368 76.0856 75.1061C75.175 75.8441 73.5089 80.6599 73.5089 80.6599C73.5089 80.6599 67.7246 85.2827 60.8848 88.7989C60.8848 88.7989 56.7128 86.1322 51.2068 82.4048C51.2072 82.4044 42.5233 85.4521 49.2482 91.8652Z" fill="#FFC6B3"/>
<path d="M39.5893 64.949C39.5893 64.949 40.1076 67.0762 38.3801 68.9781C36.6527 70.88 36.2072 71.811 36.2072 71.811L40.8706 73.8824C41.4028 74.1137 41.9955 74.1651 42.5594 74.0289C43.1233 73.8927 43.6277 73.5763 43.9964 73.1273L44.0198 73.0996C44.8151 72.1782 45.1833 72.5813 45.9186 70.3758C45.9186 70.3761 43.7525 64.3529 39.5893 64.949Z" fill="#FFC6B3"/>
<path d="M39.5893 64.9484C39.727 65.6978 39.6717 66.4701 39.4284 67.192C39.9089 68.3007 40.496 69.3599 41.1812 70.3545C41.7851 71.2151 42.64 72.4326 43.8003 73.3901C43.8674 73.2888 43.9407 73.1918 44.0197 73.0996C44.815 72.1782 45.1832 72.5813 45.9185 70.3757C45.9186 70.3757 43.7525 64.3528 39.5893 64.9484Z" fill="#F4937D"/>
<path d="M51.968 60.7934C52.5333 64.8936 51.1134 70.7428 49.0723 71.146C44.7051 72.0077 41.5483 69.078 41.2091 63.1169C40.974 58.9842 42.8525 56.7584 45.6255 56.3737C48.3985 55.9891 51.4032 56.6937 51.968 60.7934Z" fill="#FFC6B3"/>
<path d="M52.2423 59.6625C52.2423 59.6625 49.024 61.0048 46.3094 61.2024C43.5949 61.4 43.4625 64.5573 43.4625 64.5573L42.4868 64.603C42.4868 64.603 42.3315 67.0748 39.198 66.1077C37.3077 65.5244 33.7766 57.5853 38.1506 54.0183C42.5247 50.4513 51.3711 54.4499 52.031 55.1193C52.6908 55.7887 54.3779 57.5313 52.2423 59.6625Z" fill="#540C0C"/>
<path d="M42.4554 63.1554C42.4554 63.1554 40.4305 60.2734 39.8427 63.09C39.2548 65.9066 41.07 67.7 42.5725 66.0623L42.4554 63.1554Z" fill="#FFC6B3"/>
<path d="M43.3301 75.5746C46.7275 77.9433 52.7716 81.7737 56.5573 85.178L51.4813 94.0388C51.4813 94.0388 44.525 92.248 41.5166 88.0058C39.1827 84.7146 37.9379 80.5918 39.1607 76.9202C39.736 75.1916 41.8382 74.5343 43.3301 75.5746Z" fill="#E59A13"/>
<path d="M41.7317 63.6641C41.7243 63.6099 41.7053 63.5579 41.6761 63.5118C41.6469 63.4656 41.6081 63.4262 41.5624 63.3963C41.27 63.2057 40.6436 62.8933 40.6606 63.7351C40.6719 64.2998 40.9478 64.9412 41.3626 65.1348C41.4249 65.1605 41.493 65.1692 41.5597 65.1599C41.6265 65.1506 41.6895 65.1236 41.7425 65.0817C41.7954 65.0399 41.8363 64.9847 41.8609 64.9217C41.8855 64.8588 41.8929 64.7905 41.8825 64.7237L41.7317 63.6641Z" fill="#F4937D"/>
<path d="M47.9825 67.2787L51.1399 67.4417C51.1399 67.4417 50.6861 69.1765 49.3344 69.1765C48.0054 69.1765 47.9825 67.2787 47.9825 67.2787Z" fill="#C64C38"/>
<path d="M50.5227 64.697C50.8024 64.697 51.0292 64.3739 51.0292 63.9754C51.0292 63.5768 50.8024 63.2537 50.5227 63.2537C50.243 63.2537 50.0162 63.5768 50.0162 63.9754C50.0162 64.3739 50.243 64.697 50.5227 64.697Z" fill="#5A1921"/>
<path d="M49.1764 62.5565C49.1888 62.4076 49.4663 62.1782 49.6733 62.059C49.8855 61.9376 50.1241 61.8699 50.3682 61.8618C50.4294 61.8586 50.4906 61.86 50.5516 61.8658C50.6123 61.8686 50.6726 61.8769 50.7319 61.8906C50.7913 61.9046 50.8504 61.9175 50.908 61.9335C50.965 61.9544 51.0202 61.9777 51.0749 62.0012C51.1303 62.0229 51.1831 62.0508 51.2323 62.0844C51.2818 62.1158 51.3313 62.1488 51.3791 62.1825C51.47 62.257 51.635 62.3307 51.6267 62.4308C51.5062 62.4169 51.4013 62.3837 51.294 62.3623C51.1844 62.3486 51.0855 62.3132 50.9812 62.3062C50.9302 62.2992 50.8797 62.2915 50.8301 62.2827C50.7792 62.281 50.7294 62.2759 50.6798 62.272C50.6305 62.2662 50.5808 62.2644 50.5313 62.2666C50.4822 62.2632 50.433 62.2634 50.384 62.2674C50.1848 62.2741 49.9869 62.3029 49.794 62.3535C49.5838 62.407 49.3774 62.4749 49.1764 62.5565Z" fill="#5A1921"/>
<path d="M52.0488 63.9756C52.0488 63.9756 52.8488 66.4655 52.5785 66.7363C52.3082 67.0072 50.957 67.0075 50.957 67.0075L52.0488 63.9756Z" fill="#FFC6B3"/>
<path d="M160.09 162.247C160.554 160.962 158.79 160.364 158.303 159.193C158.21 158.972 157.92 159.694 157.801 159.282C156.796 159.652 156.887 159.556 156.566 160.043C155.939 160.996 155.872 162.31 155.23 162.389C154.856 162.434 154.685 162.013 154.099 161.694C153.958 161.617 153.81 161.556 153.657 161.51C153.145 162.001 150.78 163.728 149.984 163.943C149.984 163.943 149.628 163.834 150.026 165.066C150.424 166.298 159.79 163.075 160.09 162.247Z" fill="#B3F4EA"/>
<path d="M149.916 112.204C147.927 111.133 138.976 104.299 138.571 103.819L138.594 103.854C138.503 103.735 138.4 103.601 138.302 103.464L138.278 103.439L138.281 103.438C138.112 102.954 137.973 102.459 137.864 101.958L137.866 101.995C137.846 101.871 137.817 101.724 137.8 101.575C137.787 101.464 137.776 101.354 137.767 101.242L137.76 101.163C137.734 100.853 137.684 100.545 137.61 100.242C137.575 100.113 137.525 99.9893 137.46 99.8727C137.397 99.7598 137.303 99.6669 137.19 99.6044C137.098 99.5523 136.995 99.5236 136.889 99.5206C136.79 99.5178 136.693 99.5461 136.611 99.6015C136.533 99.6553 136.468 99.7273 136.423 99.8112C136.373 99.9001 136.334 99.9948 136.307 100.093C136.274 100.209 136.25 100.328 136.237 100.448C136.224 100.558 136.217 100.67 136.211 100.779C136.206 100.881 136.203 100.983 136.202 101.087C136.1 100.857 135.972 100.639 135.822 100.437C135.75 100.343 135.669 100.257 135.579 100.18C135.54 100.148 135.499 100.12 135.455 100.094C135.396 100.058 135.332 100.03 135.264 100.013C135.16 99.9863 135.05 99.9882 134.947 100.018C134.839 100.05 134.743 100.113 134.67 100.198C134.579 100.311 134.524 100.448 134.513 100.592C134.504 100.671 134.502 100.749 134.505 100.828C134.51 100.943 134.526 101.057 134.55 101.168C134.56 101.219 134.571 101.268 134.583 101.317C134.513 101.241 134.435 101.173 134.351 101.113C134.258 101.044 134.153 100.992 134.042 100.959C133.934 100.929 133.819 100.93 133.711 100.961C133.607 100.995 133.514 101.057 133.444 101.141C133.376 101.221 133.329 101.317 133.305 101.419C133.297 101.449 133.291 101.479 133.287 101.509C133.281 101.574 133.279 101.64 133.283 101.705C133.291 101.824 133.311 101.943 133.343 102.059C133.41 102.306 133.5 102.545 133.613 102.774C133.725 103.013 133.86 103.268 134.026 103.554C134.249 103.939 134.488 104.305 134.755 104.708L134.944 104.996C135.051 105.159 135.158 105.321 135.266 105.483C135.49 105.814 135.72 106.142 135.955 106.465C137.046 107.968 142.217 114.309 146.637 117.412C146.637 117.413 155.362 115.137 149.916 112.204Z" fill="#FFC6B3"/>
<path d="M138.386 104.01C138.409 103.94 138.435 103.872 138.466 103.805C138.514 103.697 138.566 103.589 138.616 103.482C138.736 103.23 138.855 102.975 138.958 102.714C139.06 102.477 139.131 102.228 139.169 101.972L139.17 101.964C139.182 101.868 139.176 101.77 139.154 101.676C139.138 101.615 139.112 101.558 139.078 101.505C139.042 101.458 139 101.416 138.951 101.382C138.864 101.315 138.761 101.273 138.652 101.261C138.534 101.252 138.417 101.285 138.32 101.352C138.147 101.485 138.017 101.665 137.945 101.87C137.85 102.101 137.781 102.342 137.737 102.587C137.696 102.775 137.674 102.965 137.671 103.157C137.671 103.199 137.672 103.241 137.677 103.283C137.684 103.329 137.705 103.372 137.738 103.405C137.77 103.439 137.812 103.461 137.858 103.469C137.867 103.479 137.877 103.487 137.887 103.494C137.867 103.576 137.848 103.658 137.832 103.741C137.828 103.77 137.831 103.8 137.84 103.829C137.849 103.857 137.863 103.884 137.882 103.907C137.901 103.929 137.923 103.947 137.948 103.961C137.952 104.003 137.968 104.042 137.993 104.074C138.018 104.107 138.052 104.132 138.091 104.146C138.148 104.167 138.211 104.164 138.266 104.139C138.321 104.113 138.364 104.067 138.386 104.01Z" fill="#FFC6B3"/>
<path d="M135.423 102.417C135.43 102.425 135.436 102.435 135.439 102.446C135.443 102.457 135.444 102.468 135.443 102.479C135.441 102.497 135.433 102.513 135.42 102.525C135.412 102.532 135.404 102.537 135.395 102.541C135.385 102.544 135.375 102.546 135.365 102.546C135.355 102.545 135.345 102.543 135.336 102.539C135.327 102.535 135.319 102.529 135.312 102.521C135.167 102.36 135.036 102.186 134.922 102.001C134.811 101.82 134.71 101.636 134.605 101.454C134.6 101.445 134.597 101.435 134.596 101.425C134.595 101.415 134.595 101.405 134.598 101.395C134.601 101.386 134.606 101.377 134.612 101.369C134.618 101.361 134.626 101.354 134.635 101.349C134.644 101.344 134.653 101.341 134.663 101.34C134.673 101.339 134.683 101.34 134.693 101.343C134.703 101.345 134.712 101.35 134.72 101.356C134.728 101.363 134.734 101.37 134.739 101.379C134.886 101.652 135.048 101.917 135.222 102.173C135.284 102.257 135.351 102.339 135.423 102.416L135.423 102.417ZM136.709 102.082C136.646 101.927 136.581 101.774 136.518 101.62C136.521 101.626 136.524 101.633 136.528 101.641C136.466 101.486 136.413 101.329 136.368 101.168C136.365 101.158 136.36 101.147 136.354 101.138C136.347 101.129 136.339 101.122 136.329 101.116C136.319 101.11 136.309 101.106 136.298 101.104C136.286 101.103 136.275 101.103 136.264 101.106C136.253 101.109 136.243 101.114 136.234 101.12C136.225 101.127 136.218 101.135 136.212 101.145C136.206 101.155 136.202 101.165 136.201 101.176C136.199 101.188 136.199 101.199 136.202 101.21C136.279 101.542 136.404 101.861 136.573 102.157C136.58 102.17 136.592 102.181 136.605 102.188C136.619 102.195 136.634 102.198 136.65 102.196C136.665 102.194 136.679 102.188 136.691 102.179C136.703 102.169 136.712 102.156 136.716 102.141L136.718 102.13C136.72 102.114 136.716 102.097 136.709 102.082" fill="#F4937D"/>
<path d="M168.187 119.713C170.353 120.355 181.509 121.81 182.133 121.754L182.093 121.763C182.24 121.742 182.407 121.72 182.572 121.691L182.608 121.69L182.607 121.687C183.067 121.463 183.512 121.21 183.941 120.93L183.913 120.955C184.014 120.881 184.139 120.796 184.255 120.703C184.342 120.633 184.427 120.562 184.512 120.489L184.573 120.438C184.808 120.235 185.06 120.051 185.325 119.889C185.44 119.822 185.563 119.769 185.691 119.732C185.815 119.696 185.947 119.696 186.071 119.732C186.173 119.76 186.267 119.812 186.344 119.885C186.416 119.952 186.465 120.041 186.484 120.138C186.502 120.231 186.497 120.328 186.471 120.419C186.444 120.518 186.405 120.613 186.355 120.702C186.298 120.808 186.232 120.909 186.156 121.004C186.088 121.091 186.015 121.175 185.943 121.258C185.875 121.334 185.806 121.409 185.733 121.482C185.967 121.391 186.211 121.326 186.459 121.289C186.576 121.273 186.694 121.269 186.812 121.277C186.862 121.283 186.911 121.291 186.96 121.303C187.028 121.32 187.093 121.346 187.154 121.381C187.246 121.435 187.323 121.514 187.375 121.608C187.429 121.707 187.454 121.819 187.445 121.932C187.432 122.076 187.374 122.212 187.281 122.322C187.232 122.384 187.179 122.442 187.121 122.496C187.037 122.573 186.947 122.643 186.851 122.706C186.808 122.735 186.766 122.762 186.723 122.789C186.826 122.784 186.929 122.79 187.031 122.807C187.145 122.824 187.256 122.86 187.358 122.916C187.456 122.971 187.537 123.052 187.593 123.15C187.643 123.248 187.665 123.357 187.656 123.467C187.648 123.572 187.615 123.673 187.56 123.763C187.545 123.789 187.528 123.815 187.509 123.839C187.468 123.889 187.424 123.937 187.375 123.981C187.286 124.06 187.188 124.131 187.084 124.19C186.864 124.319 186.631 124.426 186.39 124.508C186.143 124.599 185.869 124.685 185.55 124.772C185.121 124.889 184.695 124.98 184.222 125.078L183.886 125.149C183.695 125.189 183.505 125.23 183.315 125.268C182.924 125.346 182.53 125.417 182.137 125.48C180.307 125.779 172.183 126.641 166.865 125.729C166.864 125.729 162.258 117.958 168.187 119.713Z" fill="#FFC6B3"/>
<path d="M182.131 122.021C182.164 121.955 182.193 121.888 182.218 121.819C182.26 121.708 182.298 121.595 182.337 121.483C182.43 121.219 182.523 120.954 182.633 120.695C182.727 120.455 182.852 120.228 183.004 120.02L183.009 120.013C183.068 119.936 183.14 119.87 183.223 119.82C183.277 119.788 183.335 119.765 183.396 119.752C183.455 119.743 183.514 119.744 183.572 119.754C183.681 119.768 183.785 119.811 183.871 119.879C183.96 119.956 184.021 120.062 184.042 120.178C184.072 120.394 184.038 120.614 183.946 120.811C183.851 121.042 183.731 121.262 183.59 121.467C183.488 121.629 183.37 121.781 183.238 121.919C183.208 121.949 183.177 121.978 183.145 122.004C183.107 122.032 183.063 122.047 183.016 122.048C182.97 122.049 182.924 122.035 182.886 122.009C182.873 122.009 182.86 122.008 182.848 122.006C182.805 122.078 182.76 122.149 182.714 122.22C182.696 122.243 182.673 122.263 182.646 122.277C182.62 122.291 182.591 122.3 182.562 122.302C182.533 122.305 182.504 122.303 182.477 122.295C182.445 122.321 182.406 122.338 182.366 122.344C182.325 122.349 182.283 122.343 182.246 122.325C182.19 122.3 182.147 122.254 182.126 122.197C182.104 122.14 182.106 122.077 182.131 122.021Z" fill="#FFC6B3"/>
<path d="M185.354 122.979C185.459 122.974 185.564 122.963 185.668 122.947C185.972 122.888 186.272 122.814 186.568 122.724C186.578 122.721 186.588 122.72 186.598 122.721C186.608 122.722 186.617 122.725 186.626 122.73C186.635 122.735 186.643 122.742 186.649 122.75C186.655 122.757 186.66 122.766 186.663 122.776C186.666 122.786 186.667 122.796 186.665 122.806C186.664 122.816 186.661 122.826 186.656 122.835C186.652 122.843 186.645 122.851 186.637 122.857C186.629 122.864 186.62 122.868 186.611 122.871C186.409 122.927 186.207 122.986 186.002 123.036C185.791 123.088 185.576 123.119 185.36 123.131C185.35 123.132 185.34 123.13 185.33 123.127C185.321 123.123 185.312 123.118 185.305 123.111C185.298 123.104 185.292 123.096 185.288 123.087C185.284 123.078 185.281 123.068 185.281 123.058C185.28 123.04 185.285 123.023 185.297 123.009C185.303 123 185.312 122.993 185.322 122.987C185.332 122.982 185.343 122.979 185.354 122.979ZM184.675 121.834C184.659 121.839 184.645 121.849 184.634 121.862L184.627 121.871C184.618 121.89 184.617 121.911 184.623 121.931C184.629 121.95 184.642 121.967 184.66 121.976C184.678 121.986 184.699 121.989 184.719 121.983C185.047 121.892 185.359 121.754 185.647 121.572C185.667 121.56 185.681 121.541 185.686 121.519C185.691 121.497 185.688 121.474 185.676 121.454C185.664 121.435 185.645 121.421 185.623 121.415C185.601 121.41 185.578 121.413 185.559 121.425C185.414 121.507 185.265 121.582 185.113 121.649L185.135 121.639C184.983 121.706 184.828 121.768 184.676 121.834" fill="#F4937D"/>
<path d="M164.412 101.624C178.016 103.252 176.983 118.222 167.969 118.07C158.954 117.918 164.412 101.624 164.412 101.624Z" fill="#5A1921"/>
<path d="M152.589 154.451C152.589 154.451 154.291 158.812 153.649 160.545C153.649 160.545 152.072 162.199 150.981 162.492C150.981 162.492 149.453 163.286 149.851 164.519C150.25 165.752 159.485 162.419 159.775 161.586C160.064 160.754 158.935 160.159 158.449 158.988C157.962 157.817 156.961 153.211 156.961 153.211L152.589 154.451Z" fill="#FFC6B3"/>
<path d="M177.722 137.912C176.929 137.531 175.893 138.236 174.998 138.945C174.903 139.02 174.731 139.014 174.558 139.05C174.655 139.684 174.893 140.078 175.172 140.33C175.828 140.925 176.674 140.702 177.488 141.654C178.039 142.299 178.458 143.346 178.09 143.977C177.843 144.399 177.443 144.292 177.024 144.766C176.952 144.848 176.889 144.937 176.834 145.032C177.198 145.589 177.266 146.832 177.345 147.356C177.345 147.356 177.617 148.668 179.523 148.128C180.766 147.776 178.514 138.293 177.722 137.912Z" fill="#B3F4EA"/>
<path d="M169.12 144.391C169.12 144.391 173.632 143.18 175.277 144.013C175.277 144.013 176.741 145.769 176.91 146.889C176.91 146.889 177.527 148.5 178.793 148.24C180.058 147.981 177.784 138.406 176.992 138.024C176.2 137.643 175.483 138.702 174.269 139.057C173.054 139.412 168.379 139.897 168.379 139.897L169.12 144.391Z" fill="#FFC6B3"/>
<path d="M148.568 131.558C148.568 131.558 145.853 146.213 152.969 157.769C152.969 157.769 157.381 158.08 158.387 155.208C157.815 152.912 157.293 143.152 157.164 140.713C157.164 140.713 164.251 148.491 172.559 144.297C173.616 142.204 173.265 138.65 172.345 138.776C162.204 140.162 167.702 132.443 163.578 129.41L148.568 131.558Z" fill="#034568"/>
<path d="M158.737 115.958L150.06 111.562C150.06 111.562 145.081 115.393 145.332 117.221C145.354 117.38 150.64 121.334 150.64 121.334C150.64 121.334 147.521 129.435 146.64 131.769C146.437 132.307 152.482 135.757 156.045 136.188C159.915 136.656 166.654 134.582 166.307 133.931C165.348 132.138 165.106 126.417 165.106 126.417L171.038 127.571C171.038 127.571 173.946 121.754 173.337 120.394C173.303 120.319 166.681 119.329 164.833 118.002C162.986 116.675 158.737 115.958 158.737 115.958Z" fill="#6FA49E"/>
<path d="M160.223 115.492C159.894 115.465 159.283 116.731 159.188 116.943C158.769 117.878 157.81 118.963 158.489 119.861C159.32 120.959 160.99 121.349 162.089 120.827C163.913 119.961 163.834 118.718 163.834 118.718L164.306 115.544C164.306 115.544 160.229 115.493 160.223 115.492Z" fill="#F4937D"/>
<path d="M163.27 104.295C162.718 104.295 162.159 104.324 161.617 104.353L161.583 104.355C161.058 104.382 160.515 104.411 159.98 104.411C159.874 104.411 159.768 104.41 159.662 104.407H159.662C159.636 104.407 159.61 104.413 159.587 104.425C159.564 104.436 159.543 104.453 159.528 104.474C159.499 104.483 159.474 104.499 159.454 104.522C158.696 105.458 158.064 106.489 157.573 107.59C157.058 108.714 156.685 109.899 156.465 111.117C156.416 111.397 156.374 111.693 156.342 111.995C156.31 112.317 156.293 112.599 156.291 112.86C156.285 113.392 156.355 113.922 156.497 114.434C156.775 115.418 157.328 116.302 158.091 116.981C158.486 117.333 158.925 117.631 159.396 117.869C159.87 118.106 160.368 118.291 160.881 118.42C161.42 118.559 161.97 118.647 162.525 118.683C162.749 118.699 162.975 118.707 163.196 118.707C163.537 118.707 163.877 118.688 164.216 118.65C164.929 118.574 165.628 118.393 166.289 118.111C166.611 117.972 166.92 117.801 167.21 117.601C167.518 117.397 167.793 117.148 168.027 116.862C168.066 116.903 168.107 116.941 168.151 116.977C168.244 117.051 168.343 117.117 168.448 117.173C168.704 117.307 168.989 117.377 169.278 117.377C169.61 117.375 169.936 117.289 170.226 117.128C170.578 116.936 170.861 116.638 171.035 116.276C171.121 116.093 171.171 115.896 171.183 115.694C171.196 115.47 171.166 115.246 171.095 115.033C171.039 114.858 170.958 114.694 170.853 114.544C170.735 114.379 170.59 114.236 170.425 114.121C170.182 113.941 169.895 113.833 169.594 113.808C169.862 113.272 170.052 112.7 170.158 112.11C170.261 111.536 170.297 110.951 170.266 110.368C170.221 109.333 169.931 108.324 169.42 107.424C169.162 106.983 168.849 106.577 168.487 106.216C168.105 105.838 167.677 105.508 167.215 105.234C166.656 104.9 166.049 104.655 165.415 104.507C164.78 104.367 164.131 104.296 163.481 104.296C163.411 104.296 163.341 104.294 163.271 104.294" fill="#FFC6B3"/>
<path d="M158.531 102.771C158.138 103.1 156.436 104.528 157.312 105.865C157.974 106.875 160.039 105.652 160.039 105.652C160.039 105.652 160.145 107.986 161.943 107.774C163.741 107.561 162.895 106.077 162.895 106.077C162.895 106.077 163.106 110.425 166.385 110.319C166.385 110.319 165.28 114.489 168.477 114.419C168.477 114.419 173.838 112.505 171.356 106.077C170.144 102.939 162.677 99.2954 158.531 102.771Z" fill="#5A1921"/>
<path d="M159.775 161.586C160.065 160.754 158.936 160.159 158.449 158.987C158.325 158.667 158.217 158.34 158.127 158.008C157.123 158.379 156.571 158.896 156.251 159.383C155.623 160.336 155.557 161.649 154.915 161.728C154.541 161.774 154.37 161.353 153.784 161.032C153.643 160.956 153.495 160.895 153.342 160.849C152.831 161.34 151.778 162.278 150.981 162.491C150.981 162.491 149.453 163.286 149.851 164.519C150.249 165.751 159.485 162.418 159.775 161.586Z" fill="#034568"/>
<path d="M176.992 138.024C176.2 137.643 175.483 138.702 174.269 139.057C174.152 139.091 174.002 139.126 173.827 139.163C173.925 139.797 174.163 140.19 174.442 140.442C175.098 141.038 175.591 140.656 176.404 141.608C176.955 142.253 177.375 143.301 177.007 143.931C176.76 144.353 176.714 144.404 176.295 144.879C176.222 144.961 176.158 145.049 176.104 145.144C176.468 145.702 176.831 146.364 176.91 146.889C176.91 146.889 177.527 148.499 178.793 148.24C180.058 147.981 177.784 138.406 176.992 138.024Z" fill="#034568"/>
<path d="M168.908 115.392C169.158 115.151 169.644 114.907 169.969 115.113C170.342 115.35 170.378 116.1 169.994 116.455C169.563 116.853 168.735 116.639 168.579 116.228C168.438 115.855 168.886 115.413 168.908 115.392Z" fill="#F4937D"/>
<path d="M158.705 107.243C158.85 107.149 159.015 107.092 159.187 107.077C159.353 107.06 159.521 107.079 159.679 107.133C159.846 107.182 159.997 107.275 160.117 107.401C160.236 107.527 160.321 107.683 160.361 107.853C160.202 107.838 160.044 107.81 159.889 107.769C159.753 107.734 159.629 107.699 159.504 107.656C159.373 107.612 159.245 107.562 159.12 107.504C158.97 107.437 158.831 107.349 158.705 107.243ZM158.697 108.918C158.624 108.874 158.542 108.85 158.457 108.847C158.372 108.844 158.288 108.863 158.212 108.902C158.137 108.941 158.072 108.999 158.025 109.07C157.978 109.141 157.95 109.222 157.944 109.307C157.939 109.405 157.962 109.503 158.01 109.589C158.057 109.675 158.128 109.746 158.214 109.793C158.3 109.841 158.397 109.864 158.495 109.859C158.593 109.854 158.687 109.821 158.768 109.765C158.836 109.715 158.89 109.647 158.926 109.57C158.961 109.492 158.975 109.407 158.968 109.322C158.961 109.237 158.932 109.155 158.885 109.085C158.838 109.014 158.773 108.957 158.697 108.918V108.918ZM163.968 112.292C163.895 112.248 163.813 112.223 163.728 112.22C163.643 112.218 163.559 112.237 163.483 112.276C163.408 112.315 163.344 112.372 163.297 112.443C163.25 112.514 163.221 112.596 163.215 112.681C163.21 112.779 163.233 112.876 163.281 112.962C163.328 113.048 163.399 113.119 163.485 113.167C163.571 113.214 163.668 113.237 163.766 113.232C163.864 113.227 163.959 113.195 164.039 113.139C164.107 113.088 164.162 113.021 164.197 112.943C164.232 112.865 164.246 112.78 164.239 112.695C164.232 112.61 164.204 112.529 164.156 112.458C164.109 112.387 164.044 112.33 163.968 112.291V112.292ZM165.577 112.11C165.55 111.945 165.488 111.787 165.395 111.648C165.304 111.499 165.176 111.377 165.023 111.294C164.871 111.211 164.699 111.169 164.525 111.173C164.581 111.324 164.648 111.47 164.728 111.61C164.797 111.732 164.863 111.843 164.937 111.953C165.012 112.068 165.094 112.179 165.182 112.285C165.286 112.413 165.407 112.526 165.542 112.62C165.595 112.455 165.607 112.28 165.578 112.11L165.577 112.11Z" fill="#5A1921"/>
<path d="M158.939 111.908C158.907 111.908 158.877 111.897 158.852 111.877C158.828 111.858 158.811 111.83 158.804 111.8C158.766 111.645 158.773 111.484 158.824 111.333C158.875 111.183 158.967 111.05 159.09 110.95C159.255 110.832 159.457 110.776 159.659 110.794C159.861 110.812 160.05 110.902 160.192 111.048C160.205 111.06 160.216 111.076 160.223 111.092C160.23 111.109 160.234 111.127 160.234 111.145C160.234 111.164 160.231 111.182 160.224 111.199C160.217 111.216 160.207 111.231 160.194 111.244C160.182 111.257 160.166 111.267 160.15 111.274C160.133 111.281 160.115 111.285 160.097 111.285C160.078 111.285 160.06 111.281 160.044 111.274C160.027 111.267 160.012 111.257 159.999 111.244C159.904 111.147 159.777 111.086 159.642 111.072C159.506 111.059 159.371 111.093 159.258 111.17C159.177 111.237 159.116 111.327 159.083 111.428C159.05 111.529 159.047 111.637 159.073 111.739C159.081 111.775 159.074 111.813 159.055 111.843C159.035 111.874 159.005 111.896 158.969 111.905C158.959 111.907 158.949 111.908 158.939 111.908Z" fill="#F4937D"/>
<path d="M157.971 112.647L161.343 113.268C161.343 113.268 160.724 114.478 159.394 114.385C158.064 114.292 157.971 112.647 157.971 112.647Z" fill="#7A1B2B"/>
<path d="M161.008 113.721C160.599 113.58 160.164 113.531 159.733 113.578C159.311 113.637 158.906 113.784 158.544 114.01C158.771 114.235 159.074 114.368 159.393 114.385C159.695 114.405 159.997 114.356 160.277 114.241C160.557 114.126 160.807 113.948 161.008 113.721Z" fill="white"/>
<path d="M134.595 106.064C134.577 106.063 134.558 106.061 134.54 106.058C134.454 106.04 134.379 105.989 134.331 105.916C134.284 105.842 134.267 105.753 134.284 105.668C137.046 92.2873 146.027 84.3239 146.117 84.2454C146.183 84.1891 146.268 84.1611 146.355 84.1675C146.441 84.1739 146.521 84.2143 146.578 84.2798C146.635 84.3452 146.664 84.4306 146.659 84.5173C146.654 84.604 146.614 84.685 146.55 84.7429C146.46 84.8205 137.643 92.6473 134.929 105.802C134.913 105.878 134.871 105.946 134.81 105.994C134.749 106.042 134.673 106.067 134.595 106.064Z" fill="#D94435"/>
<path d="M145.672 85.2873C146.9 84.7828 147.138 82.5192 146.204 80.2315C145.269 77.9437 143.515 76.4981 142.287 77.0026C141.059 77.5071 140.821 79.7707 141.756 82.0584C142.69 84.3462 144.444 85.7918 145.672 85.2873Z" fill="#F4A6A2"/>
<path d="M147.104 84.244C147.304 82.9275 145.489 81.5579 143.051 81.1848C140.612 80.8118 138.473 81.5766 138.273 82.8931C138.073 84.2096 139.887 85.5793 142.326 85.9523C144.765 86.3254 146.904 85.5605 147.104 84.244Z" fill="#F4A6A2"/>
<path d="M144.007 88.77C146.185 87.6091 147.445 85.7144 146.822 84.5382C146.198 83.3619 143.927 83.3494 141.749 84.5103C139.571 85.6712 138.311 87.5659 138.935 88.7421C139.558 89.9184 141.829 89.9309 144.007 88.77Z" fill="#F4A6A2"/>
<path d="M149.961 81.5634C150.343 79.1199 149.589 76.9715 148.277 76.7649C146.964 76.5583 145.59 78.3717 145.208 80.8152C144.826 83.2588 145.58 85.4072 146.892 85.6138C148.205 85.8204 149.579 84.007 149.961 81.5634Z" fill="#F4A6A2"/>
<path d="M150.303 85.4818C152.59 84.5541 154.039 82.801 153.541 81.5661C153.043 80.3313 150.785 80.0823 148.499 81.01C146.212 81.9377 144.762 83.6909 145.261 84.9257C145.759 86.1606 148.017 86.4096 150.303 85.4818Z" fill="#F4A6A2"/>
<path d="M153.407 87.5896C153.938 86.3689 152.536 84.5765 150.275 83.5861C148.014 82.5957 145.751 82.7823 145.219 84.003C144.687 85.2236 146.089 87.0161 148.35 88.0065C150.611 88.9969 152.875 88.8103 153.407 87.5896Z" fill="#F4A6A2"/>
<path d="M150.124 91.8388C151.244 91.1226 151.077 88.8507 149.75 86.7645C148.423 84.6784 146.44 83.5678 145.319 84.284C144.199 85.0002 144.367 87.272 145.694 89.3582C147.02 91.4444 149.004 92.555 150.124 91.8388Z" fill="#F4A6A2"/>
<path d="M147.103 88.6036C147.762 86.2199 147.258 83.9992 145.978 83.6435C144.697 83.2878 143.126 84.9318 142.468 87.3155C141.809 89.6992 142.313 91.9199 143.593 92.2756C144.874 92.6313 146.445 90.9873 147.103 88.6036Z" fill="#F4A6A2"/>
<path d="M146.244 87.0549C147.656 87.1047 148.841 85.9972 148.89 84.5813C148.94 83.1654 147.835 81.9773 146.423 81.9276C145.01 81.8778 143.826 82.9853 143.776 84.4012C143.727 85.8171 144.832 87.0052 146.244 87.0549Z" fill="#D94436"/>
<path d="M146.577 83.1412C146.551 83.1404 146.526 83.1364 146.501 83.1295C146.459 83.118 146.42 83.0984 146.386 83.0718C146.352 83.0452 146.324 83.0122 146.302 82.9745C146.281 82.9369 146.267 82.8954 146.262 82.8524C146.256 82.8094 146.26 82.7659 146.271 82.7241L147.348 78.7978C147.359 78.7556 147.378 78.7161 147.404 78.6815C147.431 78.6468 147.464 78.6178 147.502 78.5961C147.539 78.5743 147.581 78.5603 147.624 78.5548C147.667 78.5492 147.711 78.5523 147.753 78.5639C147.795 78.5754 147.834 78.5952 147.868 78.6221C147.903 78.6489 147.931 78.6823 147.953 78.7203C147.974 78.7583 147.988 78.8002 147.993 78.8435C147.998 78.8868 147.994 78.9307 147.982 78.9726L146.906 82.8987C146.886 82.9703 146.843 83.0332 146.783 83.0772C146.724 83.1212 146.651 83.1438 146.577 83.1412Z" fill="#D94435"/>
<path d="M145.055 83.1737C145.005 83.172 144.955 83.1586 144.911 83.1345C144.866 83.1105 144.828 83.0764 144.798 83.035L142.444 79.7166C142.418 79.6813 142.399 79.6412 142.389 79.5987C142.378 79.5561 142.377 79.5119 142.384 79.4687C142.39 79.4254 142.406 79.384 142.429 79.3468C142.452 79.3096 142.482 79.2773 142.518 79.252C142.553 79.2266 142.594 79.2085 142.636 79.1989C142.679 79.1893 142.723 79.1883 142.766 79.196C142.809 79.2036 142.85 79.2198 142.887 79.2435C142.924 79.2672 142.955 79.2981 142.98 79.3342L145.335 82.6519C145.371 82.702 145.391 82.7612 145.395 82.8226C145.399 82.884 145.386 82.9453 145.357 82.9995C145.328 83.0537 145.284 83.0987 145.231 83.1294C145.178 83.1601 145.117 83.1753 145.056 83.1732L145.055 83.1737Z" fill="#D94435"/>
<path d="M144.644 84.4077C144.62 84.407 144.596 84.4036 144.573 84.3977L140.641 83.3785C140.556 83.3566 140.484 83.302 140.44 83.2266C140.395 83.1513 140.383 83.0614 140.404 82.9767C140.426 82.892 140.481 82.8195 140.556 82.7751C140.631 82.7307 140.721 82.718 140.805 82.7399L144.738 83.7593C144.816 83.7795 144.884 83.8281 144.929 83.8957C144.974 83.9634 144.993 84.0452 144.981 84.1257C144.97 84.2061 144.929 84.2793 144.867 84.3314C144.804 84.3835 144.725 84.4107 144.644 84.4077Z" fill="#D94435"/>
<path d="M148.889 90.1727C148.827 90.1707 148.767 90.1512 148.716 90.1164C148.665 90.0817 148.624 90.0331 148.599 89.9763L146.956 86.2522C146.939 86.2126 146.929 86.1699 146.928 86.1266C146.927 86.0833 146.935 86.0402 146.95 85.9998C146.966 85.9594 146.989 85.9224 147.019 85.8911C147.049 85.8597 147.085 85.8346 147.124 85.8171C147.164 85.7996 147.206 85.79 147.249 85.789C147.293 85.788 147.336 85.7955 147.376 85.8111C147.416 85.8268 147.453 85.8502 147.484 85.8801C147.516 85.91 147.541 85.9458 147.558 85.9854L149.202 89.7097C149.237 89.7896 149.239 89.8804 149.208 89.9619C149.176 90.0434 149.114 90.1091 149.034 90.1444C148.989 90.1649 148.939 90.1745 148.889 90.1727Z" fill="#D94435"/>
<path d="M152.322 86.5353C152.296 86.5343 152.271 86.5305 152.246 86.5238L148.329 85.4462C148.246 85.4226 148.175 85.3668 148.132 85.2911C148.09 85.2154 148.079 85.1258 148.101 85.0419C148.124 84.958 148.179 84.8866 148.255 84.8433C148.33 84.7999 148.419 84.7881 148.503 84.8104L152.42 85.8874C152.498 85.9088 152.565 85.9581 152.609 86.0259C152.653 86.0937 152.67 86.1753 152.658 86.2552C152.646 86.3351 152.605 86.4078 152.543 86.4595C152.481 86.5111 152.402 86.5381 152.322 86.5354L152.322 86.5353Z" fill="#D94435"/>
<path d="M147.944 84.2401C147.87 84.2375 147.799 84.21 147.743 84.162C147.686 84.1141 147.648 84.0484 147.633 83.9756C147.618 83.9029 147.629 83.8273 147.662 83.7611C147.696 83.6949 147.751 83.642 147.818 83.6109L151.507 81.9075C151.586 81.8709 151.677 81.8673 151.758 81.8976C151.84 81.928 151.907 81.9897 151.944 82.0692C151.98 82.1487 151.984 82.2394 151.953 82.3216C151.923 82.4037 151.862 82.4704 151.782 82.507L148.094 84.2096C148.047 84.2313 147.996 84.2417 147.944 84.2401Z" fill="#D94435"/>
<path d="M140.821 87.4246C140.75 87.4221 140.682 87.3968 140.627 87.3525C140.572 87.3081 140.532 87.247 140.514 87.1783C140.496 87.1096 140.501 87.0369 140.527 86.9711C140.554 86.9053 140.601 86.8498 140.662 86.8129L144.132 84.6985C144.206 84.6531 144.296 84.6392 144.381 84.6599C144.466 84.6807 144.539 84.7344 144.584 84.8091C144.63 84.8839 144.643 84.9737 144.623 85.0587C144.602 85.1438 144.548 85.2171 144.474 85.2625L141.003 87.3768C140.949 87.4103 140.885 87.4269 140.821 87.4246Z" fill="#D94435"/>
<path d="M144.862 90.3677C144.851 90.3674 144.839 90.3664 144.828 90.3649C144.785 90.3589 144.744 90.3446 144.706 90.3226C144.669 90.3007 144.636 90.2716 144.61 90.237C144.584 90.2024 144.565 90.163 144.554 90.1211C144.543 90.0791 144.541 90.0354 144.547 89.9925L145.106 85.9591C145.119 85.8736 145.165 85.7967 145.235 85.7451C145.304 85.6935 145.391 85.6713 145.476 85.6832C145.562 85.6951 145.64 85.7402 145.692 85.8088C145.745 85.8774 145.769 85.964 145.758 86.05L145.199 90.0835C145.187 90.1641 145.147 90.2377 145.085 90.2901C145.023 90.3426 144.943 90.3702 144.862 90.3677Z" fill="#D94435"/>
<path d="M98.4718 32.6189C101.603 32.6189 104.141 31.0569 104.141 29.1301C104.141 27.2032 101.603 25.6412 98.4718 25.6412C95.3409 25.6412 92.8027 27.2032 92.8027 29.1301C92.8027 31.0569 95.3409 32.6189 98.4718 32.6189Z" fill="#F4C57A"/>
<path d="M97.4313 0.375795L99.5231 0.168884L99.5125 16.3536H97.4313V0.375795Z" fill="#033951"/>
<path d="M105.714 20.0695H91.2297L92.4228 12.6371H104.371L105.714 20.0695Z" fill="#08565E"/>
<path d="M79.3947 29.1295C78.998 29.1291 78.608 29.0275 78.2612 28.8344C77.9144 28.6412 77.6223 28.3627 77.4124 28.0252C77.2024 27.6877 77.0815 27.3022 77.061 26.9049C77.0404 26.5077 77.121 26.1117 77.2951 25.7543C79.8696 20.4406 88.3758 16.541 98.471 16.541C108.566 16.541 117.073 20.4405 119.649 25.7543C119.823 26.1117 119.903 26.5077 119.883 26.9049C119.862 27.3022 119.741 27.6877 119.531 28.0252C119.321 28.3627 119.029 28.6412 118.682 28.8344C118.336 29.0275 117.946 29.1291 117.549 29.1295H79.3947Z" fill="#288284"/>
<path d="M103.039 135.511L109.504 130.658H134.628L128.378 135.411L103.039 135.511Z" fill="#688336"/>
<path d="M109.504 130.658L111.188 125.352C111.235 125.202 111.329 125.071 111.456 124.978C111.583 124.886 111.735 124.836 111.892 124.836H135.233C135.347 124.836 135.458 124.862 135.56 124.912C135.662 124.963 135.751 125.036 135.82 125.126C135.889 125.217 135.936 125.322 135.958 125.433C135.98 125.545 135.976 125.66 135.946 125.77L134.628 130.658H109.504Z" fill="#CDD552"/>
<path d="M105.637 97.0419C106.431 95.9894 109.887 91.2175 110.452 87.2226C110.455 87.1985 110.463 87.1752 110.475 87.1542C110.487 87.1331 110.504 87.1147 110.523 87.1C110.542 87.0852 110.564 87.0745 110.588 87.0685C110.611 87.0624 110.636 87.0611 110.66 87.0646C111.606 87.2054 115.934 87.5963 117.478 86.7847C117.506 86.7691 117.538 86.7612 117.57 86.7618C117.603 86.7624 117.634 86.7716 117.662 86.7883C117.69 86.8051 117.712 86.8288 117.728 86.8572C117.743 86.8855 117.751 86.9175 117.75 86.9498C117.707 88.7531 117.218 97.0744 114.29 99.7743C114.267 99.7961 114.237 99.8111 114.206 99.818C114.174 99.8249 114.142 99.8234 114.111 99.8137C113.25 99.5467 107.075 97.7257 105.732 97.3298C105.704 97.3215 105.677 97.3064 105.656 97.2858C105.634 97.2651 105.618 97.2394 105.609 97.2111C105.6 97.1827 105.597 97.1525 105.602 97.123C105.607 97.0935 105.619 97.0657 105.637 97.0419Z" fill="white"/>
<path d="M103.1 135.512L99.6481 133.357C99.5443 133.292 99.4582 133.203 99.3974 133.096C99.3367 132.99 99.3032 132.87 99.2999 132.748C99.2967 132.625 99.3238 132.504 99.3788 132.394C99.4339 132.285 99.5151 132.191 99.6153 132.121L105.026 128.33C105.148 128.244 105.293 128.198 105.442 128.196C105.59 128.195 105.736 128.238 105.86 128.321L109.504 130.759L103.1 135.512Z" fill="#CDD552"/>
<path d="M108.743 134.029C108.653 133.418 108.355 131.024 108.88 129.338C108.893 129.298 108.919 129.263 108.955 129.24C108.99 129.217 109.032 129.206 109.074 129.21C109.806 129.279 113.032 129.719 114.319 129.345C114.35 129.337 114.383 129.336 114.414 129.344C114.445 129.352 114.474 129.368 114.497 129.39C114.52 129.413 114.537 129.441 114.545 129.472C114.554 129.503 114.554 129.536 114.546 129.567C114.314 130.498 113.767 132.944 113.938 133.667C114.132 134.488 109.774 134.243 108.912 134.186C108.871 134.184 108.831 134.167 108.8 134.138C108.769 134.11 108.749 134.071 108.743 134.029Z" fill="#F97700"/>
<path d="M113.418 129.564C112.663 129.704 110.552 130.094 108.619 130.448C108.465 131.975 108.665 133.569 108.737 134.065C108.744 134.109 108.765 134.15 108.798 134.181C108.831 134.211 108.873 134.229 108.918 134.232C109.538 134.273 111.856 134.404 113.234 134.217C113.264 132.735 113.405 131.258 113.656 129.798C113.661 129.766 113.659 129.732 113.649 129.701C113.639 129.67 113.621 129.642 113.598 129.619C113.574 129.596 113.546 129.579 113.514 129.569C113.483 129.56 113.45 129.558 113.418 129.564Z" fill="#E68822"/>
<path d="M120.563 138.386C120.635 138.331 122.078 134.923 122.389 131.933C122.394 131.886 122.416 131.842 122.453 131.811C122.489 131.78 122.536 131.765 122.583 131.768C123.484 131.834 127.542 131.897 127.557 131.896L129.802 131.963C129.83 131.964 129.857 131.971 129.882 131.984C129.906 131.997 129.928 132.016 129.944 132.038C129.961 132.06 129.972 132.086 129.977 132.114C129.982 132.141 129.981 132.169 129.974 132.196C129.84 132.709 129.277 134.311 126.966 139.058C126.948 139.095 126.943 139.136 126.951 139.176C126.964 139.242 126.986 139.35 127.007 139.455C127.014 139.486 127.012 139.517 127.003 139.547C126.994 139.577 126.977 139.604 126.955 139.625C126.933 139.647 126.905 139.663 126.875 139.671C126.846 139.679 126.814 139.68 126.784 139.673C125.563 139.385 120.791 138.327 120.7 138.305C120.699 138.304 120.562 138.387 120.563 138.386Z" fill="#C66128"/>
<path d="M129.575 126.493C128.017 126.499 126.088 126.503 125.382 126.493C125.352 126.493 125.322 126.499 125.295 126.511C125.268 126.523 125.244 126.541 125.225 126.564C125.206 126.587 125.192 126.614 125.184 126.642C125.177 126.671 125.176 126.702 125.181 126.731C125.447 128.054 124.389 131.186 124.057 132.117C124.046 132.147 124.043 132.18 124.047 132.212C124.051 132.243 124.063 132.274 124.081 132.3C124.1 132.327 124.124 132.348 124.152 132.363C124.181 132.378 124.212 132.387 124.244 132.387C124.917 132.398 126.669 132.424 128.178 132.433C128.883 130.608 129.314 128.421 129.575 126.493Z" fill="#AEE7F4"/>
<path d="M117.904 127.136C118.207 126.286 119.174 123.425 118.932 122.216C118.927 122.19 118.927 122.162 118.934 122.136C118.941 122.109 118.954 122.085 118.971 122.064C118.989 122.043 119.011 122.027 119.036 122.016C119.06 122.004 119.087 121.999 119.114 121.999C120.126 122.013 123.886 121.996 124.772 121.992C124.797 121.991 124.821 121.996 124.844 122.006C124.867 122.015 124.887 122.029 124.905 122.046C124.922 122.064 124.936 122.085 124.945 122.107C124.954 122.13 124.958 122.155 124.958 122.18C124.943 122.965 124.829 126.001 123.975 127.379C124.002 127.473 119.248 127.402 118.076 127.383C118.047 127.383 118.018 127.375 117.992 127.362C117.966 127.348 117.943 127.328 117.927 127.304C117.91 127.28 117.899 127.252 117.895 127.223C117.891 127.194 117.894 127.164 117.904 127.136Z" fill="#66D1B6"/>
<path d="M124.969 122.708C125.013 122.628 124.962 118.926 124.043 116.065C124.028 116.019 124.032 115.97 124.052 115.927C124.073 115.884 124.11 115.851 124.155 115.835C125.005 115.53 128.744 113.947 128.756 113.94C128.756 113.94 130.285 113.318 130.838 113.093C130.864 113.083 130.892 113.078 130.919 113.08C130.947 113.082 130.974 113.09 130.998 113.104C131.022 113.117 131.043 113.137 131.059 113.16C131.075 113.183 131.085 113.209 131.089 113.236C131.173 113.76 131.302 115.454 131.099 120.732C131.097 120.772 131.109 120.812 131.132 120.846L131.296 121.078C131.314 121.104 131.326 121.133 131.329 121.164C131.333 121.195 131.328 121.226 131.317 121.255C131.305 121.284 131.286 121.309 131.262 121.329C131.238 121.348 131.21 121.362 131.179 121.367C129.946 121.598 125.155 122.561 125.062 122.578C125.061 122.578 124.969 122.709 124.969 122.708Z" fill="#E68822"/>
<path d="M107.121 137.917C107.03 137.048 106.705 133.444 107.403 132.318C107.417 132.297 107.435 132.278 107.457 132.264C107.478 132.251 107.502 132.242 107.528 132.238C108.26 132.12 113.904 131.077 115.193 130.839C115.222 130.833 115.252 130.835 115.28 130.843C115.309 130.852 115.335 130.867 115.356 130.888C115.377 130.909 115.393 130.935 115.402 130.963C115.411 130.991 115.413 131.021 115.408 131.051C115.259 131.93 114.818 134.839 115.142 136.798C115.146 136.823 115.145 136.849 115.14 136.873C115.134 136.898 115.123 136.921 115.109 136.941C115.094 136.961 115.075 136.978 115.053 136.991C115.032 137.004 115.008 137.012 114.983 137.015C113.878 137.149 108.417 137.926 107.33 138.081C107.305 138.084 107.28 138.083 107.256 138.076C107.232 138.07 107.21 138.059 107.19 138.044C107.171 138.028 107.155 138.009 107.143 137.988C107.131 137.966 107.123 137.942 107.121 137.917Z" fill="#6FA49E"/>
<path d="M116.46 128.099C116.192 126.475 116.392 124.27 116.582 122.831C114.208 123.09 112.599 124.283 112.546 124.389C112.125 125.258 112.325 127.662 112.459 128.864C114.13 128.63 115.716 128.41 116.282 128.342C116.31 128.339 116.337 128.33 116.361 128.315C116.385 128.301 116.407 128.282 116.423 128.259C116.44 128.237 116.452 128.211 116.458 128.183C116.464 128.156 116.465 128.127 116.46 128.099Z" fill="#037A4A"/>
<path d="M110.079 116.159C110.055 116.163 110.03 116.162 110.007 116.156C109.983 116.15 109.961 116.139 109.941 116.124C109.922 116.11 109.905 116.091 109.893 116.07C109.881 116.049 109.873 116.025 109.87 116.001C109.776 115.269 109.471 112.587 109.895 111.71C109.955 111.588 112.38 109.815 115.576 110.461C115.617 110.469 115.654 110.491 115.68 110.523C115.707 110.554 115.723 110.594 115.725 110.636C115.749 111.257 115.789 113.72 116.084 115.069C116.089 115.094 116.089 115.12 116.084 115.144C116.079 115.169 116.069 115.192 116.054 115.213C116.04 115.234 116.022 115.251 116 115.264C115.979 115.278 115.955 115.286 115.93 115.29C114.989 115.428 110.989 116.024 110.079 116.159Z" fill="#B0B82D"/>
<path d="M126.461 134.498C126.461 134.498 127.493 135.151 128.255 134.498C129.017 133.845 132.754 130.474 132.754 130.474C132.754 130.474 132.781 131.608 132.689 132.797C132.596 133.986 128.178 137.237 127.223 136.532C126.869 136.167 126.816 136.795 126.461 134.498Z" fill="#C66128"/>
<path d="M128.378 135.41L134.629 130.658V153.931C134.629 154.03 134.609 154.128 134.57 154.219C134.532 154.311 134.475 154.393 134.404 154.462L128.147 160.555L128.378 135.41Z" fill="#688336"/>
<path d="M128.378 135.41L133.325 139.047C133.469 139.153 133.645 139.203 133.823 139.188C134.001 139.173 134.167 139.094 134.291 138.966L138.481 134.65C138.554 134.575 138.61 134.485 138.645 134.387C138.681 134.288 138.696 134.183 138.688 134.079C138.68 133.974 138.651 133.873 138.601 133.781C138.551 133.688 138.483 133.608 138.399 133.544L134.628 130.657L128.378 135.41Z" fill="#CDD552"/>
<path d="M103.1 135.41H128.378V160.017C128.378 160.214 128.3 160.402 128.162 160.541C128.023 160.68 127.835 160.758 127.639 160.758H103.839C103.643 160.758 103.455 160.68 103.317 160.541C103.178 160.402 103.1 160.214 103.1 160.017V135.41Z" fill="#B0B82D"/>
<path d="M103.1 135.411L100.301 138.459C100.203 138.565 100.139 138.697 100.115 138.839C100.092 138.981 100.11 139.127 100.167 139.259C100.225 139.391 100.32 139.503 100.44 139.581C100.56 139.66 100.701 139.702 100.844 139.702H125.304C125.43 139.702 125.553 139.67 125.663 139.609C125.773 139.548 125.865 139.459 125.932 139.353L128.378 135.411H103.1Z" fill="#CDD552"/>
</g>
<defs>
<clipPath id="clip0_0_673">
<rect width="199" height="174" fill="white"/>
</clipPath>
</defs>
</svg>
