<svg width="167" height="183" viewBox="0 0 167 183" fill="none" xmlns="http://www.w3.org/2000/svg">
<path d="M27.3298 172.999C23.741 173.407 15.0073 177.285 20.8285 181.401C23.2575 183.118 26.0713 181.485 28.7325 181.305C31.6746 181.107 34.9833 181.229 37.9322 181.512C43.405 182.03 47.2276 180.643 51.9284 180.795C82.1069 181.773 112.76 183.122 142.707 180.524C155.631 179.404 156.083 173.895 143.265 171.741C133.633 170.122 123.967 169.637 114.107 168.903C104.43 168.184 101.39 169.359 92.474 171.655C82.6944 174.17 72.41 170.516 62.1248 171.252C53.3056 171.88 44.4788 172.395 35.6445 172.796C33.8326 172.875 30.4639 172.644 27.3298 172.999Z" fill="#ECEDEF"/>
<path d="M152.68 145.213C149.772 148.025 146.557 150.501 143.095 152.595C142.64 152.869 142.181 153.139 141.719 153.403C129.993 160.128 115.364 164.391 100.654 165.928C91.5404 166.882 82.3945 166.792 73.8886 165.597L73.8271 165.588C73.1743 165.496 72.523 165.397 71.8778 165.291C69.9584 164.978 68.078 164.607 66.2366 164.176L66.0088 164.123C65.3353 163.963 64.6641 163.794 63.9951 163.616C61.8363 163.042 59.7054 162.375 57.6023 161.615C57.1864 161.463 56.7714 161.309 56.3575 161.152C56.1298 161.064 55.902 160.977 55.6743 160.888C45.9908 157.089 37.1338 151.452 29.5917 144.289L29.5302 144.23C28.4387 143.192 27.3781 142.124 26.3483 141.025C25.0012 139.588 23.7108 138.101 22.4771 136.566C21.4903 135.341 20.5433 134.088 19.636 132.806C19.3384 132.387 19.0457 131.966 18.7577 131.542C14.7422 125.599 11.5846 119.119 9.37813 112.294C1.92194 89.3657 4.95588 63.1404 18.2833 42.9503C18.5956 42.4772 18.9129 42.0078 19.2352 41.5423C24.815 33.466 31.8529 26.4068 39.6196 20.4323C40.9702 19.3939 42.3504 18.3818 43.7602 17.396C44.5785 16.8237 45.4064 16.2623 46.2438 15.7117C46.757 15.3737 47.2741 15.0399 47.7953 14.7105C48.5468 14.2323 49.3059 13.7642 50.0725 13.3063C50.3321 13.1494 50.5922 12.995 50.8528 12.8432C50.9044 12.8106 50.9568 12.7802 51.0084 12.7499L51.095 12.6998L51.1223 12.6831L51.1428 12.6717C51.3978 12.5199 51.6551 12.3741 51.9125 12.2254C52.1698 12.0766 52.4301 11.9309 52.6897 11.7859C52.7034 11.7775 52.7155 11.7699 52.7292 11.7631C52.796 11.7252 52.8628 11.6872 52.9303 11.6515C53.4541 11.3585 53.9809 11.0703 54.5107 10.787C55.4838 10.2637 56.4663 9.75768 57.4581 9.26885C59.8334 8.09282 62.2533 7.01269 64.7177 6.02845C64.8915 5.95786 65.0661 5.88955 65.2399 5.82199L65.4259 5.74608C66.2158 5.43943 67.009 5.1434 67.8055 4.85799C77.8645 1.25628 88.4966 -0.571517 99.1165 0.158692C108.427 0.800093 120.278 3.97749 128.681 10.305C136.027 15.8369 140.023 23.9042 138.86 33.1631C137.528 43.7716 131.836 52.2313 135.251 63.1624C137.975 71.8809 144.477 79.1025 150.716 85.2835C152.703 87.2517 154.727 89.2154 156.637 91.2702C157.143 91.8177 157.64 92.3716 158.129 92.9317C159.411 94.3919 160.595 95.9343 161.675 97.5491C162.127 98.2322 162.557 98.9328 162.957 99.6509C163.048 99.8095 163.135 99.9697 163.221 100.131C164.4 102.319 165.32 104.637 165.963 107.038C169.668 120.969 163.03 135.228 152.68 145.213Z" fill="#EDF2F9"/>
<path d="M152.68 145.213C149.772 148.025 146.557 150.501 143.095 152.595C142.64 152.869 142.181 153.139 141.719 153.403C129.993 160.129 115.364 164.391 100.654 165.928C91.5404 166.882 82.3945 166.792 73.8886 165.597L73.8271 165.588C73.1743 165.496 72.523 165.397 71.8778 165.291C69.9585 164.978 68.078 164.607 66.2366 164.177L66.0089 164.123C65.3353 163.963 64.6641 163.795 63.9951 163.616C61.8363 163.043 59.7054 162.375 57.6023 161.615C57.1864 161.463 56.7714 161.309 56.3575 161.152C56.1298 161.064 55.9021 160.977 55.6743 160.888C45.9908 157.089 37.1338 151.452 29.5917 144.289L29.5303 144.23C28.4387 143.192 27.3781 142.124 26.3483 141.025C25.0012 139.588 23.7108 138.101 22.4771 136.566C21.4904 135.341 20.5433 134.088 19.636 132.806C19.3384 132.387 19.0457 131.966 18.7578 131.542C14.7422 125.599 11.5846 119.119 9.37814 112.295C11.2696 113.147 13.204 113.902 15.1735 114.554C15.468 114.655 15.7631 114.751 16.0586 114.842C20.0132 116.096 24.1091 116.98 28.2725 117.569C30.6559 117.907 33.0621 118.149 35.4752 118.307C36.2433 118.358 37.0125 118.4 37.7827 118.435C45.5091 118.779 53.2674 118.324 60.5877 117.524C64.3049 117.111 67.9986 116.51 71.6547 115.722C72.3819 115.571 73.107 115.41 73.8302 115.24L73.8916 115.226C76.8793 114.534 79.8373 113.746 82.7725 112.891C84.5548 112.372 86.33 111.831 88.0981 111.269C88.0987 111.269 88.0993 111.269 88.1 111.269C88.1006 111.269 88.1013 111.269 88.1019 111.269C88.9755 110.993 89.8477 110.712 90.7176 110.426C92.4528 109.862 94.1857 109.285 95.9163 108.696C106.038 105.273 116.113 101.63 126.613 99.1318C135.075 97.1157 144.402 96.743 152.621 99.1841C153.295 99.384 153.962 99.6031 154.622 99.8415C156.291 100.444 157.908 101.183 159.456 102.051C160.063 102.392 160.657 102.754 161.238 103.138C162.518 103.981 163.727 104.925 164.856 105.962C165.232 106.309 165.6 106.668 165.955 107.04C169.668 120.969 163.03 135.228 152.68 145.213Z" fill="#C6DDFF"/>
<path d="M152.68 145.213C149.772 148.025 146.557 150.501 143.095 152.595C142.64 152.869 142.181 153.139 141.719 153.403C129.993 160.129 115.364 164.391 100.654 165.928C91.5404 166.882 82.3946 166.792 73.8886 165.597L73.8271 165.588C73.1743 165.496 72.5231 165.397 71.8779 165.291C69.9585 164.978 68.0781 164.607 66.2366 164.177L66.0089 164.123C65.3354 163.963 64.6641 163.794 63.9951 163.616C61.8364 163.043 59.7054 162.375 57.6024 161.615C57.1864 161.463 56.7715 161.309 56.3575 161.152C56.1298 161.064 55.9021 160.977 55.6744 160.888C45.9908 157.089 37.1338 151.452 29.5918 144.289L29.5303 144.23C28.4388 143.192 27.3781 142.124 26.3483 141.025C25.0013 139.588 23.7109 138.101 22.4771 136.566C21.4904 135.341 20.5433 134.088 19.636 132.806C21.5944 131.955 23.556 131.154 25.521 130.4L25.8246 130.284C26.9277 129.866 28.0322 129.464 29.1378 129.077C30.2187 128.701 31.3017 128.341 32.3866 127.999C32.4086 127.99 32.4314 127.984 32.4549 127.977C32.7213 127.892 32.9863 127.81 33.255 127.729C33.2574 127.728 33.2601 127.728 33.2625 127.729C43.5356 124.577 54.0439 122.99 65.2126 123.689C67.3668 123.822 69.5142 124.034 71.6547 124.325C72.3804 124.423 73.1055 124.531 73.8302 124.648L73.8916 124.658C78.1209 125.342 82.2934 126.34 86.3743 127.644C86.3793 127.646 86.3841 127.648 86.3887 127.65C87.673 128.06 88.9472 128.503 90.2113 128.978C90.2177 128.979 90.2239 128.981 90.2295 128.985C90.3957 129.046 90.5627 129.108 90.7282 129.172C94.1014 130.462 97.3882 131.959 100.657 133.499C101.812 134.042 102.965 134.588 104.117 135.136C105.064 135.584 106.011 136.029 106.958 136.471C108.294 137.093 109.634 137.705 110.984 138.293C120.906 142.627 131.49 145.823 142.316 146.026C145.789 146.093 149.26 145.821 152.68 145.213Z" fill="#E1E3E6"/>
<path d="M141.719 153.402C129.993 160.127 115.364 164.389 100.654 165.926C91.5404 166.88 82.3946 166.791 73.8886 165.595L73.8271 165.586C73.1743 165.494 72.5231 165.396 71.8779 165.289C69.9585 164.977 68.0781 164.605 66.2366 164.175L66.0089 164.121C65.3353 163.962 64.6641 163.793 63.9951 163.615C61.8364 163.041 59.7054 162.374 57.6023 161.613C57.1864 161.461 56.7714 161.307 56.3575 161.15C56.1298 161.063 55.9021 160.976 55.6744 160.886C45.9908 157.087 37.1338 151.451 29.5918 144.287L29.5303 144.229C28.4388 143.191 27.3781 142.122 26.3483 141.024C25.0012 139.586 23.7109 138.1 22.4771 136.564C23.7569 136.17 25.0473 135.819 26.3483 135.509C26.6696 135.432 26.9912 135.358 27.3131 135.287L27.3753 135.273C28.3803 135.05 29.3924 134.852 30.4115 134.68C30.9059 134.596 31.4006 134.519 31.8955 134.447C33.7972 134.17 35.7092 133.981 37.6316 133.878C43.142 133.579 48.6678 134.003 54.0682 135.138C55.143 135.363 56.2115 135.619 57.2737 135.904C60.0928 136.659 62.8489 137.606 65.5777 138.637C66.2199 138.88 66.861 139.126 67.5012 139.376C68.888 139.919 70.271 140.476 71.6532 141.032C72.2291 141.264 72.8059 141.497 73.3838 141.729L73.8279 141.907L73.8894 141.932C74.3564 142.118 74.8233 142.304 75.2898 142.487C76.9188 143.131 78.5538 143.755 80.2032 144.338C86.8586 146.691 93.7105 148.37 100.655 149.638C108.256 151.026 115.968 151.925 123.654 152.691C129.65 153.291 135.729 153.809 141.719 153.402Z" fill="#3478F6"/>
<path d="M11.6424 128.863C11.5755 128.863 11.5098 128.846 11.4515 128.813C11.3933 128.78 11.3445 128.733 11.3099 128.676C3.89605 116.344 -0.0142202 102.224 3.8858e-05 87.8347C0.000440458 87.7321 0.0414867 87.6338 0.114184 87.5614C0.186882 87.489 0.285315 87.4484 0.387923 87.4484C0.438824 87.4485 0.489197 87.4586 0.536176 87.4782C0.583155 87.4978 0.625813 87.5265 0.6617 87.5626C0.697586 87.5987 0.725997 87.6415 0.745314 87.6886C0.764632 87.7357 0.774479 87.7861 0.774279 87.837C0.73463 102.087 4.60678 116.074 11.9688 128.275C12.0215 128.363 12.0373 128.468 12.0125 128.568C11.9878 128.667 11.9245 128.753 11.8367 128.806C11.7783 128.842 11.7111 128.862 11.6424 128.863Z" fill="#ECEDEF"/>
<path d="M16.111 116.874C16.0264 116.874 15.9442 116.846 15.8769 116.795C15.8095 116.744 15.7606 116.672 15.7375 116.591L10.7778 98.8349C10.7529 98.7368 10.7674 98.6328 10.8182 98.5451C10.8689 98.4575 10.9519 98.3932 11.0494 98.3659C11.1469 98.3387 11.2512 98.3506 11.3401 98.3993C11.4289 98.4479 11.4952 98.5293 11.5248 98.6262L16.4844 116.383C16.5004 116.44 16.5029 116.501 16.4917 116.56C16.4805 116.618 16.4558 116.674 16.4197 116.721C16.3835 116.769 16.3368 116.807 16.2833 116.834C16.2297 116.861 16.1707 116.875 16.111 116.875V116.874Z" fill="white"/>
<path d="M20.9476 127.773C20.879 127.773 20.8115 127.755 20.7522 127.721C20.6928 127.686 20.6437 127.636 20.6098 127.577L18.2765 123.46C18.2469 123.416 18.2267 123.366 18.2173 123.313C18.208 123.261 18.2095 123.207 18.222 123.155C18.2344 123.103 18.2574 123.054 18.2896 123.011C18.3217 122.969 18.3623 122.933 18.4089 122.907C18.4554 122.881 18.5068 122.865 18.56 122.859C18.6131 122.854 18.6668 122.859 18.7176 122.876C18.7685 122.892 18.8154 122.919 18.8555 122.954C18.8956 122.989 18.9279 123.032 18.9505 123.081L21.2846 127.197C21.3102 127.242 21.3267 127.291 21.3332 127.341C21.3397 127.392 21.3361 127.444 21.3225 127.493C21.309 127.543 21.2857 127.589 21.2542 127.629C21.2227 127.67 21.1835 127.703 21.1389 127.728C21.0802 127.76 21.0142 127.775 20.9476 127.773Z" fill="white"/>
<path d="M35.9564 164.104C36.1887 164.394 35.9564 170.771 35.9564 170.771H42.2945L43.8885 160.915L35.9564 164.104Z" fill="#6A8295"/>
<path d="M43.1568 170.125V173.965C43.1568 174.963 42.4304 175.824 41.4185 176.024L38.8248 176.537L34.5825 178.269C34.4815 178.31 34.3798 178.35 34.2789 178.389C34.1977 178.421 34.1164 178.452 34.0337 178.482C33.9381 178.517 33.8424 178.551 33.746 178.583C33.6496 178.616 33.5578 178.647 33.4629 178.678C33.368 178.709 33.2853 178.736 33.1957 178.763C33.0932 178.794 32.9915 178.823 32.8921 178.852C32.8094 178.876 32.7266 178.9 32.6416 178.921C32.4356 178.977 32.2287 179.027 32.0207 179.073C31.9273 179.094 31.8347 179.114 31.7406 179.134C31.6465 179.153 31.5577 179.17 31.4651 179.187C31.4415 179.192 31.418 179.196 31.3892 179.2C31.3133 179.215 31.2373 179.228 31.1614 179.241C30.9436 179.277 30.7235 179.311 30.5033 179.337C30.4274 179.348 30.3515 179.357 30.2703 179.365C30.1716 179.376 30.073 179.386 29.9743 179.396L29.786 179.412C29.6608 179.422 29.5348 179.432 29.4065 179.438L29.2183 179.448C29.1226 179.452 29.027 179.456 28.9313 179.459H28.8554C28.8008 179.459 28.7461 179.459 28.6915 179.459C27.9133 179.47 27.1352 179.425 26.3635 179.324L25.6507 179.231L24.399 179.068C24.162 179.041 23.943 178.929 23.7832 178.752C23.6234 178.575 23.5338 178.345 23.5314 178.107C23.5322 177.884 23.613 177.668 23.7591 177.499C24.0722 177.13 24.4361 176.807 24.84 176.541C25.1669 176.325 25.517 176.147 25.8837 176.009L27.37 175.451C28.5889 174.995 29.7495 174.397 30.8275 173.668C31.8209 173 32.7374 172.224 33.56 171.353L35.1062 169.717L35.5617 169.236C35.6907 169.098 35.8428 168.985 36.011 168.9C36.2473 168.779 36.5091 168.716 36.7746 168.716H38.9524C39.1656 168.717 39.3769 168.758 39.5748 168.837C39.7574 168.907 39.9256 169.01 40.0712 169.141L40.6549 169.667C40.8534 169.844 41.1101 169.942 41.376 169.942C41.642 169.942 41.8987 169.844 42.0971 169.667C42.2071 169.567 42.3492 169.509 42.4979 169.504C42.5062 169.503 42.5146 169.503 42.523 169.504C42.6056 169.502 42.6878 169.517 42.7647 169.547C42.8416 169.578 42.9116 169.623 42.9706 169.681C43.0297 169.739 43.0766 169.808 43.1085 169.884C43.1405 169.961 43.1569 170.043 43.1568 170.125Z" fill="#234662"/>
<path d="M40.0735 169.152L38.3565 170.771L36.0794 172.918C35.6825 173.289 35.2102 173.569 34.6949 173.741C34.1796 173.913 33.6333 173.972 33.0932 173.914L31.6199 173.762L30.8282 173.679C31.8217 173.01 32.7381 172.234 33.5608 171.364L35.107 169.727L35.5624 169.246C35.6915 169.109 35.8436 168.995 36.0118 168.911C36.2481 168.79 36.5099 168.727 36.7754 168.727H38.9531C39.1664 168.727 39.3776 168.768 39.5755 168.848L40.0735 169.152Z" fill="#011533"/>
<path d="M43.1568 173.276V173.965C43.1568 174.964 42.4304 175.824 41.4185 176.024L38.8248 176.537L34.5825 178.269C34.4815 178.31 34.3798 178.35 34.2789 178.389C34.1977 178.421 34.1164 178.452 34.0337 178.482C33.9381 178.517 33.8424 178.551 33.746 178.583C33.6496 178.616 33.5578 178.647 33.4629 178.678C33.368 178.709 33.2853 178.736 33.1957 178.763C33.0932 178.794 32.9915 178.823 32.8921 178.852C32.8094 178.876 32.7266 178.9 32.6416 178.921C32.4356 178.977 32.2287 179.027 32.0207 179.073C31.9273 179.094 31.8347 179.114 31.7406 179.134C31.6465 179.153 31.5577 179.17 31.4651 179.187C31.4415 179.192 31.418 179.196 31.3892 179.201C31.3133 179.215 31.2373 179.228 31.1614 179.242C30.9436 179.277 30.7235 179.311 30.5033 179.337C30.4274 179.348 30.3515 179.357 30.2703 179.365C30.1716 179.376 30.073 179.387 29.9743 179.396L29.786 179.412C29.6608 179.422 29.5348 179.432 29.4065 179.438L29.2183 179.448C29.1226 179.453 29.027 179.456 28.9313 179.459H28.8554C28.8008 179.459 28.7461 179.459 28.6915 179.459C27.9133 179.47 27.1352 179.425 26.3635 179.324L25.6507 179.231L24.399 179.068C24.162 179.041 23.943 178.929 23.7832 178.752C23.6234 178.575 23.5338 178.345 23.5314 178.107C23.5322 177.884 23.613 177.668 23.7591 177.5C23.8798 177.537 23.9975 177.575 24.1159 177.608C24.3963 177.69 24.6771 177.764 24.9585 177.831C26.5759 178.208 28.2415 178.336 29.8976 178.211C31.5505 178.087 33.1759 177.72 34.7214 177.121C37.3424 176.106 39.1095 175.515 40.2124 175.18C41.2365 174.87 42.1638 174.302 42.9055 173.53L43.1568 173.276Z" fill="#060D16"/>
<path d="M50.1014 86.7659L49.7712 91.8804L49.3158 98.8948L48.7085 108.289L48.4391 112.464L47.2921 130.237L47.1289 132.766L46.99 134.92L45.8939 151.901L45.6268 156.04L45.0051 165.668C45.0051 165.668 37.7941 165.874 35.375 165.799C34.9484 165.784 34.6721 165.763 34.6091 165.729C34.4641 165.653 34.2516 163.749 33.995 160.594C33.7301 157.312 33.4174 152.671 33.0842 147.311C33.0336 146.538 32.9855 145.752 32.9399 144.951C32.9278 144.762 32.9162 144.572 32.905 144.38C32.8762 143.892 32.8468 143.399 32.817 142.902C31.8917 127.409 30.8829 107.89 30.35 97.3547C30.2635 95.6415 30.1891 94.1666 30.1307 92.984C30.029 90.9422 29.9713 89.7763 29.9713 89.7763L47.16 87.2023L50.1014 86.7659Z" fill="#1D2F49"/>
<g opacity="0.76">
<path opacity="0.76" d="M35.2406 103.175L35.3355 104.983L35.4205 106.791L35.5906 110.408C35.6953 112.819 35.795 115.23 35.8896 117.642C35.9883 120.053 36.068 122.465 36.1568 124.877L36.3959 132.113L36.6069 139.35C36.6669 141.763 36.7375 144.175 36.7883 146.587C36.8392 148.999 36.8939 151.413 36.9402 153.826L36.994 157.446L37.0214 159.256L37.0381 161.066L36.9432 159.259L36.8582 157.45L36.6882 153.834C36.5829 151.423 36.4817 149.012 36.3845 146.6C36.2859 144.189 36.2069 141.776 36.1173 139.365L35.8798 132.129L35.6695 124.892C35.608 122.48 35.5389 120.067 35.4873 117.654C35.4357 115.241 35.3826 112.829 35.3355 110.416L35.2809 106.795L35.2535 104.986L35.2406 103.175Z" fill="#234662"/>
</g>
<path d="M55.3282 43.5439C55.3282 43.5439 52.5994 52.188 49.4941 52.3049C45.3026 52.4613 40.6132 44.3652 42.6384 43.1811C42.682 43.1546 42.728 43.1322 42.7757 43.1143C46.1664 41.8178 46.278 38.9167 46.218 37.9709C46.2126 37.8692 46.202 37.7679 46.1862 37.6673C47.2698 37.0308 48.3936 36.4652 49.5503 35.9738C49.6573 35.9283 49.7651 35.8866 49.8721 35.844C50.2979 35.6753 50.734 35.5338 51.1777 35.4205C52.5789 35.0751 53.6401 35.2626 53.2902 36.8422L53.2856 36.865C53.2803 36.8862 53.2757 36.909 53.2719 36.931C53.2568 36.9993 53.2438 37.0684 53.2317 37.1367C53.196 37.3432 53.1687 37.5451 53.1558 37.744C53.1551 37.751 53.1551 37.7581 53.1558 37.7652C53.0723 38.7972 53.2214 39.8348 53.5923 40.8014C53.8992 41.602 54.3284 42.3502 54.8644 43.0194C55.0081 43.2036 55.163 43.3787 55.3282 43.5439Z" fill="#FFD5CC"/>
<path opacity="0.35" d="M54.8591 43.0181C54.6912 43.2619 54.4981 43.4873 54.283 43.6906C53.3721 44.5673 52.2791 45.2246 51.1959 45.8759C50.4194 46.342 49.6125 46.8209 48.7138 46.9264C48.2432 46.9733 47.7681 46.9431 47.3073 46.8369C45.7075 46.4965 44.2813 45.5974 43.2843 44.3009C43.0161 43.9608 42.799 43.5834 42.6399 43.1805C42.6835 43.154 42.7295 43.1317 42.7773 43.1137C46.1679 41.8173 46.2795 38.9162 46.2196 37.9704C46.2141 37.8687 46.2035 37.7674 46.1877 37.6668C47.2713 37.0303 48.3951 36.4646 49.5518 35.9733C49.6588 35.9278 49.7666 35.886 49.8736 35.8435C49.9602 35.867 50.0467 35.8921 50.1325 35.9194L50.153 35.9255C50.3488 35.9827 50.5434 36.0414 50.7367 36.1016C51.4381 36.324 52.2427 36.5191 52.8932 36.869C52.9953 36.9209 53.0892 36.9876 53.1717 37.0671C53.1846 37.08 53.2385 36.9669 53.2871 36.8682C53.2818 36.8895 53.2772 36.9123 53.2734 36.9343C53.2583 37.0026 53.2454 37.0717 53.2332 37.14C53.1975 37.3464 53.1702 37.5483 53.1573 37.7472C53.1566 37.7543 53.1566 37.7614 53.1573 37.7685C53.0608 37.8975 52.9553 38.0195 52.8415 38.1336C52.0278 38.9814 50.6517 39.301 50.0095 40.2301C49.7059 40.6734 49.1875 42.5831 50.1461 42.735C50.2757 42.7432 50.4048 42.7131 50.5173 42.6484C51.3658 42.2575 52.1852 41.8062 52.9691 41.2981C53.198 41.1611 53.4081 40.9947 53.5938 40.8032C53.8989 41.6022 54.3257 42.3494 54.8591 43.0181Z" fill="#FF888A"/>
<path d="M66.9303 102.788C66.9053 105.45 66.7163 108.107 66.4499 110.762C66.0582 114.672 65.495 118.577 65.0335 122.49L64.4627 127.328L63.5199 135.321C63.3738 136.591 62.9674 137.818 62.3261 138.924C61.6849 140.03 60.8226 140.992 59.793 141.75L45.9023 151.901L34.0034 160.594L33.3574 161.066L33.0006 160.003L30.328 152.075L29.8544 150.669L33.0917 147.314L38.9698 141.224L47.135 132.765L47.4948 132.391L50.2714 129.515L48.7146 108.291L48.3798 103.72L48.0071 98.6484L47.513 91.9232L47.3096 89.142L47.1934 87.5586L47.1676 87.2049L47.1039 86.3403V86.3221V86.3138H64.8202C64.8391 86.3138 64.865 86.3586 64.8961 86.4421C64.9181 86.5028 64.9424 86.5855 64.972 86.6857C65.0881 87.1199 65.2468 87.8949 65.4175 88.7959C65.4585 89.0236 65.5018 89.2513 65.5451 89.4897C65.7849 90.8043 66.0316 92.2625 66.2024 93.3009C66.3216 94.0174 66.4036 94.5343 66.4233 94.6672C66.5245 95.3625 66.61 96.0567 66.6798 96.75C66.695 96.9079 66.7102 97.0665 66.7246 97.2244C66.7322 97.3056 66.7391 97.3861 66.7467 97.4673C66.8909 99.245 66.9463 101.018 66.9303 102.788Z" fill="#1D2F49"/>
<path opacity="0.65" d="M66.9304 102.787C66.5668 102.535 66.2153 102.231 65.8821 101.974C63.1351 99.8642 59.2449 100.723 55.7996 100.365C53.5983 100.137 51.4829 99.3723 49.3211 98.8949C48.8846 98.7992 48.4474 98.715 48.0072 98.6489C47.8197 98.6201 47.6337 98.5958 47.4455 98.573C44.1815 98.211 40.9176 99.011 37.64 99.1271C35.2869 99.2114 32.836 98.8546 30.7873 97.6295C30.6415 97.5422 30.4973 97.4504 30.3576 97.3555C30.2711 95.6423 30.1967 94.1675 30.1383 92.9849L30.1641 92.9727C31.3421 92.4141 32.6917 92.389 33.995 92.3655C38.497 92.2744 43.0088 92.0345 47.513 91.9245C48.2675 91.9057 49.021 91.8913 49.7735 91.8812C54.236 91.8235 58.6878 91.9374 63.1154 92.4945C64.178 92.6266 65.2582 92.7981 66.1948 93.3021C66.314 94.0187 66.396 94.5356 66.4157 94.6684C66.5169 95.3637 66.6025 96.058 66.6723 96.7513C66.6958 96.9904 66.7186 97.2302 66.7391 97.4686C66.8909 99.2448 66.9463 101.018 66.9304 102.787Z" fill="#081A35"/>
<path opacity="0.3" d="M66.9303 102.787C66.9053 105.45 66.7163 108.107 66.4498 110.762C66.0582 114.672 65.495 118.576 65.0335 122.49L64.4626 127.328C64.1317 124.639 63.9678 121.926 63.803 119.222C63.4994 114.195 64.1287 106.895 58.6498 104.24C55.8861 102.901 47.0629 100.106 49.9784 95.5194C52.3216 91.8327 62.5999 96.0166 65.7872 96.9396C66.0908 97.0284 66.4089 97.121 66.717 97.225C66.7246 97.3062 66.7315 97.3867 66.739 97.4679C66.8909 99.2449 66.9463 101.018 66.9303 102.787Z" fill="#081A35"/>
<path d="M53.505 40.5679L49.2664 44.9066L44.9998 40.5641L44.0715 42.3911L43.0703 41.73C43.0703 41.73 35.2809 91.6249 40.9631 94.4539C46.6454 97.2829 53.8769 95.852 53.8769 95.852L54.3938 42.2712L53.505 40.5679Z" fill="white"/>
<path d="M52.043 72.2209L51.139 74.0927L50.6342 75.1387L47.4432 81.7478L43.0414 72.3165L43.2661 71.1286L43.7162 68.7444L44.2825 65.7378L45.0605 61.6139L45.8901 57.2152L46.527 53.8381L47.5198 48.5741L47.7771 47.2108L47.3718 46.8025L47.2306 46.662L49.0129 44.8707L50.9151 46.4146L50.6722 46.6529L50.238 47.0803L50.2547 47.3072L50.5894 51.9678L50.7496 54.1956L51.1018 59.1158L51.2779 61.56L52.043 72.2209Z" fill="#FDAC2A"/>
<path d="M50.6813 46.5072L50.2487 46.8951L50.2669 47.1023C49.4318 47.6401 48.5086 48.0271 47.5396 48.2454L47.7901 47.0021L47.3825 46.6271L47.2405 46.4973L49.0129 44.8707L50.9227 46.2909L50.6813 46.5072Z" fill="#FD922A"/>
<path d="M50.7967 53.3964C49.2353 54.3695 47.5327 55.1521 45.9547 56.129L46.574 53.0472C47.8834 52.391 49.237 51.8271 50.6251 51.3599L50.7967 53.3964Z" fill="#FD922A"/>
<path d="M51.3629 60.1231C48.9916 61.3026 46.593 62.4192 44.391 63.9032L45.1501 60.1405L51.177 57.8907L51.3629 60.1231Z" fill="#FD922A"/>
<path d="M51.2893 71.5706L50.7898 72.5239C48.4066 71.1386 45.9394 69.9027 43.4027 68.8235L43.8407 66.6473C46.5035 67.9749 49.1374 69.4703 51.2893 71.5706Z" fill="#FD922A"/>
<g opacity="0.31">
<path opacity="0.31" d="M52.6738 47.6375L49.2649 44.9064L49.1207 44.791L48.9856 44.9125L45.3209 48.165L45.582 48.5506L47.4849 46.8602L49.1275 45.4005L50.8005 46.7403L52.4218 48.0375L53.9467 47.5707L54.2587 45.6852L52.6738 47.6375Z" fill="black"/>
</g>
<g opacity="0.2">
<path opacity="0.2" d="M44.3113 41.2599L45.9547 56.1298L47.3604 75.6534L54.3923 42.271L57.912 62.1127L53.5626 83.7373L52.0962 91.0288C51.5861 93.5678 51.8305 96.702 48.4929 96.6868L45.7224 96.6747C45.541 96.6747 45.3474 96.6693 45.1979 96.5669C45.0666 96.4758 44.9922 96.324 44.9299 96.1767C44.4305 94.985 44.3811 93.6589 44.3766 92.367C44.371 91.0144 44.4075 89.6623 44.4859 88.3106C44.5762 86.7341 44.6757 85.6016 43.6509 84.4121C43.2114 83.9036 41.5134 82.3627 41.521 81.6537L41.9005 48.4983L44.3113 41.2599Z" fill="black"/>
</g>
<path d="M46.3274 84.1897C46.3314 85.2858 46.3249 86.3824 46.3076 87.4795C46.2995 87.9597 46.2889 88.4404 46.2758 88.9217C46.2712 89.0598 46.2682 89.1972 46.2644 89.3361C46.212 91.3484 46.174 93.3917 45.3535 95.2658C45.2322 95.5634 45.073 95.844 44.8799 96.1008C44.8318 96.1634 44.7795 96.2228 44.7235 96.2784C44.4472 96.5562 44.0927 96.7437 43.7329 96.8932C42.8678 97.2485 41.9342 97.4059 41.0003 97.354C40.0804 97.3031 39.2545 97.2462 38.3292 97.2553C36.3891 97.2735 33.0432 97.8109 31.2374 97.1316C29.3398 96.4166 30.0404 94.046 30.1747 92.3025C30.4146 89.1312 29.112 86.2938 28.8707 83.2697C28.8502 83.0208 28.8373 82.771 28.8335 82.5198C28.8198 81.6385 28.8228 80.774 28.8107 79.9223C28.7872 78.1309 28.7014 76.3692 28.2748 74.5095C28.2672 74.4784 28.2604 74.4457 28.2536 74.4146C28.2467 74.3835 28.2422 74.3706 28.2369 74.3486C28.2285 74.3114 28.2194 74.2765 28.208 74.2416C28.1943 74.152 28.1678 74.067 28.1465 73.9797V73.9691C27.9423 73.1698 27.7161 72.375 27.5097 71.578C27.4732 71.4399 27.4383 71.3033 27.4065 71.1727C27.3837 71.0854 27.3624 70.9974 27.3427 70.9131C27.3374 70.8949 27.3336 70.8752 27.3283 70.8569C26.9434 69.2865 26.1517 67.9627 25.8542 66.3785C25.4721 64.2928 25.2168 62.1859 25.0898 60.0693C24.938 57.698 25.2872 55.3836 25.0982 53.0351C24.9464 51.1041 24.4006 49.252 26.1282 47.8773C28.564 45.938 32.2424 44.9368 35.1609 43.9811C35.6042 43.8346 38.097 43.1651 40.3696 42.523C41.5666 42.186 42.7029 41.8565 43.446 41.6121C43.5504 41.5783 43.6611 41.5687 43.7697 41.5841C43.8783 41.5994 43.982 41.6393 44.073 41.7006C44.1639 41.762 44.2396 41.8433 44.2945 41.9383C44.3493 42.0333 44.3818 42.1395 44.3895 42.249C44.5223 44.1299 44.826 48.5256 45.1554 54.0447C45.2799 56.1374 45.4082 58.3902 45.5349 60.7289C45.664 63.1923 45.7849 65.6562 45.8978 68.1206C46.0389 71.2818 46.1518 74.4445 46.2363 77.6087C46.2702 78.9649 46.2955 80.3211 46.3122 81.6772C46.3193 82.5152 46.3243 83.3527 46.3274 84.1897Z" fill="#234662"/>
<path d="M45.9266 78.1462L45.7854 77.6664L37.9239 51.0054C37.8973 50.9168 37.8973 50.8223 37.9239 50.7337L40.2883 42.7743C40.3112 42.6968 40.3533 42.6263 40.4108 42.5695C40.4683 42.5127 40.5392 42.4714 40.617 42.4494C41.8861 42.0904 43.0589 41.7465 43.7291 41.5165C43.7984 41.4928 43.8721 41.4854 43.9447 41.4948C44.0173 41.5042 44.0868 41.5301 44.1477 41.5706C44.2087 41.6111 44.2595 41.6651 44.2963 41.7283C44.3331 41.7916 44.3549 41.8625 44.3599 41.9355C44.4791 43.6054 44.7986 48.1931 45.1485 54.0462C45.2723 56.1389 45.4013 58.3918 45.5281 60.7312C45.6581 63.1941 45.7791 65.6577 45.8909 68.1221C45.9076 72.6924 45.9228 76.3616 45.9281 77.649C45.9266 77.9731 45.9266 78.1462 45.9266 78.1462Z" fill="#1D2F49"/>
<path d="M71.7344 60.2341C71.7132 60.9825 71.6846 61.7299 71.6486 62.4763C71.469 66.1425 71.0996 69.7969 70.5419 73.4249C70.2786 75.1426 69.7267 76.9256 69.6037 78.6517C69.5233 79.8017 69.8026 80.7991 69.2516 81.8329C69.2012 81.9282 69.1457 82.0207 69.0853 82.11C68.469 83.017 67.6355 84.4942 66.6214 85.4749C66.1204 85.9584 65.5762 86.3204 64.9902 86.4351L64.9523 86.4411C64.9523 86.5239 64.9599 86.6043 64.9659 86.6871C65.0226 87.3967 65.1471 88.0992 65.3379 88.7851C65.3994 89.0212 65.4677 89.2572 65.5383 89.4903C65.7242 90.0975 65.9292 90.7047 66.1235 91.3006C66.5918 92.7496 67.2127 94.5 66.9585 96.0439C66.9234 96.3 66.8248 96.5432 66.6715 96.7514C66.5697 96.8862 66.4442 97.0014 66.3011 97.0914C66.0104 97.2804 65.6521 97.3836 65.2688 97.4558C64.7375 97.5575 64.1659 97.5962 63.6672 97.7116C59.6442 98.6422 55.3525 98.2034 51.3075 97.4535C50.7398 97.3487 50.26 97.0087 49.8593 96.4576C49.8031 96.3817 49.7477 96.299 49.6945 96.2124C49.6794 96.1881 49.6649 96.1654 49.6505 96.1365C49.6027 96.0606 49.5579 95.9779 49.5139 95.8929C49.0167 94.9403 48.6736 93.5861 48.4641 91.8995C48.3624 91.0835 48.2918 90.1901 48.2508 89.2276C48.244 89.069 48.2387 88.9096 48.2334 88.7464C48.2242 88.4428 48.2167 88.1278 48.2129 87.809L48.2273 87.5266L48.2531 87.0393L48.2895 86.325H48.2038C47.8478 86.325 47.4811 86.325 47.1069 86.3387C46.8496 86.3455 46.5877 86.3531 46.3243 86.3629C45.7323 86.3827 45.1273 86.41 44.5148 86.4335C42.6353 86.5049 40.6944 86.5459 38.9266 86.2817C38.4236 86.2104 37.9257 86.1073 37.4358 85.9728L37.4943 85.0088V84.9655L37.6157 82.9616L37.6248 82.8205L37.7174 81.2917L37.7417 80.875V80.8454L37.788 80.0863L37.8237 79.495L38.9858 79.4191L41.5446 79.2499C42.6108 79.179 43.6775 79.1092 44.7448 79.0404L46.1384 78.95L46.256 78.9417L47.8151 78.8423C48.0891 78.8248 48.3806 78.8202 48.6797 78.8164L48.7556 77.2915L48.7715 77.0046C48.9378 75.3043 49.1374 73.538 49.3659 71.7185C49.3773 71.6366 49.3871 71.5538 49.397 71.4718C49.397 71.4476 49.4038 71.4233 49.4069 71.3959C49.4251 71.2573 49.4428 71.1184 49.46 70.9792C49.4987 70.6832 49.5359 70.3849 49.5769 70.0866C49.9989 66.9251 50.4999 63.6255 51.0608 60.2659C51.0897 60.0989 51.117 59.9312 51.1458 59.7642C51.1853 59.5228 51.2261 59.2807 51.2681 59.0378C51.3288 58.678 51.3918 58.3167 51.4533 57.9561C51.7124 56.4628 51.9811 54.9642 52.2594 53.4603C52.5564 51.8516 52.8628 50.2439 53.1786 48.6372C53.2378 48.3389 53.2962 48.0421 53.3547 47.7438C53.4382 47.321 53.5232 46.8967 53.6075 46.4755C53.7871 45.5813 53.969 44.6912 54.1532 43.8051C54.2026 43.5622 54.2519 43.3193 54.305 43.0779L54.3551 42.8388C54.365 42.7895 54.3756 42.7409 54.3855 42.6916L54.4288 42.4859C54.4288 42.4707 54.4356 42.4547 54.4386 42.4403C54.45 42.3834 54.4621 42.3272 54.4743 42.2703C54.4789 42.2505 54.4847 42.2309 54.4918 42.2118C54.4993 42.1934 54.5085 42.1756 54.5191 42.1587C54.5294 42.1423 54.541 42.1268 54.554 42.1124C54.56 42.1048 54.5669 42.098 54.5745 42.0919C54.5812 42.0852 54.5883 42.0788 54.5957 42.0729C54.6258 42.0494 54.6593 42.0307 54.6952 42.0175C54.7126 42.0122 54.7316 42.0069 54.7506 42.0031C54.8122 41.9933 54.8753 41.9998 54.9335 42.0221L58.8723 43.5759L69.6857 47.838C69.957 47.9429 70.2125 48.0849 70.4448 48.26C72.0001 49.4434 71.6433 51.7638 71.7071 53.6417C71.7855 55.8404 71.7946 58.0379 71.7344 60.2341Z" fill="#234662"/>
<path opacity="0.2" d="M66.9592 96.0429C66.9235 96.2992 66.8247 96.5426 66.6715 96.7511C66.6958 96.9894 66.7178 97.2293 66.739 97.4684C66.2639 97.6441 65.7408 97.6395 65.2688 97.4555C64.0892 96.9317 63.1928 96.0383 62.3548 95.0872C62.0086 94.6948 61.6595 94.3001 61.2374 93.9927C60.782 93.6617 60.2598 93.4431 59.7375 93.2382C57.4857 92.3572 55.1574 91.6857 52.7823 91.232C51.8715 91.0589 51.1883 90.8198 50.4004 90.3485C49.7461 89.956 48.9848 89.468 48.2508 89.2304C48.1386 89.1937 48.0236 89.1663 47.9069 89.1484C47.7088 89.1221 47.5082 89.1201 47.3096 89.1423C46.9156 89.1826 46.5004 89.37 46.1125 89.3799C45.6958 89.3905 45.2336 89.2228 44.8153 89.1666C43.8285 89.0353 42.8334 89.0148 41.8398 88.9996C38.7049 88.9541 35.6262 88.8478 33.2732 86.4872C32.5999 85.8131 32.023 85.0002 31.1668 84.5835C30.7258 84.3686 30.2331 84.273 29.7944 84.0521C29.4285 83.8663 29.1115 83.5969 28.8691 83.2657C28.8486 83.0168 28.8357 82.767 28.8319 82.5158C28.8236 81.9936 28.8213 81.4789 28.8198 80.9673C28.8198 80.8679 28.8198 80.7669 28.8198 80.6637C28.8198 80.4137 28.817 80.1642 28.8114 79.9153C28.8456 79.9009 28.8797 79.8872 28.9131 79.8758C29.5242 79.6701 30.1899 79.7771 30.826 79.8864C31.5326 80.0079 32.2462 80.1324 32.9323 80.3419C33.3673 80.4687 33.788 80.6402 34.1878 80.8535C34.8451 81.2095 35.419 81.6983 36.0399 82.1127C36.0938 82.1484 36.1469 82.1833 36.2016 82.2175L35.3871 84.311C35.8076 84.7072 36.7716 84.9121 37.4935 85.0138C37.999 85.0852 38.3854 85.1057 38.3854 85.1057C38.3854 85.1057 37.8351 85.2734 38.6943 85.8792C39.7107 86.5965 41.8527 86.2921 43.0406 86.3164C44.3938 86.3447 45.7487 86.3465 47.1054 86.3217L47.5441 86.3133C47.5441 86.3133 53.3349 85.8268 54.9828 86.3133C56.5488 86.7764 64.1461 86.4743 64.8961 86.4424H64.9553C64.9553 86.5244 64.9629 86.6056 64.969 86.6883C65.0851 87.1225 65.2437 87.8975 65.4145 88.7985C65.4555 89.0262 65.4988 89.2539 65.542 89.4923C65.7272 90.0995 65.9329 90.7067 66.1257 91.3018C66.5903 92.7486 67.212 94.4997 66.9592 96.0429Z" fill="#081A35"/>
<g opacity="0.07">
<path opacity="0.07" d="M53.5049 40.5677L54.3923 42.2711L54.3376 43.1759L53.5049 40.5677Z" fill="black"/>
</g>
<path d="M32.9984 160.005C31.9805 160.483 30.224 161.429 28.8729 162.169C27.8102 162.752 27.0011 163.207 27.0011 163.207L25.7046 160.575L23.8548 156.82L25.0351 155.954L30.328 152.075L32.9984 160.005Z" fill="#6A8295"/>
<path d="M28.7545 162.799L27.5863 165.931C26.5904 168.61 26.2121 171.48 26.4796 174.325L26.6132 175.744L26.6481 176.117C26.743 177.115 26.5829 178.121 26.1828 179.041C26.1443 179.129 26.0954 179.212 26.0371 179.288C25.9402 179.414 25.8172 179.518 25.6765 179.592C25.4374 179.716 25.1607 179.747 24.9001 179.678C24.6394 179.61 24.4133 179.448 24.2655 179.223L23.0282 177.377C21.2698 174.746 20.2368 171.698 20.0337 168.541L19.6952 163.355L18.9308 160.47C18.7843 159.927 18.827 159.351 19.0519 158.836C19.2768 158.32 19.6704 157.897 20.1681 157.635L24.0856 155.615C24.566 155.368 25.0959 155.743 25.0959 156.245C25.0958 156.314 25.0861 156.383 25.067 156.45C24.9835 156.737 25.0106 157.045 25.1431 157.314C25.2756 157.582 25.5039 157.791 25.7828 157.899L26.6087 158.21C26.815 158.287 27.005 158.403 27.1688 158.55C27.3488 158.708 27.4956 158.9 27.6007 159.115L28.6809 161.308C28.7937 161.539 28.8585 161.79 28.8711 162.046C28.8838 162.302 28.8441 162.559 28.7545 162.799Z" fill="#234662"/>
<path d="M26.6095 158.206C27.0512 158.474 25.6735 160.528 25.5551 160.874C24.8826 162.834 24.7855 166.555 25.672 168.469C25.8117 168.773 26.6262 169.578 26.5829 169.903C26.7734 168.546 27.1106 167.214 27.5886 165.931L28.7568 162.799C28.8468 162.558 28.8865 162.301 28.8734 162.044C28.8604 161.787 28.7949 161.535 28.6809 161.304L27.6 159.11C27.4943 158.895 27.3479 158.704 27.1689 158.545L26.6095 158.206Z" fill="#011533"/>
<path d="M20.871 157.268L20.1681 157.631C19.6705 157.893 19.2769 158.317 19.052 158.832C18.8271 159.348 18.7844 159.924 18.9308 160.467L19.6944 163.352L20.033 168.538C20.2362 171.696 21.2694 174.744 23.0282 177.375L24.2655 179.22C24.4132 179.446 24.6393 179.608 24.9 179.676C25.1607 179.744 25.4374 179.713 25.6765 179.589C25.9036 179.471 26.0826 179.278 26.1828 179.043C26.0847 178.941 25.9888 178.84 25.8952 178.739C23.1238 175.769 21.4706 171.886 21.1283 167.795C20.8626 164.618 20.5878 162.527 20.3829 161.24C20.1911 160.036 20.3103 158.803 20.729 157.658L20.871 157.268Z" fill="#060D16"/>
<path d="M48.5377 77.2984C48.6014 77.2785 48.6579 77.2404 48.7001 77.1887C48.7424 77.137 48.7685 77.0741 48.7753 77.0077C49.781 66.7384 52.0088 54.019 54.4765 42.2757C54.4866 42.2269 54.5073 42.181 54.5371 42.141C54.5668 42.1011 54.6049 42.0682 54.6488 42.0445C54.6926 42.0209 54.741 42.0071 54.7907 42.0041C54.8405 42.0012 54.8902 42.0091 54.9365 42.0274L58.8752 43.5805L59.2259 54.1215L49.6459 77.2817L48.5377 77.2984Z" fill="#1D2F49"/>
<path d="M60.0025 62.3594C60.4511 60.8967 60.9833 59.461 61.5965 58.0594C62.2026 56.6508 62.8967 55.2818 63.6748 53.9605C64.465 52.6481 65.3447 51.3729 66.4408 50.2821C66.9807 49.7277 67.597 49.253 68.2709 48.8726C68.9487 48.5082 69.7131 48.2653 70.4843 48.3184C70.1038 48.3302 69.7271 48.3978 69.3662 48.5188C69.0085 48.6404 68.6661 48.8032 68.346 49.0039C67.7071 49.4075 67.1244 49.894 66.6131 50.4506C66.0961 51.004 65.6173 51.5918 65.18 52.2101C64.739 52.8265 64.3268 53.4648 63.939 54.1191C63.5511 54.7734 63.1799 55.4368 62.8292 56.1116C62.4785 56.7864 62.1415 57.4696 61.8151 58.1611C61.4887 58.8526 61.1768 59.5448 60.8754 60.2455C60.5741 60.9461 60.2841 61.6489 60.0025 62.3594Z" fill="#182841"/>
<path opacity="0.36" d="M65.4099 88.7972C65.3849 88.7919 65.3606 88.7881 65.334 88.785C64.1841 88.6408 62.9635 88.4814 61.7786 88.3691C59.6176 88.1657 57.5279 87.4013 55.3388 87.4582C52.9713 87.5212 50.597 87.4673 48.2257 87.5341C47.8766 87.5432 47.5312 87.5539 47.1919 87.5637C46.0343 87.5986 44.7941 87.6472 43.6054 87.6996C42.6019 87.7444 41.5855 87.8446 40.5866 87.6814C39.6135 87.522 38.8985 86.9041 37.9831 86.5967C36.8399 86.2172 35.734 86.2065 34.6857 85.4771C33.7992 84.86 33.913 84.0121 33.5472 83.1081C33.1244 82.0727 32.2188 82.4659 31.3641 82.2731C30.7918 82.1433 30.2582 81.8769 29.7405 81.6082C29.5659 81.5171 29.1735 81.2044 28.8213 80.9744C28.5981 80.8294 28.3886 80.7186 28.2611 80.7186L28.819 80.6738L32.9308 80.3489L33.5009 80.3041L36.2524 82.091L36.2 82.2245L35.3856 84.318C35.8061 84.7142 36.7701 84.9192 37.492 85.0209C37.9975 85.0922 38.3838 85.1127 38.3838 85.1127C38.3838 85.1127 37.8335 85.2805 38.6928 85.8862C39.7091 86.6035 41.8512 86.2991 43.0391 86.3234C44.3923 86.3518 45.7472 86.3535 47.1039 86.3287L47.5426 86.3204C47.5426 86.3204 53.3334 85.8338 54.9813 86.3204C56.5472 86.7834 64.1446 86.4813 64.8945 86.4494H64.9537C64.9537 86.5314 64.9614 86.6126 64.9674 86.6954C65.0805 87.1212 65.2392 87.8962 65.4099 88.7972Z" fill="#081A35"/>
<path d="M33.5001 80.2983C33.5001 80.2983 35.0106 82.2529 35.8927 82.656C36.7747 83.059 36.1029 79.1886 36.1029 79.1886L33.5001 80.2983Z" fill="#FFD5CC"/>
<path d="M38.6913 80.0211L38.3831 85.1068C37.1345 84.933 35.296 84.6225 35.3848 84.3128C35.5184 83.8445 36.0012 80.2299 36.0012 80.2299L38.6913 80.0211Z" fill="#E0DBC4"/>
<path opacity="0.2" d="M60.8799 76.27C60.7812 75.8904 60.8351 75.5344 60.7592 75.1602C60.6522 74.6388 60.3797 74.1545 60.2772 73.6247C59.973 72.0667 59.9371 70.4681 60.171 68.898C60.3987 67.3799 60.0685 65.8512 60.2203 64.3437C60.344 63.108 60.5019 61.8662 60.7129 60.6365C60.7524 60.4027 60.7934 60.1682 60.8389 59.9367C60.8511 59.8673 60.864 59.7983 60.8776 59.7294C60.5604 59.8957 60.5186 60.32 60.4389 60.6684C60.3251 61.1633 60.0639 61.6096 59.8544 62.0711C58.747 64.5001 59.673 67.0983 58.662 69.5804C58.161 70.8093 57.3321 71.286 56.0744 71.2671H55.9597C55.3525 71.245 54.7232 71.2086 54.116 71.2541C53.6417 71.2801 53.1753 71.3877 52.7376 71.5722C52.6633 71.5221 52.5772 71.4923 52.4878 71.4857C52.3489 71.4659 52.2108 71.4462 52.0734 71.4249L51.9869 71.412C51.6372 71.3614 51.2885 71.3058 50.9409 71.245C50.4483 71.1646 49.9541 71.0796 49.4668 70.9938C49.1062 70.9315 48.7449 70.8685 48.3851 70.8078C48.1058 70.7608 47.828 70.7145 47.5502 70.6689C47.4553 70.6537 47.3604 70.6378 47.2648 70.6203L46.9984 70.571C46.6606 70.5042 46.3236 70.4291 45.9865 70.3547C45.9585 70.3463 45.9296 70.341 45.9008 70.3342C45.3269 70.2051 44.7531 70.0769 44.1724 69.988C43.9502 69.9541 43.7276 69.925 43.5044 69.9008C43.5034 69.9001 43.5022 69.8997 43.501 69.8997C43.4998 69.8997 43.4986 69.9001 43.4976 69.9008C43.0551 69.8507 42.611 69.8157 42.1685 69.7801C42.0053 69.7672 41.8345 69.7581 41.6584 69.7489C40.9965 69.7163 40.2701 69.6867 39.6659 69.4453C39.4571 69.3647 39.2624 69.2514 39.089 69.1098C37.2278 67.5644 36.1006 65.0922 35.7568 62.7231C35.6004 61.6498 34.9317 60.5591 34.9438 59.4858C34.9332 60.4566 34.6933 61.5352 34.1681 62.3656C33.7529 63.0215 33.2883 63.8306 32.6758 64.327C32.0632 64.8234 31.2685 64.9707 30.5239 65.0997C29.8187 65.2227 29.0528 64.9722 28.3727 65.1757C28.1909 65.2354 28.0184 65.3205 27.8603 65.4284C27.1939 65.858 26.7757 66.3856 26.62 66.989C26.4728 67.5522 26.557 68.1815 26.8827 68.8571C26.972 69.045 27.0886 69.2187 27.2288 69.3725C27.4379 69.6042 27.7002 69.7816 27.9932 69.8894C28.0589 69.9155 28.126 69.9378 28.1943 69.9562C28.3305 69.9908 28.4694 70.0137 28.6095 70.0245C28.8822 70.0342 29.1552 70.0238 29.4263 69.9934C29.6457 69.9722 29.8669 69.9773 30.0851 70.0085C30.3983 70.0756 30.6969 70.198 30.9671 70.3698C31.1835 70.4928 31.396 70.6287 31.6161 70.7433C31.7465 70.814 31.8826 70.8734 32.023 70.9209C32.1042 70.9488 32.1871 70.9713 32.2712 70.9885C32.2807 70.991 32.2903 70.9928 32.3 70.9938C32.36 71.0075 32.4185 71.0173 32.4784 71.0249C32.5961 71.0401 32.7168 71.0492 32.8367 71.0538C33.137 71.0563 33.4373 71.0429 33.7362 71.0135C34.0398 70.9892 34.3389 70.9627 34.6402 70.9376C36.2168 70.8071 37.8062 70.6947 39.3835 70.7813L39.5407 70.7904H39.5968C40.2138 70.8303 40.8279 70.9064 41.436 71.0181C41.502 71.0302 41.5673 71.0446 41.6334 71.0613C42.1389 71.1782 42.6444 71.365 43.1515 71.4014H43.2069C43.4437 71.4143 43.6881 71.4135 43.9333 71.4097C44.2233 71.4097 44.5147 71.4014 44.7986 71.4097C45.163 71.4249 45.5276 71.4358 45.8924 71.4424H46.0184C46.362 71.4485 46.7056 71.4505 47.0492 71.4485C47.4465 71.4485 47.8432 71.4434 48.2394 71.4333C48.3996 71.4333 48.5597 71.4257 48.7184 71.4204L48.8049 71.4166L49.0425 71.409C49.1601 71.4044 49.2793 71.3999 49.3985 71.3976C49.7869 71.3767 50.1764 71.4053 50.5576 71.4826C50.6718 71.5091 50.7839 71.5438 50.8931 71.5866C50.9953 71.6268 51.093 71.6777 51.1845 71.7384C51.4088 71.8851 51.5783 72.1018 51.6665 72.3548C51.7025 72.4493 51.7309 72.5465 51.7515 72.6455C51.7515 72.6455 51.7515 72.6455 51.7515 72.6508C51.7591 72.6827 51.7645 72.7138 51.7713 72.7465C51.7834 72.8087 51.7933 72.8717 51.8024 72.937C51.8275 73.1176 51.8449 73.3097 51.8662 73.5116C51.8662 73.5116 51.8662 73.5116 51.8662 73.5161C51.8753 73.6004 51.8836 73.6839 51.895 73.7712C52.0185 74.7099 52.0928 75.6544 52.1174 76.6009C52.122 76.7952 52.1235 76.9903 52.1174 77.1907C52.1174 77.2431 52.1174 77.2985 52.1174 77.3569C52.1235 77.6211 52.1539 77.9391 52.1645 78.2678C52.1645 78.2853 52.1645 78.3042 52.1645 78.3232C52.1645 78.3991 52.1645 78.4819 52.1645 78.5616C52.1576 79.0815 52.0681 79.584 51.7212 79.88C51.4897 80.0766 50.1818 80.2474 48.2645 80.3947L48.0633 80.4099C47.6762 80.4387 47.264 80.466 46.8336 80.4926L46.2628 80.5283C44.8206 80.611 43.1955 80.6846 41.5043 80.7507C40.6511 80.7841 39.7813 80.8137 38.9122 80.8425L38.6154 80.8516C38.3117 80.8615 38.015 80.8714 37.7159 80.8797L36.2942 80.9222C36.156 80.9268 36.0179 80.9298 35.8805 80.9328C35.419 80.9465 34.962 80.9586 34.5142 80.9693L34.3753 80.9738L34.0406 80.9814L32.9376 81.008C32.908 81.052 32.8792 81.0968 32.8519 81.1408C32.6878 81.3958 32.5456 81.6642 32.4268 81.9431L34.5468 81.5462H34.5673C34.9423 81.7579 35.3218 81.9705 35.7059 82.1633C35.8425 82.2308 35.9792 82.2961 36.1188 82.3576L36.2403 82.4107C36.6748 82.602 37.1299 82.7424 37.5967 82.829C37.6605 82.8411 37.725 82.851 37.7895 82.8601C38.0216 82.8904 38.2553 82.9056 38.4894 82.9056C38.6154 82.9056 38.7414 82.9056 38.8689 82.8973C39.2211 82.8821 39.5733 82.8457 39.9232 82.8085C40.5988 82.7326 41.2743 82.6567 41.9499 82.5807C43.3921 82.4206 44.8389 82.287 46.2879 82.3067C46.4146 82.3067 46.5422 82.3113 46.6674 82.3158C48.7313 82.3841 51.2065 83.0111 53.1247 81.9811C53.423 81.8209 53.7023 81.6266 53.9892 81.4498L53.9991 81.4429C54.205 81.3105 54.4213 81.195 54.6458 81.0976C55.1013 80.9085 55.5908 80.838 56.0744 80.7499C56.9093 80.5981 57.698 80.3423 58.5147 80.1427C59.1288 79.9909 59.7436 79.7032 60.3736 79.6432L60.4723 79.6371C60.804 79.6189 61.1555 79.6546 61.4538 79.5119C61.5457 79.473 61.6229 79.4057 61.6739 79.3199C61.7079 79.2488 61.7253 79.1709 61.7247 79.0921C61.806 78.0515 61.1259 77.2256 60.8799 76.27ZM31.6564 70.9475L31.5121 70.9558C31.371 70.9672 31.2305 70.9816 31.0894 70.9983L31.5205 70.9657L31.7209 70.952L31.9296 70.9361C31.8378 70.9376 31.7482 70.9407 31.6564 70.9475Z" fill="#081A35"/>
<path opacity="0.2" d="M28.8752 71.1597L29.6342 71.1043C29.5116 71.1006 29.3892 71.0905 29.2676 71.074C29.1354 71.0959 29.0044 71.1245 28.8752 71.1597Z" fill="#081A35"/>
<path opacity="0.2" d="M34.2857 60.2863C34.3504 60.1165 34.3947 59.9397 34.4178 59.7595C34.3702 59.9336 34.3262 60.1092 34.2857 60.2863Z" fill="#081A35"/>
<path opacity="0.36" d="M60.8556 77.7277C60.3835 77.9555 59.8112 77.7809 59.3034 77.9099C58.977 77.9926 58.6961 78.1946 58.4031 78.3578C56.5586 79.384 54.1524 78.883 52.3087 79.9131C51.6468 80.2835 51.0889 80.8376 50.3883 81.1275C49.6877 81.4175 48.8937 81.4236 48.1286 81.4205C43.4786 81.4003 38.8292 81.3327 34.1802 81.2179L32.5475 81.1215C32.664 81.0815 32.7781 81.0346 32.8891 80.981C37.8609 80.8649 44.3553 80.6653 48.2895 80.3647C50.2061 80.2182 51.5147 80.0466 51.7462 79.8508C52.415 79.2792 52.1258 77.9388 52.1364 77.1941C52.1392 76.0408 52.0631 74.8887 51.9087 73.7457C51.8581 73.3465 51.8052 72.9477 51.75 72.5495C53.4738 72.2717 55.294 72.0181 56.9055 72.6815C58.0441 73.1514 59.0126 74.0562 60.2264 74.2756C59.9759 75.4384 60.4245 76.6233 60.8556 77.7277Z" fill="#081A35"/>
<path d="M60.2469 77.4374C59.7155 77.4966 59.2662 77.4533 58.7766 77.5619C58.6806 77.5816 58.5858 77.607 58.4927 77.6378C58.4168 77.6636 58.3477 77.6917 58.2726 77.7258C57.7086 77.9763 57.1727 78.2997 56.5768 78.456C56.3632 78.5103 56.1453 78.5461 55.9256 78.5631C55.6621 78.5836 55.3974 78.5836 55.1339 78.5631L54.702 78.4113V78.3088L54.6094 73.3909L54.784 73.4174L55.1635 73.4759L55.8466 73.5799C56.1407 73.6253 56.4255 73.7181 56.6899 73.8546C57.6767 74.3647 58.6817 74.8475 59.6647 75.3416L59.695 75.3568C59.6879 75.6753 59.7134 75.9938 59.7709 76.3071C59.8522 76.7125 60.2066 77.0503 60.2469 77.4374Z" fill="#FFD5CC"/>
<path d="M54.7627 78.3251C54.743 78.3547 54.7225 78.3835 54.702 78.4124L54.1851 78.4268H54.0834C53.7691 78.3774 53.4549 78.3266 53.1414 78.2894C52.3201 78.1922 51.7455 78.2894 51.0259 78.5171L50.7329 78.5255L51.0752 72.9601L54.3976 72.8652L55.0496 72.847C55.0496 72.847 55.102 73.0876 55.162 73.4755C55.1719 73.5446 55.1832 73.6174 55.1946 73.6949C55.3677 74.9162 55.5446 77.1493 54.7627 78.3251Z" fill="#E0DBC4"/>
<path opacity="0.36" d="M30.9785 70.5009C30.1243 70.5542 29.267 70.5288 28.4175 70.425C28.0994 70.3863 27.7609 70.3256 27.5279 70.1062C27.017 69.6257 27.3153 68.7832 27.2311 68.0863C27.187 67.7212 27.0261 67.369 27.0459 67.0017C27.0656 66.6343 27.3305 65.9117 27.6744 65.7158C28.1731 65.4319 29.0004 65.9215 29.6016 65.7659C30.0282 65.6551 30.391 65.353 30.8464 65.3735C32.1292 65.4297 32.7441 67.1846 33.5365 67.9824C34.311 68.7645 34.8942 69.715 35.2406 70.7597C33.3501 71.1038 31.4094 71.0601 29.5363 70.6314L30.9785 70.5009Z" fill="#081A35"/>
<path d="M58.3386 28.542L57.5796 29.9288C57.4531 30.161 57.2807 30.3651 57.0728 30.5285C56.8649 30.6919 56.6259 30.8112 56.3704 30.8791L55.855 31.0173L55.8315 31.2792L55.7184 32.5885C55.6429 33.4341 55.3295 34.241 54.8143 34.9158L53.256 36.9523L52.8765 37.4465C52.4618 37.9888 51.9288 38.4294 51.3182 38.7346C50.7075 39.0398 50.0352 39.2017 49.3526 39.2078C48.6699 39.214 47.9948 39.0643 47.3788 38.7701C46.7627 38.4759 46.2219 38.045 45.7975 37.5102L45.6184 37.2825L45.4901 37.1216L43.7253 34.9029C43.1966 34.2372 42.8676 33.4352 42.7765 32.59L42.6907 31.7725L42.6148 31.0309L42.0584 30.8791C41.9492 30.8504 41.8427 30.8117 41.7404 30.7638C41.6884 30.74 41.6377 30.7134 41.5886 30.6841C41.3028 30.5188 41.0636 30.2838 40.8933 30.0009C40.8789 29.9781 40.8652 29.9554 40.8531 29.9318L40.094 28.545C39.9382 28.258 39.8565 27.9365 39.8564 27.6099C39.8562 27.5254 39.8613 27.441 39.8716 27.3571C39.9388 26.8472 40.2046 26.3845 40.611 26.0694C41.0175 25.7543 41.5319 25.6123 42.0425 25.6743L42.0357 25.6098V25.5878C42.0357 25.5597 42.0296 25.5301 42.0281 25.5012C42.0035 25.2163 42.0056 24.9296 42.0341 24.645L42.3484 21.6225C42.463 20.5183 42.9829 19.4959 43.8075 18.7528C44.6322 18.0098 45.7031 17.5988 46.8131 17.5995H51.9034C52.7311 17.5978 53.5429 17.8264 54.2481 18.2599C54.7284 18.5552 55.1494 18.9378 55.4891 19.3878C56.0763 20.1654 56.3932 21.1135 56.3916 22.0878V24.916C56.3916 25.0488 56.3856 25.1824 56.3742 25.3153L56.3415 25.6811C56.4192 25.6692 56.4976 25.6629 56.5761 25.6622C56.6714 25.6589 56.7668 25.663 56.8615 25.6743C57.0721 25.6988 57.2773 25.7578 57.4687 25.8489C57.7082 25.963 57.9219 26.1247 58.0967 26.3242C58.2715 26.5237 58.4037 26.7568 58.4853 27.0092C58.5669 27.2616 58.5961 27.528 58.5711 27.7921C58.5461 28.0562 58.4676 28.3124 58.3401 28.545L58.3386 28.542Z" fill="#FFD5CC"/>
<path opacity="0.35" d="M54.6382 21.193C54.5077 20.859 54.3612 20.5144 54.0879 20.2821C53.7547 19.9997 53.2947 19.9345 52.8605 19.8882C51.5408 19.7484 50.2139 19.6863 48.8869 19.7022C47.2785 19.7219 45.5296 19.9162 44.372 21.0336C43.5075 21.8685 43.0384 23.1589 41.934 23.6348C41.8516 23.6794 41.7562 23.6934 41.6645 23.6743C41.5764 23.6364 41.5056 23.5672 41.4656 23.48C41.0345 22.7308 41.2197 21.7926 41.4299 20.9546C41.6858 19.9337 41.9825 18.8779 42.6824 18.0915C43.3025 17.3954 44.177 16.9833 45.0499 16.6546C47.0604 15.8993 49.1839 15.4887 51.331 15.4401C52.4081 15.4158 53.5323 15.4955 54.4697 16.0223C55.6926 16.7054 56.4213 18.0657 56.671 19.4456C56.9207 20.8256 56.7469 22.242 56.545 23.6288C56.4205 24.4903 55.8816 24.9192 55.5635 24.0037C55.2364 23.0709 54.9988 22.116 54.6382 21.193Z" fill="#FF888A"/>
<path d="M50.8748 23.627L52.8355 23.0251C53.6033 22.7905 54.4304 22.8445 55.1612 23.1769L56.5275 23.797C56.5316 23.7985 56.5349 23.8014 56.5369 23.8053C56.5388 23.8092 56.5392 23.8136 56.5379 23.8177C56.5366 23.8219 56.5338 23.8253 56.53 23.8274C56.5262 23.8295 56.5218 23.83 56.5176 23.8289L55.1301 23.5891C54.6794 23.5108 54.2174 23.5277 53.7737 23.6384L50.6107 24.4255C50.6082 24.4261 50.6057 24.4261 50.6032 24.4256C50.6007 24.4251 50.5984 24.424 50.5964 24.4225C50.5944 24.421 50.5927 24.419 50.5915 24.4168C50.5903 24.4146 50.5896 24.4121 50.5894 24.4096L50.5849 24.0225C50.5836 23.934 50.6113 23.8475 50.6636 23.7762C50.7159 23.7048 50.7901 23.6524 50.8748 23.627Z" fill="#54382C"/>
<path d="M47.6094 23.6888L45.3771 23.3092C44.7169 23.1993 44.0394 23.3342 43.4718 23.6888L42.0198 24.5996C42.0157 24.6015 42.0126 24.605 42.0111 24.6092C42.0096 24.6134 42.0099 24.618 42.0118 24.622C42.0137 24.626 42.0171 24.6291 42.0213 24.6306C42.0255 24.6321 42.0302 24.6319 42.0342 24.63L43.4878 24.1746C43.8516 24.0606 44.2353 24.0236 44.6142 24.066L47.9677 24.4455C47.9702 24.4459 47.9728 24.4457 47.9752 24.4449C47.9776 24.4441 47.9798 24.4428 47.9816 24.4411C47.9835 24.4393 47.9849 24.4372 47.9857 24.4348C47.9866 24.4324 47.9869 24.4298 47.9867 24.4273L47.9396 24.0379C47.9302 23.9517 47.8928 23.8709 47.8332 23.8078C47.7736 23.7448 47.695 23.703 47.6094 23.6888Z" fill="#54382C"/>
<path d="M46.0344 27.0209C46.3639 27.0209 46.631 26.7538 46.631 26.4243C46.631 26.0948 46.3639 25.8277 46.0344 25.8277C45.7049 25.8277 45.4377 26.0948 45.4377 26.4243C45.4377 26.7538 45.7049 27.0209 46.0344 27.0209Z" fill="#261712"/>
<path d="M53.2355 26.3819C53.2355 26.4901 53.2034 26.596 53.1432 26.686C53.0831 26.776 52.9975 26.8462 52.8975 26.8876C52.7974 26.929 52.6874 26.9398 52.5812 26.9186C52.475 26.8974 52.3775 26.8452 52.301 26.7686C52.2245 26.692 52.1724 26.5944 52.1514 26.4882C52.1304 26.382 52.1413 26.2719 52.1828 26.1719C52.2244 26.0719 52.2946 25.9865 52.3847 25.9265C52.4748 25.8664 52.5807 25.8344 52.689 25.8346C52.834 25.8348 52.973 25.8925 53.0755 25.9952C53.178 26.0978 53.2355 26.2369 53.2355 26.3819Z" fill="#261712"/>
<path opacity="0.68" d="M49.7105 27.7358C49.8554 28.1616 49.9693 28.5928 50.0725 29.0262C50.1758 29.4596 50.2661 29.8953 50.3496 30.3317L50.4065 30.6604C50.4164 30.7189 50.4262 30.7606 50.4354 30.8335C50.4437 30.9041 50.4407 30.9756 50.4262 31.0453C50.3968 31.1835 50.3255 31.3094 50.2221 31.4058C50.1228 31.4984 49.9975 31.5583 49.863 31.5773C49.4258 31.6601 48.9856 31.7292 48.5385 31.7739C48.9544 31.6054 49.3788 31.4703 49.8053 31.3398C49.8499 31.3288 49.8926 31.3114 49.9321 31.2881C49.9861 31.2571 50.0323 31.2144 50.0674 31.163C50.1025 31.1116 50.1255 31.0529 50.1348 30.9914C50.1405 30.9513 50.1405 30.9107 50.1348 30.8707C50.1302 30.8335 50.115 30.7667 50.1059 30.7189L50.0422 30.3917C49.9663 29.9537 49.8904 29.5158 49.8334 29.074C49.7765 28.6322 49.7279 28.1851 49.7105 27.7358Z" fill="#FF888A"/>
<path d="M57.0444 27.3737C56.8651 27.5332 56.7153 27.7231 56.6019 27.9346C56.5451 28.0389 56.4944 28.1463 56.4501 28.2565C56.4076 28.3673 56.3742 28.4842 56.3385 28.5927C56.3028 28.7013 56.2854 28.8205 56.2626 28.9381C56.2398 29.0558 56.233 29.1719 56.2254 29.2888C56.2649 29.1772 56.2952 29.0656 56.3309 28.9548L56.4425 28.6269C56.4782 28.5389 56.5138 28.45 56.551 28.3628C56.5563 28.3757 56.5594 28.3901 56.5655 28.403C56.5996 28.4755 56.6405 28.5447 56.6877 28.6094C56.7808 28.7407 56.8986 28.8526 57.0345 28.9389C56.9794 28.7905 56.9026 28.6511 56.8068 28.5252C56.7605 28.4637 56.7127 28.4022 56.6634 28.3438L56.5973 28.2679C56.6368 28.1788 56.6809 28.0919 56.7294 28.0075C56.8359 27.8078 56.9684 27.623 57.1234 27.458C57.2024 27.3764 57.2882 27.3018 57.3799 27.2348C57.4725 27.1647 57.5748 27.1085 57.6835 27.0678C57.4451 27.1049 57.2229 27.2113 57.0444 27.3737Z" fill="#D95C60"/>
<path d="M41.4072 27.5074C41.603 27.6815 41.7664 27.8889 41.8899 28.1199C41.9522 28.2333 42.0075 28.3505 42.0554 28.4706C42.1025 28.5913 42.1404 28.715 42.1784 28.838C42.2163 28.961 42.2361 29.0893 42.2543 29.2175C42.2725 29.3458 42.2862 29.4718 42.2945 29.5971C42.2512 29.4756 42.2186 29.3534 42.1799 29.2327L42.0577 28.8752C42.019 28.7788 41.9818 28.6816 41.9393 28.5868C41.934 28.6012 41.9302 28.6164 41.9233 28.6308C41.8863 28.7108 41.8415 28.7871 41.7897 28.8585C41.6879 29.0018 41.559 29.1238 41.4102 29.2175C41.4711 29.054 41.556 28.9005 41.6622 28.7621C41.7131 28.6945 41.7647 28.6285 41.8186 28.5647L41.8945 28.4782C41.8514 28.3809 41.8033 28.2859 41.7503 28.1936C41.6339 27.9754 41.4892 27.7735 41.3199 27.5932C41.2336 27.5047 41.1402 27.4234 41.0406 27.3503C40.9403 27.2741 40.8296 27.2127 40.7119 27.1681C40.9718 27.2108 41.2136 27.3287 41.4072 27.5074Z" fill="#D95C60"/>
<path opacity="0.21" d="M48.8186 26.321V26.4113L48.8156 26.321H48.8186Z" fill="white"/>
<path d="M48.8178 26.7249V27.8817C48.8373 27.8129 48.846 27.7414 48.8437 27.6699L48.8178 26.7249Z" fill="#182841"/>
<path d="M56.6566 25.7266C56.655 25.7235 56.6532 25.7205 56.6513 25.7175C56.6415 25.7003 56.6272 25.686 56.61 25.6762C56.5927 25.6665 56.5732 25.6616 56.5533 25.6621C56.5521 25.6614 56.5506 25.661 56.5492 25.661C56.5477 25.661 56.5463 25.6614 56.545 25.6621C56.5271 25.6622 56.5095 25.6672 56.4941 25.6765L56.4554 25.697L55.9909 25.9619L55.6873 26.1373L55.6698 25.4177C55.6674 25.3167 55.6451 25.2172 55.6042 25.1249C55.5632 25.0325 55.5044 24.9492 55.4311 24.8797C55.3578 24.8103 55.2714 24.7559 55.1771 24.72C55.0827 24.684 54.9821 24.667 54.8811 24.67L50.6692 24.7839C50.5682 24.7854 50.4686 24.8073 50.3763 24.8481C50.284 24.8889 50.2008 24.9479 50.1318 25.0215C49.992 25.1692 49.9164 25.3662 49.9215 25.5695L49.9443 26.3703H49.7537L48.8254 26.3961H48.8178L48.7958 25.5968C48.7934 25.496 48.771 25.3967 48.7301 25.3045C48.6892 25.2123 48.6305 25.1291 48.5574 25.0597C48.4843 24.9902 48.3982 24.9359 48.304 24.8997C48.2098 24.8636 48.1095 24.8464 48.0087 24.8492L43.7967 24.9615C43.7541 24.9621 43.7116 24.9669 43.6699 24.9759C43.513 25.0063 43.3699 25.0861 43.2616 25.2036C43.1924 25.2761 43.1385 25.3616 43.1029 25.4552C43.0673 25.5488 43.0508 25.6486 43.0543 25.7486L43.0695 26.3172L41.9082 25.8617C41.8797 25.8526 41.8488 25.8547 41.8218 25.8675C41.7947 25.8803 41.7736 25.903 41.7627 25.9308C41.7518 25.9586 41.7519 25.9896 41.763 26.0174C41.774 26.0452 41.7953 26.0677 41.8224 26.0803L43.0748 26.5783L43.1082 27.8231C43.1119 27.9821 43.165 28.1359 43.26 28.2634C43.2966 28.3137 43.3397 28.3589 43.3883 28.3977C43.5252 28.5096 43.6966 28.5707 43.8734 28.5708C43.8799 28.5719 43.8866 28.5719 43.8931 28.5708L48.1051 28.4592C48.272 28.4559 48.4332 28.3977 48.5637 28.2936C48.6942 28.1894 48.7867 28.0452 48.8269 27.8831V26.7248V26.6345L49.7553 26.6086L49.9496 26.6041L49.9784 27.641C49.9843 27.8408 50.0677 28.0305 50.2109 28.17C50.3541 28.3095 50.5459 28.3879 50.7458 28.3886H50.7656L54.9776 28.277C55.1811 28.2711 55.374 28.1848 55.5141 28.037C55.6542 27.8892 55.7301 27.692 55.7252 27.4884L55.6964 26.4052L55.9954 26.2337L56.6171 25.8777C56.6411 25.8618 56.6585 25.8376 56.6658 25.8097C56.673 25.7818 56.6698 25.7522 56.6566 25.7266ZM48.0907 28.2239L47.2496 28.2459L45.2108 28.3013L44.9505 28.3082L44.7227 28.3135L43.906 28.3355H43.8772C43.8518 28.3357 43.8264 28.3342 43.8012 28.3309C43.7797 28.3284 43.7584 28.3244 43.7375 28.3188C43.7256 28.3166 43.7139 28.3133 43.7026 28.3089C43.6928 28.3068 43.6834 28.3035 43.6745 28.2991C43.6673 28.2969 43.6604 28.2939 43.654 28.2899C43.6403 28.2846 43.6274 28.2778 43.6153 28.2717C43.6042 28.2661 43.5936 28.2598 43.5834 28.2528C43.5713 28.2452 43.5591 28.2361 43.547 28.2269C43.5443 28.2257 43.542 28.2239 43.5401 28.2216C43.5264 28.2115 43.5134 28.2004 43.5014 28.1882C43.4883 28.1768 43.4761 28.1644 43.465 28.151C43.4421 28.1247 43.4217 28.0963 43.4043 28.066C43.3951 28.0496 43.387 28.0326 43.38 28.0152C43.375 28.0066 43.3712 27.9974 43.3686 27.9878C43.3622 27.9715 43.3569 27.9548 43.3526 27.9377C43.3481 27.9203 43.3443 27.9028 43.3413 27.8839C43.338 27.8617 43.3362 27.8394 43.3359 27.8171L43.2805 25.7471C43.2769 25.6063 43.3293 25.4698 43.4263 25.3676C43.4718 25.3192 43.5262 25.2801 43.5864 25.2522C43.5993 25.2454 43.6138 25.2401 43.6282 25.234L43.6616 25.2234C43.679 25.2181 43.698 25.2135 43.717 25.2097C43.7436 25.2097 43.7701 25.2036 43.7929 25.2021L45.2738 25.1626L46.0906 25.1406L47.0325 25.1148L48.0041 25.0883H48.0178C48.0361 25.0884 48.0543 25.0896 48.0724 25.0921L48.1066 25.0966C48.1917 25.1104 48.272 25.1451 48.3404 25.1976C48.3508 25.2056 48.3606 25.2142 48.37 25.2234C48.3764 25.228 48.3825 25.2331 48.3882 25.2386L48.3981 25.2484L48.4102 25.2621C48.4231 25.2752 48.4348 25.2894 48.4451 25.3046C48.4615 25.3258 48.476 25.3484 48.4884 25.3721C48.4977 25.3891 48.506 25.4066 48.5134 25.4245C48.5158 25.4294 48.5178 25.4345 48.5195 25.4397V25.4443C48.5237 25.4543 48.527 25.4647 48.5294 25.4754C48.5315 25.4818 48.5327 25.4884 48.5332 25.4951C48.5369 25.5046 48.5392 25.5146 48.54 25.5247C48.5424 25.5339 48.5439 25.5433 48.5446 25.5528C48.545 25.5548 48.545 25.5569 48.5446 25.5589C48.5446 25.5733 48.5446 25.5862 48.5446 25.6014L48.5689 26.5122V26.5191L48.5985 27.6736C48.6036 27.8138 48.5531 27.9503 48.458 28.0534C48.3628 28.1565 48.2308 28.2178 48.0907 28.2239ZM55.4785 27.5628C55.4785 27.5802 55.474 27.5969 55.4709 27.6144C55.4678 27.6314 55.4635 27.6481 55.458 27.6645C55.4517 27.6846 55.4444 27.7043 55.436 27.7237C55.4292 27.7394 55.4214 27.7546 55.4125 27.7692C55.4094 27.7766 55.4053 27.7835 55.4003 27.7897C55.394 27.8012 55.3866 27.8122 55.3783 27.8224C55.3639 27.8426 55.3479 27.8616 55.3305 27.8793C55.3193 27.8921 55.3071 27.9041 55.2941 27.915L55.2546 27.9453C55.2409 27.9553 55.2264 27.9642 55.2113 27.9719C55.1976 27.981 55.1828 27.9884 55.1673 27.9939C55.1429 28.0055 55.1175 28.0149 55.0914 28.022C55.0797 28.0256 55.0678 28.0284 55.0557 28.0304C55.0421 28.0342 55.0281 28.0365 55.014 28.0372C54.9964 28.0398 54.9786 28.0414 54.9609 28.0417L53.7168 28.0751L52.1326 28.1154L51.1922 28.1397L50.7496 28.1518C50.7355 28.1526 50.7213 28.1526 50.7071 28.1518C50.6817 28.1508 50.6563 28.148 50.6312 28.1435C50.6125 28.1402 50.5939 28.1356 50.5758 28.1298L50.5538 28.1222C50.5363 28.1154 50.5181 28.1078 50.5007 28.0994C50.4856 28.0921 50.4709 28.084 50.4566 28.0751C50.4448 28.0679 50.4334 28.0601 50.4225 28.0516C50.4039 28.038 50.3862 28.0233 50.3693 28.0076C50.3564 27.9954 50.3443 27.9818 50.3329 27.9689C50.3102 27.9424 50.2899 27.9139 50.2722 27.8839C50.2289 27.8076 50.2054 27.7218 50.2039 27.6341L50.172 26.4872V26.4804L50.1485 25.5642C50.147 25.5098 50.1542 25.4555 50.1697 25.4033C50.174 25.3867 50.1796 25.3704 50.1864 25.3547C50.2111 25.2909 50.2477 25.2325 50.2942 25.1824C50.3086 25.168 50.323 25.1551 50.3382 25.1414L50.3625 25.1217L50.3845 25.1072C50.4112 25.0894 50.4394 25.074 50.4688 25.0609L50.5052 25.0465C50.5241 25.0397 50.5433 25.0341 50.5629 25.0298C50.5968 25.022 50.6314 25.0172 50.6661 25.0154L51.7455 24.9881L52.563 24.9661L53.2462 24.9486L53.5012 24.9402L54.8834 24.9031H54.8978C54.9133 24.902 54.9287 24.902 54.9442 24.9031H54.9517C54.9593 24.9023 54.9669 24.9023 54.9745 24.9031H54.9806H55.0011H55.0102H55.0277H55.0375C55.0771 24.9127 55.1151 24.9278 55.1506 24.9478C55.1847 24.9665 55.2167 24.9886 55.2463 25.0139C55.2566 25.0225 55.2662 25.0318 55.2751 25.042C55.285 25.0508 55.2941 25.0605 55.3024 25.0708C55.3138 25.0837 55.3237 25.0974 55.3336 25.111C55.345 25.1259 55.3549 25.142 55.3631 25.1589C55.37 25.1702 55.3745 25.1801 55.3799 25.1907C55.3854 25.2015 55.3902 25.2127 55.3943 25.2241C55.3973 25.2323 55.3998 25.2407 55.4019 25.2492C55.4019 25.2568 55.4072 25.2651 55.4095 25.2727C55.4105 25.277 55.4105 25.2814 55.4095 25.2856V25.2955C55.412 25.3042 55.4138 25.3131 55.4148 25.3221C55.415 25.3269 55.415 25.3317 55.4148 25.3365C55.4148 25.3365 55.4148 25.3441 55.4148 25.3471C55.4159 25.364 55.4159 25.381 55.4148 25.398L55.4717 27.4702C55.478 27.4996 55.4803 27.5297 55.4785 27.5597V27.5628Z" fill="#182841"/>
<path opacity="0.21" d="M48.6083 27.6769C48.6103 27.7468 48.5985 27.8164 48.5736 27.8817C48.5487 27.9471 48.5111 28.0068 48.463 28.0576C48.4149 28.1084 48.3572 28.1492 48.2933 28.1776C48.2294 28.2061 48.1606 28.2216 48.0907 28.2234L47.2496 28.2454L45.6632 28.2879L44.722 28.3145L43.9045 28.3365H43.8771C43.8073 28.3381 43.7378 28.3259 43.6727 28.3006C43.6076 28.2754 43.5481 28.2375 43.4976 28.1892C43.4467 28.1411 43.4058 28.0834 43.3773 28.0195C43.3488 27.9555 43.3332 27.8865 43.3314 27.8165L43.2767 25.7466C43.2746 25.6766 43.2864 25.6068 43.3113 25.5413C43.3363 25.4759 43.3739 25.416 43.4221 25.3651C43.4703 25.3142 43.528 25.2734 43.5921 25.2449C43.6561 25.2165 43.7251 25.201 43.7952 25.1993L45.2768 25.1606L46.0936 25.1386L47.0348 25.1135L48.0072 25.087H48.0216C48.1182 25.087 48.2131 25.1133 48.2959 25.1632C48.3787 25.2131 48.4463 25.2846 48.4914 25.3701C48.5299 25.4433 48.5511 25.5243 48.5537 25.6069L48.5787 26.5178V26.5239L48.6083 27.6769Z" fill="white"/>
<path opacity="0.21" d="M55.4808 27.4952C55.4828 27.5651 55.471 27.6347 55.4461 27.7001C55.4211 27.7654 55.3835 27.8252 55.3354 27.8759C55.2873 27.9267 55.2297 27.9675 55.1658 27.9959C55.1019 28.0244 55.033 28.0399 54.9631 28.0417L53.7198 28.0751L52.1349 28.1169L51.1937 28.1419L50.7504 28.1533C50.6329 28.158 50.5173 28.1221 50.4232 28.0516C50.4046 28.038 50.3869 28.0233 50.3701 28.0076C50.3192 27.9595 50.2783 27.9018 50.2498 27.8378C50.2212 27.7738 50.2056 27.7049 50.2038 27.6349L50.1727 26.4864V26.4803L50.1492 25.5642C50.147 25.4941 50.1586 25.4242 50.1835 25.3587C50.2084 25.2931 50.2461 25.2331 50.2943 25.1822C50.3425 25.1312 50.4003 25.0903 50.4644 25.0618C50.5284 25.0333 50.5975 25.0178 50.6676 25.0161L51.7462 24.988L52.5637 24.966L53.505 24.941L54.8834 24.903H54.8978C54.9593 24.9026 55.0203 24.9137 55.0777 24.9357C55.1785 24.9717 55.2661 25.0374 55.329 25.1241C55.3918 25.2108 55.427 25.3144 55.4299 25.4215L55.4808 27.4952Z" fill="white"/>
<g opacity="0.64">
<path opacity="0.64" d="M48.4914 25.37L47.2496 28.243L45.6631 28.2855L47.0348 25.1112L48.0071 25.0846H48.0215C48.1184 25.0848 48.2134 25.1115 48.2962 25.1618C48.3791 25.2121 48.4465 25.2841 48.4914 25.37Z" fill="url(#paint0_linear_0_521)"/>
<path opacity="0.64" d="M46.0936 25.1395L44.722 28.3153L43.9044 28.3374L45.2761 25.1615L46.0936 25.1395Z" fill="url(#paint1_linear_0_521)"/>
</g>
<g opacity="0.64">
<path opacity="0.64" d="M55.0739 24.9379L53.7198 28.0751L52.1349 28.1168L53.5012 24.941L54.8834 24.903H54.8978C54.9581 24.9038 55.0178 24.9156 55.0739 24.9379Z" fill="url(#paint2_linear_0_521)"/>
<path opacity="0.64" d="M52.5637 24.9671L51.1974 28.143L50.7541 28.1544C50.6366 28.1591 50.5211 28.1231 50.427 28.0527L51.75 24.9891L52.5637 24.9671Z" fill="url(#paint3_linear_0_521)"/>
</g>
<g opacity="0.72">
<path opacity="0.72" d="M54.601 19.7148H54.5669C54.0826 19.6632 53.5171 19.4734 52.8613 19.087C50.9166 17.9371 48.3237 18.2847 46.4336 18.8047C46.5369 18.7735 46.634 18.7485 46.6697 18.7288C46.9407 18.6035 47.201 18.4396 47.4637 18.2953L49.0577 17.4262C50.5644 16.6042 52.4666 15.8854 53.7479 17.4467C54.2586 18.0971 54.5565 18.889 54.601 19.7148Z" fill="#261712"/>
<path opacity="0.72" d="M43.6494 19.704L43.2145 23.2913C43.1745 23.6152 43.0846 23.9309 42.9481 24.2272L42.0835 25.5981L41.7799 25.0903C41.4488 24.5373 41.2459 23.9171 41.1863 23.2754L40.8918 20.0274C40.8842 19.9348 40.8781 19.8422 40.8766 19.7503L40.8432 18.2391C41.1172 19.7473 43.6494 19.704 43.6494 19.704Z" fill="#261712"/>
<path opacity="0.72" d="M57.7678 21.0036C57.7488 21.1698 57.7283 21.3376 57.7192 21.5045L57.4702 25.8463L56.3385 25.6786C56.3194 25.5635 56.2812 25.4524 56.2254 25.3499L55.7297 24.4474C55.4913 24.0074 55.3369 23.5268 55.2743 23.0302L54.8591 19.7261C56.8417 18.7264 57.1864 17.8558 57.1864 17.8558C57.6884 18.8241 57.8908 19.9199 57.7678 21.0036Z" fill="#261712"/>
</g>
<path d="M57.2114 17.5295C57.3971 17.8989 57.5517 18.283 57.6737 18.678C57.9219 19.4696 58.0529 20.2933 58.0623 21.1229C58.0623 21.3299 58.0575 21.5366 58.0479 21.743C58.0297 21.9488 58.0122 22.1545 57.9796 22.3586C57.9796 22.2554 57.9796 22.1522 57.9796 22.0497L57.9727 21.7415C57.9674 21.5366 57.9583 21.3324 57.9439 21.1282C57.9128 20.7198 57.868 20.3138 57.8042 19.9137C57.7405 19.5137 57.657 19.1107 57.5598 18.7137C57.4627 18.3167 57.3397 17.9197 57.2114 17.5295Z" fill="#54382C"/>
<path opacity="0.35" d="M45.4378 36.2048C45.0582 34.966 44.4047 33.832 43.8893 32.6433C43.3739 31.4546 42.9951 30.1483 43.213 28.8723C43.2315 28.7009 43.2897 28.5361 43.383 28.3911C43.4589 28.2833 43.5743 28.2021 43.6434 28.0875C43.7291 27.9433 43.736 27.7679 43.739 27.6002C43.7527 26.8077 43.9455 25.1902 43.4445 24.4934C42.8479 23.6584 42.3203 24.9032 42.0729 25.6031L42.0319 25.6084L42.038 25.6722C41.5274 25.6106 41.0132 25.7528 40.6069 26.068C40.2007 26.3832 39.9351 26.8459 39.8678 27.3557C39.8575 27.4396 39.8524 27.524 39.8526 27.6085C39.8526 27.9349 39.9343 28.2561 40.0902 28.5429L40.8493 29.9305C40.8614 29.954 40.8758 29.976 40.8895 29.9995L41.5848 30.6827C41.6341 30.7115 41.6865 30.7343 41.7366 30.7586V30.7624C41.751 30.7692 41.7662 30.7745 41.7806 30.7806L41.8444 30.8072C41.9132 30.8347 41.9833 30.8585 42.0547 30.8785L42.611 31.0303L42.6869 31.7727L42.7727 32.5902C42.8639 33.4354 43.1929 34.2373 43.7215 34.903L45.4909 37.124C45.5076 37.0824 45.5208 37.0395 45.5304 36.9957C45.5835 36.7339 45.5159 36.4614 45.4378 36.2048Z" fill="#FF888A"/>
<path d="M51.2233 35.3781L51.2164 35.3842C50.8508 35.7104 50.388 35.9073 49.8995 35.9443L48.71 36.0347C48.3512 36.0617 47.9962 35.9451 47.7233 35.7105C47.5418 35.5656 47.4061 35.3713 47.3324 35.1511L47.0743 34.3784C47.0653 34.3516 47.0623 34.3233 47.0653 34.2952C47.0683 34.2671 47.0773 34.2401 47.0917 34.2158C47.1061 34.1915 47.1255 34.1706 47.1487 34.1546C47.1719 34.1385 47.1983 34.1276 47.2261 34.1226L47.4143 34.0938C48.3153 33.9579 50.4505 33.6444 51.5314 33.5814C51.6498 33.5753 51.7554 33.5715 51.8457 33.5715C51.8764 33.5715 51.9068 33.5782 51.9348 33.5909C51.9627 33.6037 51.9876 33.6224 52.0077 33.6457C52.0278 33.6689 52.0426 33.6962 52.0512 33.7258C52.0598 33.7553 52.0619 33.7863 52.0575 33.8167C51.968 34.4179 51.6733 34.9696 51.2233 35.3781Z" fill="#B52A2D"/>
<path d="M51.2233 35.3781C51.052 35.5303 50.8613 35.6592 50.6563 35.7614C50.4584 35.8602 50.243 35.9192 50.0224 35.9352L48.71 36.0347C48.3512 36.0616 47.9962 35.9451 47.7233 35.7105C47.8219 35.331 48.1369 34.6911 49.1533 34.5029C50.2729 34.2972 50.8741 34.6889 51.2233 35.3781Z" fill="#FA8887"/>
<path d="M51.5345 33.5828C51.3742 33.7968 51.1912 33.9928 50.9887 34.1673C50.9616 34.1907 50.9301 34.2084 50.8961 34.2197C49.904 34.5491 47.9912 34.4216 47.5168 34.3829C47.4874 34.3805 47.4601 34.3669 47.4405 34.3448C47.421 34.3227 47.4108 34.2939 47.4121 34.2645L47.4174 34.0952C48.3184 33.9593 50.4544 33.6458 51.5345 33.5828Z" fill="white"/>
<path opacity="0.35" d="M58.3386 28.5422L57.5796 29.929C57.4531 30.1611 57.2806 30.3651 57.0727 30.5285C56.8648 30.6918 56.6259 30.8112 56.3704 30.8793C55.6782 31.0645 55.8801 30.0443 55.874 29.6777C55.8603 28.9323 56.0706 28.2021 56.0607 27.4567C56.0607 27.2169 56.0319 26.974 56.0827 26.7402C56.2345 26.0342 56.7704 25.5135 57.465 25.846C57.7044 25.9601 57.9181 26.1218 58.0929 26.3213C58.2677 26.5209 58.3999 26.754 58.4815 27.0064C58.5631 27.2588 58.5923 27.5251 58.5673 27.7892C58.5424 28.0533 58.4638 28.3095 58.3364 28.5422H58.3386Z" fill="#FF888A"/>
<path d="M34.8254 71.2434L33.1327 68.2968C32.9763 68.0041 32.7585 67.7485 32.4944 67.5476C31.9256 67.1172 31.4259 66.6025 31.0127 66.0211C30.9863 65.9831 30.9519 65.9513 30.9119 65.928C30.8719 65.9046 30.8274 65.8902 30.7813 65.8858C30.7352 65.8814 30.6887 65.8871 30.645 65.9024C30.6014 65.9178 30.5616 65.9425 30.5284 65.9748C30.3845 66.1158 30.2864 66.297 30.2472 66.4946C30.2079 66.6922 30.2292 66.897 30.3083 67.0823L30.3842 67.269C30.1335 67.1538 29.8901 67.0233 29.6555 66.8781C29.4179 66.7392 29.1803 66.4614 28.9215 66.3809C28.7036 66.3134 28.4296 66.3582 28.2004 66.3589C28.163 66.3592 28.1262 66.3677 28.0925 66.3839C28.0588 66.4001 28.0292 66.4236 28.0056 66.4526C27.9821 66.4816 27.9653 66.5155 27.9565 66.5518C27.9476 66.5881 27.9469 66.626 27.9545 66.6626C27.9843 66.834 28.0551 66.9957 28.1609 67.1339L27.8376 67.2189C27.8086 67.2267 27.7814 67.2403 27.7579 67.259C27.7344 67.2776 27.7149 67.3009 27.7007 67.3273C27.6864 67.3538 27.6778 67.3829 27.6752 67.4128C27.6726 67.4427 27.6762 67.4728 27.6857 67.5013C27.8072 67.8679 28.0585 68.5738 28.2444 68.7568L27.8368 68.6725C27.8251 68.6704 27.8131 68.6707 27.8016 68.6734C27.79 68.6761 27.7791 68.6812 27.7697 68.6883C27.7602 68.6955 27.7523 68.7045 27.7464 68.7148C27.7406 68.7252 27.737 68.7366 27.7358 68.7484C27.7154 68.9235 27.73 69.1009 27.7788 69.2703C27.8275 69.4397 27.9094 69.5977 28.0197 69.7352L28.3082 70.0935L31.6905 71.8856L34.8254 71.2434Z" fill="#FFD5CC"/>
<g opacity="0.5">
<path opacity="0.5" d="M30.3872 67.2689L31.3808 67.9627L31.6298 68.1365C31.7148 68.1927 31.7964 68.2538 31.8742 68.3195C31.9504 68.3872 32.0184 68.4636 32.0769 68.5472C32.1353 68.633 32.1809 68.7225 32.2287 68.8091L32.8359 69.8611L33.4356 70.9147L33.4599 70.9572L33.4113 70.967L32.5376 71.1378L32.5111 71.1431L32.4982 71.1196L31.7513 69.792L31.5645 69.4603C31.5049 69.3517 31.4339 69.2496 31.3528 69.1559C31.1891 68.9669 30.9856 68.8166 30.7569 68.7157C30.2893 68.5152 29.8347 68.2855 29.3959 68.028C28.9579 67.7695 28.5452 67.4704 28.1632 67.1346C28.5526 67.4598 28.9716 67.7478 29.4149 67.9946C29.8558 68.2454 30.3121 68.468 30.7812 68.661C31.0208 68.7631 31.2338 68.919 31.4036 69.1165C31.4883 69.2142 31.5621 69.3209 31.6237 69.4345L31.812 69.7655L32.5634 71.09L32.5232 71.0718L33.3976 70.9048L33.3741 70.9572L32.779 69.9006L32.1885 68.8379C32.1384 68.7506 32.0928 68.6595 32.0367 68.5768C31.9813 68.4935 31.9163 68.4171 31.8431 68.3491C31.7673 68.2835 31.688 68.2222 31.6055 68.1654L31.3611 67.9855L30.3872 67.2689Z" fill="#FF888A"/>
</g>
<g opacity="0.5">
<path opacity="0.5" d="M28.2452 68.7568C28.4099 68.8456 28.5746 68.9344 28.7408 69.0194C28.9071 69.1044 29.0733 69.191 29.2418 69.2714C29.4103 69.3519 29.5788 69.4316 29.7504 69.5037C29.8369 69.5378 29.9234 69.5735 30.0107 69.6039C30.098 69.6342 30.1838 69.6578 30.2779 69.6912C30.3691 69.7263 30.454 69.776 30.5292 69.8384C30.567 69.8689 30.602 69.9027 30.6339 69.9394L30.728 70.0434C30.8525 70.1838 30.9785 70.3212 31.1015 70.4631L31.4704 70.8859C31.5918 71.0286 31.7148 71.1698 31.834 71.314C31.7019 71.1812 31.5736 71.0453 31.4431 70.911L31.0582 70.5026C30.9284 70.3667 30.8039 70.2278 30.6787 70.0904C30.6195 70.0204 30.555 69.9549 30.4859 69.8946C30.4159 69.8385 30.3375 69.7937 30.2536 69.7618C30.1717 69.7314 30.0753 69.7056 29.9887 69.6714C29.9022 69.6373 29.8126 69.6031 29.7261 69.5667C29.5538 69.4908 29.3838 69.4111 29.2183 69.3238C28.8835 69.1492 28.5587 68.9617 28.2452 68.7568Z" fill="#FF888A"/>
</g>
<path d="M51.7463 79.8526C51.5148 80.0484 50.2061 80.2199 48.2895 80.3664C44.3736 80.6701 37.9239 80.8644 32.9612 80.9813H32.8853L31.62 81.0101C31.3801 81.0154 31.1471 81.0207 30.9171 81.0245L30.2013 81.0405C28.3439 81.0784 25.7798 80.752 25.0298 78.7694C23.0168 73.4469 23.7395 67.7882 23.8533 62.263C23.9232 59.0168 24.1662 55.7766 24.5813 52.5562C24.8371 50.5425 25.1065 48.5021 26.7446 47.0857C27.896 46.0906 29.4392 45.9024 30.892 45.5084L37.6597 43.673C35.2186 46.4701 32.4913 49.5602 30.6696 52.7946C30.2802 53.4838 29.9204 54.1943 29.6889 54.9503C29.5113 55.5294 29.4103 56.1306 29.2434 56.7128C28.8524 58.0875 28.3386 59.2033 27.3131 60.1991C27.2873 61.3789 27.1483 62.5535 26.8979 63.7067C26.7021 64.6085 26.4364 65.5186 26.5237 66.4393C26.5783 67.02 26.7726 67.5779 26.9662 68.1305C27.0945 68.4948 27.244 68.8721 27.4975 69.1552C27.6152 69.2869 27.7583 69.3935 27.9181 69.4687C28.2422 69.6205 28.6232 69.7055 28.9625 69.8239L31.5873 70.7348L33.3529 70.6012L33.8007 70.5671C35.2042 70.4615 41.9917 70.923 46.7669 71.2775L47.1836 71.3079H47.2011C49.7378 71.4961 51.6036 71.6449 51.6036 71.6449C51.6385 71.8559 51.6719 72.0672 51.7038 72.2787C51.7174 72.3683 51.7311 72.4571 51.7432 72.5467C51.8009 72.9444 51.8538 73.3432 51.9019 73.7429C52.0563 74.8859 52.1324 76.038 52.1296 77.1913C52.1281 77.9405 52.415 79.281 51.7463 79.8526Z" fill="#234662"/>
<path d="M28.8699 46.5871C29.1949 46.6501 29.5112 46.752 29.8119 46.8907C30.1152 47.0275 30.408 47.1866 30.6878 47.3666C31.2435 47.7381 31.7469 48.1823 32.1847 48.6874C32.6214 49.1939 33.0016 49.7465 33.3187 50.3353C33.6292 50.926 33.8922 51.5405 34.1051 52.173C34.5119 53.4395 34.7625 54.751 34.8512 56.0783C34.9443 57.3976 34.9245 58.7224 34.792 60.0383C34.7875 59.7078 34.7854 59.3789 34.7859 59.0515C34.7859 58.7221 34.7654 58.3934 34.7556 58.0647C34.7556 57.9 34.7411 57.7361 34.7305 57.5721L34.6994 57.081C34.6804 56.7531 34.6402 56.4275 34.6114 56.1011C34.5992 55.9379 34.5704 55.7762 34.5499 55.6138L34.4861 55.1272L34.4019 54.6437C34.3723 54.4835 34.351 54.3211 34.3115 54.1625C34.2402 53.8436 34.1802 53.5226 34.0899 53.2091C34.0459 53.052 34.014 52.8926 33.9601 52.7377L33.8128 52.2717C33.6082 51.6539 33.357 51.0525 33.0614 50.4727C32.7621 49.8953 32.4061 49.3491 31.9987 48.8422C31.589 48.3362 31.1186 47.8824 30.5982 47.4911C30.0782 47.0929 29.4936 46.7871 28.8699 46.5871Z" fill="#182841"/>
<path opacity="0.36" d="M31.7072 81.0732L32.5475 81.1225C32.2917 81.2075 32.0298 81.2371 31.7885 81.1225C31.7604 81.1078 31.7333 81.0913 31.7072 81.0732Z" fill="#081A35"/>
<path d="M60.1368 74.5033C60.0248 74.0446 59.9427 73.5791 59.8908 73.1097C59.8376 72.6404 59.8082 72.1687 59.8028 71.6963C59.7982 71.224 59.818 70.7518 59.862 70.2815C59.9038 69.8112 59.9763 69.3441 60.0791 68.8833C60.0594 69.3547 60.0358 69.823 60.0222 70.2913C60.0085 70.7597 60.0017 71.2265 60.0085 71.6941C60.0153 72.1616 60.0282 72.6292 60.0502 73.0968C60.0723 73.5644 60.1072 74.0327 60.1368 74.5033Z" fill="#182841"/>
<path opacity="0.35" d="M60.2469 77.4373C59.7155 77.4965 59.2662 77.4532 58.7766 77.5618C58.6805 77.5815 58.5858 77.6069 58.4927 77.6377C58.4168 77.6635 58.3477 77.6916 58.2726 77.7257C57.7086 77.9762 57.1727 78.2996 56.5768 78.4559C56.3632 78.5102 56.1453 78.546 55.9256 78.5629C55.6621 78.5834 55.3974 78.5834 55.1339 78.5629L54.702 78.4111C54.7225 78.3823 54.743 78.3534 54.7627 78.3238C54.8857 78.3557 55.0101 78.3868 55.1346 78.4104C55.4846 78.4749 55.8777 78.465 56.1525 78.2396C56.3271 78.0954 56.4303 77.8836 56.5814 77.7151C57.0285 77.2149 57.8763 77.1078 58.1428 76.4922C58.2756 76.1848 58.2187 75.819 58.0471 75.5282C57.8756 75.2375 57.6152 75.0174 57.3351 74.833C56.7379 74.442 56.1081 74.1032 55.4527 73.8204C55.3677 73.7832 55.2796 73.7445 55.1946 73.6951C55.1832 73.6192 55.1718 73.5433 55.162 73.4758L55.8451 73.5798C56.1392 73.6252 56.424 73.718 56.6884 73.8545C57.6752 74.3646 58.6802 74.8474 59.6631 75.3415L59.6935 75.3567C59.6864 75.6752 59.7118 75.9937 59.7694 76.307C59.8521 76.7124 60.2066 77.0501 60.2469 77.4373Z" fill="#FF888A"/>
<path opacity="0.2" d="M33.3581 70.6026C33.4196 70.6345 33.4826 70.6633 33.5456 70.6884C32.993 70.8205 32.441 70.952 31.8894 71.0831C31.525 71.1704 31.1508 71.2577 30.7789 71.2136C30.3994 71.1689 30.0426 70.9859 29.701 70.806C29.1818 70.532 28.6642 70.2504 28.148 69.9711C27.8186 69.7935 27.4413 69.5301 27.4732 69.1566H27.5028C27.6205 69.2883 27.7635 69.3949 27.9233 69.4701C28.2474 69.6219 28.6285 69.7069 28.9678 69.8253L31.5926 70.7362L33.3581 70.6026Z" fill="#081A35"/>
<path opacity="0.2" d="M33.9829 70.5848L33.6679 70.7366C33.6269 70.7237 33.5851 70.7077 33.5457 70.6918L33.9829 70.5848Z" fill="#081A35"/>
<path opacity="0.2" d="M33.1935 70.9581L33.6679 70.7303C33.8339 70.7864 34.0092 70.8096 34.1841 70.7987L33.1935 70.9581Z" fill="#081A35"/>
<path opacity="0.65" d="M52.7391 123.7C52.6784 124.804 52.5562 125.92 52.1516 126.949C51.265 129.206 49.1791 130.715 47.4834 132.447C47.488 132.429 47.491 132.41 47.4948 132.392L50.2714 129.516L48.7146 108.292L48.3798 103.72C48.3981 103.538 48.4234 103.357 48.4557 103.175C49.3529 106.35 50.4817 109.528 51.4388 112.722C52.5035 116.279 52.9435 119.993 52.7391 123.7Z" fill="#081A35"/>
<path opacity="0.65" d="M34.0011 160.594L45.9 151.901L45.6328 156.04C45.2844 156.396 44.9292 156.745 44.5762 157.092C42.4509 159.182 40.3255 161.271 38.2002 163.358C37.3144 164.229 36.4058 165.115 35.3788 165.798C34.9522 165.784 34.6759 165.762 34.6129 165.728C34.4702 165.65 34.2577 163.749 34.0011 160.594Z" fill="#081A35"/>
<path opacity="0.65" d="M47.2982 130.236L47.135 132.765L33.0925 147.314C33.0045 145.891 32.9156 144.418 32.8253 142.905C33.0895 142.693 33.3567 142.486 33.6216 142.279C37.4247 139.306 41.0662 136.132 44.5307 132.77C45.1895 132.129 46.2051 130.883 47.2982 130.236Z" fill="#081A35"/>
<path opacity="0.65" d="M35.1093 169.725C34.3867 170.658 33.3976 171.604 33.0052 172.047C32.5147 172.594 32.0528 173.165 31.6214 173.76C30.6582 175.104 29.9288 176.591 29.8999 178.218C29.8992 178.232 29.8992 178.247 29.8999 178.262C29.9015 178.642 29.9269 179.023 29.9758 179.4L29.7876 179.417C29.6623 179.427 29.5363 179.437 29.408 179.443L29.2198 179.453C29.1242 179.457 29.0285 179.461 28.9329 179.463H28.857C28.8023 179.463 28.7477 179.463 28.693 179.463C27.9148 179.474 27.1368 179.43 26.365 179.329L26.0341 179.286C26.0924 179.21 26.1413 179.127 26.1798 179.039C26.5799 178.12 26.74 177.114 26.6451 176.116L26.6102 175.742L27.3692 175.458C28.5881 175.002 29.7487 174.404 30.8267 173.675C31.8202 173.007 32.7366 172.23 33.5593 171.36L35.1093 169.725Z" fill="#081A35"/>
<path opacity="0.3" d="M48.4451 112.463L47.2982 130.236L47.135 132.765L38.9698 141.224C36.906 142.388 34.814 143.517 32.9475 144.954C32.9354 144.765 32.9237 144.575 32.9126 144.384L40.7559 133.351C41.7244 131.985 42.6998 130.614 43.4035 129.095C44.451 126.833 44.8548 124.336 45.3451 121.891C45.7748 119.743 46.278 117.609 46.8207 115.486C47.0894 114.438 47.3688 111.607 48.4451 112.463Z" fill="#081A35"/>
<path d="M36.8567 157.45C38.8697 155.892 40.9123 154.376 42.9655 152.874C43.9887 152.115 45.0233 151.378 46.0526 150.631L49.1571 148.413L52.2768 146.217C53.3228 145.493 54.3627 144.762 55.414 144.045C57.5105 142.603 59.6176 141.179 61.7544 139.794C59.7414 141.353 57.6988 142.87 55.6463 144.372C54.6223 145.131 53.5877 145.867 52.5584 146.614L49.4539 148.832L46.3334 151.027C45.2882 151.751 44.2476 152.483 43.1963 153.199C41.0998 154.64 38.9926 156.068 36.8567 157.45Z" fill="#234662"/>
<path opacity="0.15" d="M71.7344 60.234C71.7131 60.9824 71.6845 61.7298 71.6486 62.4762C71.4689 66.1424 71.0995 69.7968 70.5419 73.4248C70.2785 75.1426 69.7267 76.9256 69.6037 78.6517C69.5232 79.8016 69.8026 80.799 69.2515 81.8329C66.5273 77.5063 68.2814 71.827 68.478 67.0966C68.6116 63.8737 68.1167 60.6576 68.0939 57.4331C68.0719 54.2451 68.5699 50.9166 70.4106 48.3244C70.4116 48.3217 70.4132 48.3191 70.4151 48.3169C70.4265 48.3002 70.4387 48.2842 70.4508 48.2675C72.0061 49.4509 71.6493 51.7713 71.7131 53.6492C71.7875 55.8429 71.7946 58.0378 71.7344 60.234Z" fill="#081A35"/>
<path d="M146.046 35.8257L145.489 167.263C145.461 173.572 140.31 178.664 133.985 178.634L81.4199 178.392C75.0978 178.363 69.9947 173.23 70.022 166.923L70.3841 81.3447L70.5108 51.5313L70.5784 35.4872C70.6057 29.1779 75.7574 24.0862 82.0818 24.1151L134.649 24.3564C140.972 24.3853 146.075 29.521 146.046 35.8257Z" fill="#103D72"/>
<path d="M137.305 178.672L84.74 178.43C78.4171 178.402 73.3147 173.268 73.3421 166.961L73.8985 35.5252C73.9258 29.2159 79.0767 24.1234 85.4019 24.1523L137.969 24.3952C144.29 24.424 149.392 29.5567 149.366 35.8637L148.809 167.301C148.778 173.61 143.63 178.702 137.305 178.672Z" fill="#3C5D84"/>
<path d="M144.875 36.9628L144.852 42.2193L144.736 69.7547C144.703 77.5623 144.67 85.3707 144.637 93.1798V93.2239L144.625 96.1409L144.612 99.2098L144.588 104.886L144.461 134.96L144.332 165.256C144.312 169.675 140.705 173.239 136.276 173.219L122.503 173.155L113.833 173.115L105.727 173.078L83.8152 172.978C81.6918 172.971 79.6579 172.122 78.1609 170.616C76.6638 169.11 75.8261 167.072 75.8322 164.948L75.8656 157.084L76.0493 113.777L76.3271 48.0845L76.3309 47.0772L76.3757 36.6562C76.3767 36.3517 76.3955 36.0476 76.4318 35.7453C76.6661 33.7999 77.6052 32.0078 79.0715 30.708C80.5378 29.4081 82.4295 28.6907 84.389 28.6914H84.4323L93.3519 28.7332L96.9377 28.7491C98.304 28.7552 99.4069 29.9158 99.4008 31.3413L99.3925 33.185C99.3896 33.6544 99.5111 34.1161 99.7447 34.5232C99.956 34.8984 100.262 35.2115 100.633 35.431C101.003 35.6506 101.425 35.7689 101.856 35.7741L112.12 35.8212L117.385 35.8462L121.722 35.866C123.088 35.8728 124.201 34.7213 124.207 33.2966L124.216 31.4528C124.221 30.0289 125.334 28.8789 126.7 28.885L136.893 28.9313C141.321 28.9518 144.894 32.5466 144.875 36.9628Z" fill="white"/>
<path opacity="0.2" d="M73.2646 75.1648C72.8563 77.2901 72.0654 79.3692 70.7158 81.0581C70.6308 81.179 70.5178 81.2775 70.3863 81.345L70.5131 51.5317C72.306 50.9297 72.8009 53.9515 72.9345 55.1971C73.4208 59.6848 73.6787 64.1944 73.7072 68.7083C73.7186 70.867 73.6745 73.0417 73.2646 75.1648Z" fill="#081A35"/>
<g opacity="0.56">
<path opacity="0.56" d="M111.932 110.61C117.097 110.61 121.283 106.423 121.283 101.258C121.283 96.0925 117.097 91.9053 111.932 91.9053C106.768 91.9053 102.582 96.0925 102.582 101.258C102.582 106.423 106.768 110.61 111.932 110.61Z" fill="#CE6429"/>
</g>
<g opacity="0.2">
<path opacity="0.2" d="M109.061 73.2698V129.863C109.056 130.091 109.097 130.318 109.181 130.53C109.265 130.743 109.39 130.936 109.55 131.099C109.71 131.262 109.9 131.392 110.111 131.48C110.321 131.568 110.547 131.614 110.775 131.614C111.003 131.614 111.229 131.568 111.44 131.48C111.65 131.392 111.841 131.262 112 131.099C112.16 130.936 112.286 130.743 112.37 130.53C112.453 130.318 112.494 130.091 112.489 129.863V73.2698C112.48 72.8213 112.295 72.3945 111.975 72.0807C111.654 71.7669 111.224 71.5911 110.775 71.5911C110.327 71.5911 109.896 71.7669 109.575 72.0807C109.255 72.3945 109.07 72.8213 109.061 73.2698Z" fill="#3A5782"/>
<path opacity="0.2" d="M80.7671 101.567C80.7671 101.792 80.8115 102.015 80.8977 102.223C80.9838 102.431 81.1101 102.62 81.2694 102.779C81.4286 102.939 81.6177 103.065 81.8257 103.151C82.0337 103.237 82.2567 103.281 82.4818 103.281H139.066C139.521 103.281 139.957 103.101 140.278 102.779C140.6 102.458 140.78 102.022 140.78 101.567C140.78 101.113 140.6 100.677 140.278 100.355C139.957 100.034 139.521 99.8533 139.066 99.8533H82.4833C82.2581 99.853 82.0349 99.8971 81.8267 99.9831C81.6185 100.069 81.4293 100.195 81.2699 100.355C81.1105 100.514 80.9841 100.703 80.8978 100.911C80.8115 101.119 80.7671 101.342 80.7671 101.567Z" fill="#3A5782"/>
<path opacity="0.2" d="M89.5577 122.787C89.8791 123.109 90.315 123.289 90.7695 123.289C91.2241 123.289 91.66 123.109 91.9814 122.787L96.6587 118.109L98.8561 115.907L109.061 105.701L110.775 103.987L111.484 103.277L112.489 102.272L113.198 101.563L114.912 99.8487L124.294 90.4653L131.993 82.7655C132.308 82.4426 132.482 82.009 132.479 81.5584C132.476 81.1079 132.296 80.6767 131.977 80.3581C131.658 80.0396 131.227 79.8592 130.777 79.8562C130.326 79.8531 129.893 80.0276 129.57 80.3418L110.775 99.139L110.065 99.8487L109.061 100.853L108.351 101.563L106.637 103.277L96.3558 113.56L89.5577 120.359C89.3979 120.518 89.2711 120.708 89.1846 120.916C89.0981 121.124 89.0536 121.348 89.0536 121.573C89.0536 121.799 89.0981 122.022 89.1846 122.231C89.2711 122.439 89.3979 122.628 89.5577 122.787Z" fill="#3A5782"/>
<path opacity="0.2" d="M89.5577 82.7693L106.636 99.8525L108.351 101.567L109.061 102.276L110.066 103.281L110.775 103.992L112.489 105.706L129.568 122.784C129.89 123.106 130.326 123.286 130.78 123.286C131.235 123.286 131.671 123.105 131.992 122.784C132.314 122.462 132.494 122.026 132.494 121.572C132.494 121.117 132.313 120.681 131.992 120.36L114.913 103.281L113.198 101.567L112.489 100.858L111.486 99.8533L110.775 99.1436L109.061 97.4281L96.6587 85.0244L91.9814 80.3464C91.823 80.1837 91.6339 80.0541 91.4251 79.965C91.2162 79.876 90.9918 79.8294 90.7647 79.8279C90.5377 79.8263 90.3126 79.8699 90.1026 79.9561C89.8925 80.0422 89.7017 80.1693 89.5412 80.3298C89.3806 80.4904 89.2536 80.6812 89.1674 80.8912C89.0812 81.1013 89.0377 81.3264 89.0392 81.5534C89.0407 81.7804 89.0874 82.0049 89.1764 82.2138C89.2654 82.4226 89.395 82.6117 89.5577 82.77V82.7693Z" fill="#3A5782"/>
</g>
<path d="M110.218 72.9613V129.556C110.228 130.004 110.413 130.431 110.733 130.745C111.054 131.058 111.484 131.234 111.933 131.234C112.381 131.234 112.812 131.058 113.132 130.745C113.453 130.431 113.638 130.004 113.647 129.556V72.9613C113.638 72.5129 113.453 72.086 113.132 71.7722C112.812 71.4584 112.381 71.2827 111.933 71.2827C111.484 71.2827 111.054 71.4584 110.733 71.7722C110.413 72.086 110.228 72.5129 110.218 72.9613Z" fill="#FD922A"/>
<path d="M81.9254 101.259C81.9255 101.484 81.97 101.707 82.0563 101.915C82.1425 102.123 82.2689 102.312 82.4282 102.471C82.5875 102.63 82.7766 102.756 82.9847 102.842C83.1927 102.929 83.4157 102.973 83.6409 102.973H140.225C140.453 102.977 140.68 102.937 140.892 102.853C141.104 102.769 141.297 102.643 141.46 102.484C141.623 102.324 141.753 102.133 141.841 101.923C141.93 101.712 141.975 101.487 141.975 101.258C141.975 101.03 141.93 100.804 141.841 100.594C141.753 100.383 141.623 100.193 141.46 100.033C141.297 99.8735 141.104 99.748 140.892 99.664C140.68 99.58 140.453 99.5392 140.225 99.544H83.6409C83.4157 99.5439 83.1926 99.5882 82.9845 99.6743C82.7764 99.7605 82.5872 99.8867 82.4279 100.046C82.2686 100.205 82.1423 100.394 82.056 100.602C81.9698 100.81 81.9254 101.033 81.9254 101.259Z" fill="#FD922A"/>
<path d="M90.7153 122.479C91.0367 122.8 91.4726 122.981 91.9271 122.981C92.3816 122.981 92.8175 122.8 93.139 122.479L97.8163 117.801L100.014 115.599L110.218 105.396L111.932 103.682L112.642 102.972L113.647 101.967L114.356 101.259L116.07 99.5438L125.451 90.1612L133.15 82.4606C133.464 82.1377 133.639 81.7041 133.636 81.2536C133.633 80.803 133.452 80.3719 133.134 80.0533C132.815 79.7347 132.384 79.5544 131.934 79.5513C131.483 79.5483 131.049 79.7227 130.727 80.0369L111.932 98.8349L111.223 99.5446L110.218 100.548L109.509 101.259L107.795 102.972L97.5126 113.257L90.7153 120.055C90.5561 120.214 90.4298 120.403 90.3436 120.611C90.2575 120.819 90.2131 121.042 90.2131 121.267C90.2131 121.492 90.2575 121.715 90.3436 121.923C90.4298 122.131 90.5561 122.32 90.7153 122.479Z" fill="#FD922A"/>
<path d="M90.7153 82.4604L107.794 99.5436L109.507 101.258L110.217 101.967L111.222 102.972L111.931 103.682L113.646 105.396L130.724 122.475C131.046 122.796 131.482 122.977 131.936 122.976C132.391 122.976 132.827 122.796 133.148 122.474C133.47 122.153 133.65 121.717 133.65 121.262C133.65 120.808 133.469 120.372 133.148 120.05L116.069 102.971L114.354 101.258L113.646 100.547L112.641 99.5428L111.931 98.8331L110.218 97.1192L97.8162 84.7163L93.1397 80.0367C92.9814 79.874 92.7923 79.7444 92.5834 79.6554C92.3745 79.5663 92.1501 79.5197 91.923 79.5182C91.696 79.5166 91.4709 79.5602 91.2609 79.6464C91.0509 79.7325 90.86 79.8596 90.6995 80.0201C90.5389 80.1807 90.4119 80.3715 90.3257 80.5815C90.2396 80.7916 90.196 81.0167 90.1975 81.2437C90.1991 81.4707 90.2457 81.6952 90.3347 81.9041C90.4237 82.1129 90.5533 82.302 90.7161 82.4604H90.7153Z" fill="#FD922A"/>
<path d="M111.932 107.323C115.281 107.323 117.996 104.607 117.996 101.258C117.996 97.9083 115.281 95.193 111.932 95.193C108.583 95.193 105.868 97.9083 105.868 101.258C105.868 104.607 108.583 107.323 111.932 107.323Z" fill="#FDAC2A"/>
<path d="M111.932 105.165C114.09 105.165 115.838 103.416 115.838 101.258C115.838 99.1001 114.09 97.351 111.932 97.351C109.775 97.351 108.026 99.1001 108.026 101.258C108.026 103.416 109.775 105.165 111.932 105.165Z" fill="#FECE62"/>
<path d="M110.218 80.055V83.1368C110.514 83.1221 110.811 83.1148 111.11 83.1148C111.958 83.1146 112.806 83.174 113.647 83.2924V80.1871C112.805 80.0861 111.958 80.0354 111.11 80.0353C110.811 80.0363 110.514 80.0429 110.218 80.055ZM123.106 114.857L125.292 117.043C125.571 116.791 125.846 116.531 126.113 116.263C126.655 115.721 127.168 115.15 127.65 114.553L125.449 112.356C124.748 113.261 123.963 114.098 123.106 114.857ZM129.17 99.5437C129.224 100.108 129.25 100.68 129.25 101.258C129.25 101.836 129.224 102.408 129.17 102.972H132.26C132.305 102.405 132.327 101.834 132.327 101.258C132.327 100.683 132.305 100.111 132.26 99.5437H129.17ZM110.218 119.379V122.46C110.514 122.473 110.811 122.479 111.11 122.479C111.958 122.478 112.805 122.427 113.647 122.327V119.223C112.806 119.341 111.958 119.4 111.11 119.4C110.811 119.403 110.514 119.397 110.218 119.379ZM95.3265 115.442C95.5785 115.721 95.8389 115.995 96.1068 116.263C96.6491 116.806 97.2197 117.319 97.8162 117.8L100.014 115.599C99.1084 114.897 98.271 114.112 97.5126 113.253L95.3265 115.442ZM89.8925 101.258C89.8925 101.833 89.9145 102.405 89.96 102.972H93.0494C92.9955 102.408 92.9689 101.834 92.9689 101.258C92.9689 100.683 92.9955 100.108 93.0494 99.5437H89.96C89.9145 100.111 89.892 100.683 89.8925 101.258ZM95.3265 87.0732L97.5126 89.2593C98.272 88.4005 99.1107 87.6152 100.017 86.9138L97.8162 84.7126C97.2193 85.194 96.6487 85.7071 96.1068 86.2496C95.8389 86.5199 95.5785 86.7947 95.3265 87.0732ZM123.108 87.6585C123.967 88.4177 124.752 89.2564 125.453 90.1633L127.654 87.9621C127.172 87.3653 126.659 86.7944 126.117 86.2519C125.85 85.9847 125.575 85.7206 125.295 85.4724L123.108 87.6585Z" fill="#F07222"/>
<path d="M111.932 124.896C106.464 124.896 101.165 123.001 96.9381 119.532C92.711 116.063 89.8176 111.236 88.7506 105.873C87.6837 100.509 88.5093 94.9424 91.0868 90.1198C93.6644 85.2973 97.8343 81.5176 102.886 79.4249C107.938 77.3321 113.559 77.0558 118.792 78.6429C124.025 80.2301 128.545 83.5825 131.583 88.129C134.621 92.6755 135.989 98.1348 135.453 103.577C134.918 109.018 132.512 114.106 128.645 117.973C126.456 120.175 123.851 121.921 120.982 123.109C118.114 124.297 115.038 124.905 111.932 124.896ZM111.932 81.048C100.791 81.048 91.7263 90.1141 91.7263 101.258C91.7263 112.401 100.791 121.468 111.932 121.468C123.074 121.468 132.139 112.401 132.139 101.258C132.139 90.1141 123.074 81.048 111.932 81.048Z" fill="#FDAC2A"/>
<path d="M83.7824 69.4668C84.2796 69.4615 84.6783 69.0541 84.673 68.557C84.6677 68.0598 84.2604 67.6611 83.7632 67.6664C83.2661 67.6717 82.8673 68.079 82.8726 68.5762C82.8779 69.0733 83.2852 69.4721 83.7824 69.4668Z" fill="#CE6429"/>
<path d="M86.3782 69.4668C86.8754 69.4615 87.2741 69.0541 87.2688 68.557C87.2635 68.0598 86.8562 67.6611 86.3591 67.6664C85.8619 67.6717 85.4632 68.079 85.4685 68.5762C85.4738 69.0733 85.8811 69.4721 86.3782 69.4668Z" fill="#CE6429"/>
<path d="M89.0686 69.4842C89.5658 69.4792 89.9647 69.0721 89.9597 68.5749C89.9547 68.0777 89.5475 67.6788 89.0504 67.6838C88.5532 67.6889 88.1543 68.096 88.1593 68.5931C88.1643 69.0903 88.5714 69.4892 89.0686 69.4842Z" fill="#CE6429"/>
<path d="M83.783 71.9453C84.2801 71.94 84.6789 71.5327 84.6736 71.0356C84.6683 70.5384 84.261 70.1397 83.7638 70.145C83.2666 70.1502 82.8679 70.5576 82.8732 71.0547C82.8785 71.5519 83.2858 71.9506 83.783 71.9453Z" fill="#CE6429"/>
<path d="M86.3788 71.9449C86.876 71.9396 87.2747 71.5323 87.2694 71.0351C87.2641 70.538 86.8568 70.1392 86.3596 70.1445C85.8625 70.1498 85.4638 70.5571 85.4691 71.0543C85.4744 71.5515 85.8817 71.9502 86.3788 71.9449Z" fill="#CE6429"/>
<path d="M89.0686 71.9624C89.5658 71.9574 89.9647 71.5503 89.9597 71.0531C89.9547 70.5559 89.5475 70.157 89.0504 70.162C88.5532 70.1671 88.1543 70.5742 88.1593 71.0713C88.1643 71.5685 88.5714 71.9674 89.0686 71.9624Z" fill="#CE6429"/>
<path d="M83.7828 74.4239C84.28 74.4186 84.6787 74.0113 84.6734 73.5141C84.6681 73.017 84.2608 72.6182 83.7636 72.6235C83.2665 72.6288 82.8677 73.0361 82.873 73.5333C82.8783 74.0305 83.2857 74.4292 83.7828 74.4239Z" fill="#CE6429"/>
<path d="M86.3786 74.4235C86.8758 74.4182 87.2745 74.0109 87.2692 73.5137C87.264 73.0165 86.8566 72.6178 86.3595 72.6231C85.8623 72.6284 85.4636 73.0357 85.4689 73.5329C85.4742 74.03 85.8815 74.4288 86.3786 74.4235Z" fill="#CE6429"/>
<path d="M86.3792 76.9013C86.8763 76.896 87.2751 76.4887 87.2698 75.9915C87.2645 75.4943 86.8572 75.0956 86.36 75.1009C85.8629 75.1062 85.4641 75.5135 85.4694 76.0107C85.4747 76.5078 85.882 76.9066 86.3792 76.9013Z" fill="#CE6429"/>
<path d="M89.0679 74.4406C89.5651 74.4355 89.964 74.0284 89.959 73.5313C89.954 73.0341 89.5468 72.6351 89.0497 72.6402C88.5525 72.6452 88.1536 73.0523 88.1586 73.5495C88.1636 74.0466 88.5707 74.4456 89.0679 74.4406Z" fill="#CE6429"/>
<g opacity="0.58">
<path opacity="0.58" d="M145.875 36.9628L145.852 42.2192L106.727 173.078L84.8152 172.978C83.5578 172.974 82.3189 172.674 81.199 172.102C80.079 171.53 79.1094 170.703 78.3685 169.687L118.386 35.8462L122.722 35.8659C124.089 35.8728 125.202 34.7213 125.207 33.2965L125.217 31.4528C125.222 30.0288 126.335 28.8788 127.701 28.8849L137.894 28.9312C142.321 28.9517 145.894 32.5466 145.875 36.9628Z" fill="white"/>
<path opacity="0.58" d="M145.736 69.7546L145.612 99.2097L123.503 173.155L114.833 173.115L145.736 69.7546Z" fill="url(#paint4_linear_0_521)"/>
<path opacity="0.61" d="M113.121 35.8212L76.8656 157.082L77.0493 113.774L100.745 34.5209C100.956 34.8966 101.262 35.2101 101.632 35.4301C102.003 35.65 102.425 35.7687 102.856 35.7741L113.121 35.8212Z" fill="url(#paint5_linear_0_521)"/>
</g>
<path opacity="0.25" d="M109.403 32.8923H120.738C121.163 32.8923 121.508 32.5477 121.508 32.1226V31.4235C121.508 30.9984 121.163 30.6538 120.738 30.6538H109.403C108.978 30.6538 108.634 30.9984 108.634 31.4235V32.1226C108.634 32.5477 108.978 32.8923 109.403 32.8923Z" fill="white"/>
<path opacity="0.25" d="M105.283 32.8923H106.539C106.964 32.8923 107.309 32.5477 107.309 32.1226V31.4235C107.309 30.9984 106.964 30.6538 106.539 30.6538H105.283C104.858 30.6538 104.513 30.9984 104.513 31.4235V32.1226C104.513 32.5477 104.858 32.8923 105.283 32.8923Z" fill="white"/>
<defs>
<linearGradient id="paint0_linear_0_521" x1="47.6769" y1="24.8652" x2="46.4359" y2="28.9284" gradientUnits="userSpaceOnUse">
<stop stop-color="white"/>
<stop offset="1" stop-color="white" stop-opacity="0"/>
</linearGradient>
<linearGradient id="paint1_linear_0_521" x1="4071.73" y1="2227.56" x2="4002.93" y2="2381.88" gradientUnits="userSpaceOnUse">
<stop stop-color="white"/>
<stop offset="1" stop-color="white" stop-opacity="0"/>
</linearGradient>
<linearGradient id="paint2_linear_0_521" x1="5815.32" y1="2206.71" x2="5709.91" y2="2405.93" gradientUnits="userSpaceOnUse">
<stop stop-color="white"/>
<stop offset="1" stop-color="white" stop-opacity="0"/>
</linearGradient>
<linearGradient id="paint3_linear_0_521" x1="4178.29" y1="2196.79" x2="4070.14" y2="2346.59" gradientUnits="userSpaceOnUse">
<stop stop-color="white"/>
<stop offset="1" stop-color="white" stop-opacity="0"/>
</linearGradient>
<linearGradient id="paint4_linear_0_521" x1="103674" y1="95125.9" x2="15144.3" y2="176688" gradientUnits="userSpaceOnUse">
<stop stop-color="white"/>
<stop offset="1" stop-color="white" stop-opacity="0"/>
</linearGradient>
<linearGradient id="paint5_linear_0_521" x1="98175.7" y1="87046.4" x2="-6663.57" y2="182649" gradientUnits="userSpaceOnUse">
<stop stop-color="white"/>
<stop offset="1" stop-color="white" stop-opacity="0"/>
</linearGradient>
</defs>
</svg>
