<svg width="251" height="174" viewBox="0 0 251 174" fill="none" xmlns="http://www.w3.org/2000/svg">
<path d="M19.4316 146.642H241.1C241.1 146.642 243.676 113.055 226.582 98.3978C209.489 83.7403 195.005 93.0208 183.992 76.1573C172.98 59.2935 129.986 13.4301 107.652 12.341C85.3178 11.2518 74.2414 48.7599 57.7246 54.811C41.2077 60.8621 47.7035 94.2331 26.132 103.667C12.6266 109.573 2.68088 132.084 0.447388 146.642H19.4316Z" fill="#F7F7F7"/>
<path d="M48.4287 146.642H216.6C216.6 146.642 218.555 121.161 205.587 110.041C192.618 98.9212 181.63 105.962 173.275 93.1682C164.92 80.3742 132.303 45.5793 115.359 44.7531C98.4143 43.9268 90.0111 72.3827 77.4803 76.9735C64.9496 81.5643 69.8777 106.882 53.5121 114.039C43.2662 118.519 35.7206 135.598 34.0261 146.642H48.4287Z" fill="#E5E5E5"/>
<path d="M61.159 96.1051C61.159 96.1051 57.0959 99.7713 53.1664 107.108C51.5631 110.102 50.4117 113.969 49.2997 118.043L45.2759 118.11L47.995 122.826V122.83C46.777 127.223 45.4133 131.557 43.4092 135.007C42.6784 136.269 41.9357 137.428 41.2049 138.489L35.3539 138.084C35.3539 138.084 36.7528 140.693 37.9199 142.76C35.5346 145.538 33.7822 146.925 33.7822 146.925H30.2456C30.2456 146.925 27.2316 135.923 28.2808 127.804C28.442 126.574 28.6659 125.325 28.9685 124.067L34.8195 121.513L30.1787 120.122C32.3399 114.365 36.3559 108.648 43.3425 103.834C43.4721 103.744 43.6018 103.657 43.7276 103.571L48.0265 103.62C48.0265 103.62 48.1984 102.269 48.4705 100.628C56.5458 96.1051 61.159 96.1051 61.159 96.1051Z" fill="#8DBFFC"/>
<path d="M54.8704 99.772C51.6518 102.903 48.6616 106.265 45.8933 109.791C44.5139 111.558 43.1956 113.372 41.9741 115.248C40.7475 117.119 39.6195 119.054 38.637 121.057C38.3816 121.552 38.1657 122.066 37.9283 122.57C37.7174 123.085 37.4842 123.591 37.2952 124.114L37.001 124.893L36.7302 125.687L36.1914 127.275C35.5121 129.405 34.9034 131.556 34.378 133.727C33.859 135.9 33.4276 138.092 33.0852 140.296C32.9154 141.398 32.7682 142.503 32.6521 143.61C32.5338 144.713 32.4412 145.836 32.4071 146.917L31.2288 146.886C31.2895 145.724 31.407 144.61 31.5511 143.482C31.693 142.359 31.8655 141.241 32.0612 140.127C32.4547 137.901 32.9377 135.693 33.5079 133.509C34.0844 131.327 34.7445 129.168 35.4744 127.034L36.0511 125.444L36.3411 124.65L36.6594 123.86C36.8647 123.331 37.1133 122.822 37.3398 122.303C37.5925 121.797 37.8238 121.279 38.0939 120.783C39.1356 118.776 40.3178 116.85 41.595 114.994C42.8671 113.134 44.2322 111.342 45.6559 109.601C48.5123 106.127 51.5814 102.831 54.8704 99.772Z" fill="#A1B7AB"/>
<path d="M45.079 124.727C45.079 124.727 44.2723 123.385 42.8315 122.566C41.3908 121.747 39.688 121.977 39.688 121.977L42.2421 123.81L45.079 124.727Z" fill="#577062"/>
<path d="M42.3834 111.088C42.3834 111.088 41.8052 110.126 40.7725 109.539C39.7398 108.953 38.5192 109.117 38.5192 109.117L40.35 110.431L42.3834 111.088Z" fill="#577062"/>
<path d="M32.7563 132.176C32.7563 132.176 32.178 131.214 31.1453 130.627C30.1126 130.04 28.8921 130.205 28.8921 130.205L30.7229 131.519L32.7563 132.176Z" fill="#577062"/>
<path d="M7.74188 107.108C7.74188 107.108 10.9235 109.979 14.0004 115.723C15.2558 118.068 16.1574 121.096 17.0281 124.287L20.1789 124.339L18.0497 128.031V128.035C19.0036 131.475 20.0712 134.868 21.6406 137.57C22.2129 138.558 22.7944 139.466 23.3667 140.296L27.9483 139.979C27.9483 139.979 26.8529 142.023 25.9391 143.641C27.8069 145.816 29.1792 146.903 29.1792 146.903H31.9484C31.9484 146.903 34.3084 138.287 33.4869 131.93C33.3608 130.967 33.1854 129.988 32.9485 129.004L28.3669 127.004L32.0009 125.915C30.3085 121.407 27.164 116.93 21.6931 113.16C21.5915 113.09 21.4899 113.022 21.3916 112.954L18.0254 112.993C18.0254 112.993 17.8908 111.935 17.6777 110.65C11.3542 107.108 7.74188 107.108 7.74188 107.108Z" fill="#3478F6"/>
<path d="M12.6661 109.98C15.2492 112.367 17.6612 114.941 19.9075 117.656C22.1415 120.378 24.2135 123.258 25.862 126.402C26.2744 127.187 26.6553 127.991 26.9951 128.814C27.3457 129.638 27.6199 130.471 27.9318 131.301C28.5089 132.972 29.0312 134.663 29.4883 136.374C29.9404 138.085 30.3242 139.816 30.6379 141.561C30.9473 143.313 31.1968 145.054 31.3065 146.868L30.1281 146.9C30.071 145.201 29.8714 143.447 29.6138 141.73C29.3513 140.007 29.0191 138.291 28.6181 136.592C28.2124 134.893 27.7413 133.209 27.215 131.541C26.9307 130.718 26.6745 129.872 26.3594 129.068C26.0515 128.256 25.7016 127.459 25.3186 126.676C23.7887 123.54 21.8151 120.618 19.6698 117.846C17.5117 115.079 15.1787 112.44 12.6661 109.98Z" fill="#D3E5DB"/>
<path d="M20.3333 129.52C20.3333 129.52 20.965 128.469 22.0932 127.828C23.2213 127.187 24.5548 127.366 24.5548 127.366L22.5547 128.802L20.3333 129.52Z" fill="#288284"/>
<path d="M22.444 118.84C22.444 118.84 22.8967 118.086 23.7053 117.627C24.514 117.167 25.4698 117.296 25.4698 117.296L24.0361 118.325L22.444 118.84Z" fill="#288284"/>
<path d="M29.3113 134.228C29.3113 134.228 29.764 133.475 30.5726 133.015C31.3813 132.556 32.3371 132.684 32.3371 132.684L30.9035 133.714L29.3113 134.228Z" fill="#288284"/>
<path d="M48.9968 120.013C48.9968 120.013 46.8484 121.951 44.7707 125.83C43.923 127.414 43.3143 129.458 42.7262 131.613L40.5987 131.648L42.0364 134.141V134.143C41.3924 136.466 40.6714 138.758 39.6119 140.582C39.2255 141.249 38.8327 141.862 38.4463 142.423L35.3526 142.209C35.3526 142.209 36.0923 143.588 36.7095 144.681C35.4483 146.15 34.5216 146.884 34.5216 146.884H32.6517C32.6517 146.884 31.0582 141.066 31.6129 136.774C31.698 136.123 31.8164 135.463 31.9764 134.798L35.0701 133.447L32.6164 132.712C33.7591 129.668 35.8826 126.645 39.5768 124.1C39.6454 124.052 39.7138 124.006 39.7803 123.961L42.0533 123.987C42.0533 123.987 42.1441 123.272 42.2881 122.404C46.5576 120.013 48.9968 120.013 48.9968 120.013Z" fill="#EDF2F9"/>
<path d="M45.6719 121.952C43.9865 123.625 42.4243 125.418 40.9812 127.294C39.547 129.175 38.2304 131.155 37.2165 133.271C36.6942 134.323 36.326 135.424 35.9644 136.55C35.6172 137.676 35.3073 138.811 35.0417 139.957C34.5267 142.24 34.1506 144.599 34.0722 146.887L32.8939 146.855C33.0759 144.4 33.5536 142.064 34.1715 139.739C34.4885 138.582 34.8494 137.439 35.2473 136.31C35.6537 135.191 36.0924 134.051 36.6733 132.997C37.8057 130.872 39.221 128.934 40.7437 127.104C42.2748 125.28 43.9162 123.552 45.6719 121.952Z" fill="#A1B7AB"/>
<path d="M40.4947 135.147C40.4947 135.147 40.0682 134.437 39.3064 134.004C38.5445 133.572 37.6442 133.693 37.6442 133.693L38.9947 134.662L40.4947 135.147Z" fill="#B6CCC0"/>
<path d="M39.0693 127.936C39.0693 127.936 38.7636 127.427 38.2176 127.116C37.6715 126.806 37.0262 126.893 37.0262 126.893L37.9943 127.588L39.0693 127.936Z" fill="#B6CCC0"/>
<path d="M33.9791 139.086C33.9791 139.086 33.6734 138.577 33.1274 138.267C32.5813 137.956 31.936 138.043 31.936 138.043L32.9041 138.738L33.9791 139.086Z" fill="#B6CCC0"/>
<path d="M22.444 135.786C22.444 135.786 22.8967 135.033 23.7053 134.573C24.514 134.114 25.4698 134.242 25.4698 134.242L24.0361 135.272L22.444 135.786Z" fill="#288284"/>
<path d="M250.553 90.014C250.553 90.014 246.039 94.0864 241.674 102.236C239.893 105.562 238.615 109.857 237.379 114.383L232.91 114.457L235.93 119.695V119.7C234.577 124.579 233.062 129.394 230.836 133.226C230.025 134.627 229.2 135.915 228.388 137.093L221.889 136.644C221.889 136.644 223.442 139.542 224.739 141.838C222.089 144.924 220.143 146.465 220.143 146.465H216.214C216.214 146.465 212.866 134.243 214.032 125.225C214.211 123.859 214.46 122.471 214.796 121.075L221.295 118.237L216.14 116.692C218.54 110.298 223.001 103.947 230.762 98.5997C230.906 98.4993 231.05 98.4033 231.19 98.3072L235.965 98.3619C235.965 98.3619 236.156 96.8615 236.458 95.038C245.428 90.014 250.553 90.014 250.553 90.014Z" fill="#3478F6"/>
<path d="M243.567 94.0887C239.992 97.5671 236.671 101.301 233.596 105.218C232.063 107.181 230.599 109.196 229.243 111.279C227.88 113.358 226.627 115.507 225.536 117.732C225.252 118.282 225.012 118.853 224.748 119.413C224.514 119.985 224.255 120.547 224.045 121.127L223.718 121.993L223.417 122.875L222.819 124.638C222.065 127.004 221.388 129.394 220.805 131.806C220.228 134.219 219.749 136.654 219.369 139.103C219.18 140.327 219.017 141.554 218.888 142.784C218.756 144.008 218.653 145.256 218.615 146.458L217.307 146.422C217.374 145.132 217.505 143.894 217.665 142.642C217.822 141.394 218.014 140.152 218.231 138.915C218.668 136.442 219.204 133.99 219.838 131.564C220.479 129.139 221.212 126.741 222.022 124.371L222.663 122.605L222.985 121.722L223.339 120.846C223.567 120.258 223.843 119.692 224.095 119.116C224.375 118.553 224.632 117.979 224.932 117.427C226.089 115.198 227.403 113.059 228.821 110.997C230.234 108.931 231.75 106.941 233.332 105.007C236.505 101.148 239.914 97.4862 243.567 94.0887Z" fill="#A1B7AB"/>
<path d="M232.691 121.808C232.691 121.808 231.795 120.317 230.195 119.408C228.594 118.498 226.703 118.753 226.703 118.753L229.54 120.79L232.691 121.808Z" fill="#577062"/>
<path d="M229.697 106.658C229.697 106.658 229.055 105.589 227.908 104.937C226.76 104.285 225.405 104.468 225.405 104.468L227.438 105.928L229.697 106.658Z" fill="#577062"/>
<path d="M219.003 130.083C219.003 130.083 218.361 129.014 217.214 128.362C216.067 127.71 214.711 127.893 214.711 127.893L216.744 129.353L219.003 130.083Z" fill="#577062"/>
<path d="M191.218 102.237C191.218 102.237 194.752 105.426 198.169 111.807C199.564 114.411 200.565 117.775 201.533 121.319L205.032 121.377L202.667 125.479V125.482C203.727 129.303 204.913 133.073 206.656 136.074C207.292 137.171 207.938 138.18 208.573 139.102L213.662 138.75C213.662 138.75 212.446 141.02 211.43 142.818C213.505 145.234 215.029 146.44 215.029 146.44H218.105C218.105 146.44 220.727 136.87 219.814 129.809C219.674 128.739 219.479 127.653 219.216 126.559L214.127 124.337L218.164 123.127C216.284 118.12 212.791 113.147 206.714 108.96C206.601 108.881 206.488 108.806 206.379 108.731L202.639 108.774C202.639 108.774 202.49 107.599 202.253 106.171C195.23 102.237 191.218 102.237 191.218 102.237Z" fill="#8DBFFC"/>
<path d="M196.687 105.427C199.557 108.078 202.236 110.938 204.731 113.953C207.212 116.977 209.514 120.177 211.345 123.669C211.803 124.541 212.226 125.434 212.604 126.348C212.994 127.263 213.298 128.188 213.645 129.11C214.286 130.967 214.866 132.845 215.374 134.745C215.876 136.646 216.302 138.568 216.651 140.507C216.994 142.454 217.271 144.387 217.393 146.402L216.084 146.438C216.021 144.551 215.799 142.602 215.513 140.695C215.221 138.78 214.852 136.875 214.407 134.987C213.956 133.1 213.433 131.23 212.848 129.378C212.533 128.462 212.248 127.523 211.898 126.63C211.556 125.729 211.168 124.843 210.742 123.973C209.043 120.49 206.851 117.245 204.468 114.165C202.07 111.091 199.478 108.159 196.687 105.427Z" fill="#D3E5DB"/>
<path d="M205.204 127.133C205.204 127.133 205.906 125.965 207.159 125.253C208.412 124.541 209.893 124.74 209.893 124.74L207.671 126.335L205.204 127.133Z" fill="#288284"/>
<path d="M207.548 115.269C207.548 115.269 208.051 114.432 208.95 113.922C209.848 113.411 210.91 113.554 210.91 113.554L209.317 114.697L207.548 115.269Z" fill="#288284"/>
<path d="M215.176 132.363C215.176 132.363 215.679 131.526 216.578 131.015C217.476 130.505 218.538 130.648 218.538 130.648L216.945 131.791L215.176 132.363Z" fill="#288284"/>
<path d="M237.043 116.572C237.043 116.572 234.657 118.725 232.349 123.034C231.407 124.793 230.731 127.064 230.078 129.457L227.715 129.496L229.311 132.265V132.268C228.596 134.848 227.795 137.393 226.618 139.42C226.189 140.161 225.753 140.842 225.323 141.465L221.887 141.227C221.887 141.227 222.709 142.759 223.394 143.973C221.993 145.605 220.964 146.42 220.964 146.42H218.887C218.887 146.42 217.117 139.958 217.733 135.19C217.828 134.467 217.959 133.733 218.137 132.995L221.573 131.495L218.847 130.678C220.117 127.297 222.476 123.939 226.579 121.111C226.655 121.058 226.731 121.008 226.805 120.957L229.33 120.986C229.33 120.986 229.431 120.192 229.591 119.228C234.334 116.572 237.043 116.572 237.043 116.572Z" fill="#EDF2F9"/>
<path d="M233.35 118.726C231.478 120.584 229.742 122.575 228.139 124.66C226.546 126.749 225.084 128.948 223.958 131.298C223.377 132.467 222.968 133.691 222.567 134.942C222.181 136.192 221.837 137.453 221.542 138.725C220.97 141.262 220.552 143.882 220.465 146.424L219.156 146.388C219.358 143.661 219.889 141.066 220.575 138.483C220.927 137.198 221.328 135.929 221.77 134.674C222.222 133.432 222.709 132.165 223.354 130.994C224.612 128.635 226.184 126.482 227.876 124.449C229.576 122.422 231.399 120.503 233.35 118.726Z" fill="#A1B7AB"/>
<path d="M227.599 133.382C227.599 133.382 227.125 132.594 226.279 132.113C225.433 131.632 224.433 131.767 224.433 131.767L225.933 132.844L227.599 133.382Z" fill="#B6CCC0"/>
<path d="M226.016 125.373C226.016 125.373 225.676 124.807 225.07 124.463C224.463 124.118 223.746 124.215 223.746 124.215L224.822 124.987L226.016 125.373Z" fill="#B6CCC0"/>
<path d="M220.362 137.758C220.362 137.758 220.022 137.193 219.415 136.848C218.809 136.504 218.092 136.6 218.092 136.6L219.167 137.372L220.362 137.758Z" fill="#B6CCC0"/>
<path d="M207.548 134.094C207.548 134.094 208.051 133.257 208.95 132.747C209.848 132.236 210.91 132.379 210.91 132.379L209.317 133.522L207.548 134.094Z" fill="#288284"/>
<path d="M122.015 163.998C166.08 163.998 201.801 160.645 201.801 156.509C201.801 152.373 166.08 149.02 122.015 149.02C77.9512 149.02 42.23 152.373 42.23 156.509C42.23 160.645 77.9512 163.998 122.015 163.998Z" fill="#EFEFEF"/>
<path d="M174.739 4.21521V16.3596H152.929L149.878 18.3864L142.2 23.4842L69.2927 71.9022V16.3596H78.38C79.6308 16.3596 80.6051 15.3405 80.6051 14.1401C80.6051 14.0061 80.5939 13.8692 80.5688 13.7324L78.8183 4.21521H174.739Z" fill="#EDF2F9"/>
<path d="M80.6051 14.1401C80.6051 15.3405 79.6308 16.3596 78.38 16.3596H69.2927L78.8183 4.21521L80.5688 13.7324C80.5939 13.8692 80.6051 14.0061 80.6051 14.1401Z" fill="#E4F2F2"/>
<path d="M177.044 0.0899658V16.3605H174.739V4.21616H80.6049V0.0899658H177.044Z" fill="#3478F6"/>
<path d="M182.184 16.3601V147.404H66.1631V73.98L69.2927 71.9029L91.5432 57.1258L92.9449 56.1962L99.9549 51.5395L101.217 50.7019L108.297 46.0005L109.559 45.1631L116.636 40.4618L117.898 39.6242L142.2 23.4849L149.878 18.387L152.929 16.3601H182.184Z" fill="#EFF9F9"/>
<path d="M182.481 147.405L66.46 73.9811V147.405H182.481Z" fill="#E4F2F2"/>
<path d="M106.82 50.9765H142.907C145.123 50.9765 147.248 51.8591 148.815 53.4299C150.381 55.0008 151.261 57.1313 151.261 59.3528V151.581C151.261 153.802 150.381 155.933 148.814 157.504C147.248 159.075 145.123 159.957 142.907 159.957H106.82C104.605 159.957 102.48 159.075 100.913 157.504C99.3462 155.933 98.4661 153.802 98.4661 151.581V59.3528C98.4661 57.1313 99.3462 55.0007 100.913 53.4299C102.48 51.859 104.605 50.9765 106.82 50.9765V50.9765Z" fill="#192684"/>
<path d="M108.539 53.4394H140.622C142.715 53.4394 144.722 54.2731 146.202 55.757C147.682 57.241 148.514 59.2536 148.514 61.3523V149.834C148.514 150.873 148.31 151.902 147.913 152.862C147.516 153.822 146.935 154.695 146.202 155.43C145.469 156.164 144.599 156.747 143.642 157.145C142.684 157.542 141.658 157.747 140.622 157.747H108.539C107.503 157.747 106.476 157.542 105.519 157.145C104.561 156.747 103.691 156.164 102.959 155.43C102.226 154.695 101.644 153.822 101.248 152.862C100.851 151.902 100.647 150.873 100.647 149.834V61.3523C100.647 59.2536 101.479 57.241 102.959 55.757C104.439 54.2731 106.446 53.4394 108.539 53.4394Z" fill="white"/>
<path d="M132.23 57.056H117.164C115.611 57.056 114.122 56.4376 113.024 55.3367C111.926 54.2358 111.309 52.7427 111.309 51.1858H138.085C138.085 52.7426 137.468 54.2357 136.37 55.3366C135.272 56.4375 133.783 57.056 132.23 57.056Z" fill="#192684"/>
<path d="M117.898 39.624L116.636 40.4616H83.7988V39.624H117.898Z" fill="#919191"/>
<path d="M83.7988 45.1631H109.559L108.297 46.0005H83.7988V45.1631Z" fill="#919191"/>
<path d="M101.217 50.7016L99.9548 51.5392H83.7988V50.7016H101.217Z" fill="#919191"/>
<path d="M92.9448 56.1955L91.5431 57.1251H83.7988V56.1955H92.9448Z" fill="#919191"/>
<rect x="83.7988" y="26.1708" width="22.0077" height="0.837582" fill="#919191"/>
<rect x="83.7988" y="31.7098" width="22.0077" height="0.837582" fill="#919191"/>
<path opacity="0.15" d="M179.85 13.3334H149.949L69.2927 67.4617V71.903L152.929 16.3602L179.85 16.3608V13.3334Z" fill="#335A60"/>
<path d="M216.858 66.2489L213.857 67.4633L181.235 80.6601C181.235 80.6601 176.93 78.597 171.752 73.0134C170.244 70.7939 168.689 68.1474 167.201 65.0289C162.583 55.3471 160.434 42.1781 159.655 36.2679L191.679 26.7227C191.679 26.7227 192.053 35.7598 198.433 46.1759C199.862 48.5098 201.576 50.8046 203.377 52.9628C209.608 60.4364 216.858 66.2489 216.858 66.2489Z" fill="#E4F2F2"/>
<path d="M98.2686 78.0418C98.2686 78.0418 96.1162 98.2293 88.7039 111.881C81.2918 125.536 72.4418 130.678 72.4418 130.678L70.5267 130.083C73.8879 126.837 79.103 120.773 83.7681 110.993C89.092 99.8287 91.7861 84.9456 92.9336 76.925L98.2686 78.0418Z" fill="#CCE2E1"/>
<path d="M37.1565 12.3177L64.2924 24.6087C64.2924 24.6087 59.9438 39.455 53.083 48.7363C46.2221 58.0175 39.6533 60.7413 39.6533 60.7413L13.2697 45.2596C13.2697 45.2596 23.7203 37.6718 29.8162 28.9682C35.9122 20.2646 37.1565 12.3177 37.1565 12.3177Z" fill="#E4F2F2"/>
<rect x="36.8365" y="25.9739" width="0.279067" height="19.4703" transform="rotate(-62.7226 36.8365 25.9739)" fill="#EDF2F9"/>
<rect x="34.5589" y="29.4476" width="0.279071" height="19.4945" transform="rotate(-62.4843 34.5589 29.4476)" fill="#EDF2F9"/>
<rect x="28.7891" y="37.1746" width="0.27907" height="19.4929" transform="rotate(-62.4971 28.7891 37.1746)" fill="#EDF2F9"/>
<rect x="31.9705" y="32.5905" width="0.279071" height="19.4945" transform="rotate(-62.4843 31.9705 32.5905)" fill="#EDF2F9"/>
<rect x="26.473" y="41.1713" width="0.27907" height="19.4931" transform="rotate(-62.4971 26.473 41.1713)" fill="#EDF2F9"/>
<rect x="39.168" y="21.9621" width="0.279067" height="8.94125" transform="rotate(-62.7226 39.168 21.9621)" fill="#EDF2F9"/>
<rect x="40.1152" y="19.9044" width="0.279067" height="8.94125" transform="rotate(-62.7226 40.1152 19.9044)" fill="#EDF2F9"/>
<path d="M19.4155 44.7347L24.1882 47.5351C24.1882 47.5351 25.2088 46.7914 25.8756 46.1587C26.5424 45.526 26.6734 45.1979 26.6734 45.1979L21.9756 42.4845C21.9756 42.4843 21.0113 43.8172 19.4155 44.7347Z" fill="#6969F9"/>
<path d="M93.6398 71.227C93.6398 71.227 93.4332 73.4214 92.9335 76.925C91.786 84.9459 89.0919 99.8288 83.768 110.993C79.1029 120.773 73.8878 126.836 70.5266 130.083C68.3742 132.161 66.9809 133.082 66.9809 133.082L22.5525 117.412C22.5525 117.412 36.1261 102.875 42.793 87.9276C49.4571 72.9803 49.0076 60.6016 49.0076 60.6016L93.6398 71.227Z" fill="white"/>
<rect x="52.5503" y="81.2703" width="0.278876" height="29.9869" transform="rotate(-73.6981 52.5503 81.2703)" fill="#3478F6"/>
<rect x="50.1227" y="87.1918" width="0.279253" height="30.0231" transform="rotate(-73.4588 50.1227 87.1918)" fill="#3478F6"/>
<rect x="43.6689" y="100.566" width="0.279264" height="30.0221" transform="rotate(-73.4714 43.6689 100.566)" fill="#3478F6"/>
<rect x="47.1309" y="92.7034" width="0.279253" height="30.0231" transform="rotate(-73.4588 47.1309 92.7034)" fill="#3478F6"/>
<rect x="41.3389" y="107.29" width="0.279264" height="30.0221" transform="rotate(-73.4714 41.3389 107.29)" fill="#3478F6"/>
<rect x="54.8994" y="74.5223" width="0.278876" height="13.7707" transform="rotate(-73.6981 54.8994 74.5223)" fill="#3478F6"/>
<rect x="55.7272" y="71.132" width="0.278876" height="13.7707" transform="rotate(-73.6981 55.7272 71.132)" fill="#3478F6"/>
<path d="M31.6896 114.816L39.7267 117.651C39.7267 117.651 41.0519 116.227 41.8747 115.075C42.6975 113.923 42.7991 113.389 42.7991 113.389L34.9008 110.663C34.9006 110.663 33.8336 112.961 31.6896 114.816Z" fill="#F73C60"/>
<rect x="169.092" y="47.7201" width="24.0229" height="0.279271" transform="rotate(-16.331 169.092 47.7201)" fill="#EDF2F9"/>
<rect x="171.021" y="52.5722" width="24.0506" height="0.27925" transform="rotate(-16.5593 171.021 52.5722)" fill="#EDF2F9"/>
<rect x="176.195" y="63.2828" width="24.0491" height="0.27925" transform="rotate(-16.5593 176.195 63.2828)" fill="#EDF2F9"/>
<rect x="173.417" y="56.9869" width="24.0506" height="0.27925" transform="rotate(-16.5593 173.417 56.9869)" fill="#EDF2F9"/>
<rect x="178.061" y="68.668" width="24.0491" height="0.27925" transform="rotate(-16.5593 178.061 68.668)" fill="#EDF2F9"/>
<rect x="179.678" y="38.6632" width="11.0319" height="0.279271" transform="rotate(-16.331 179.678 38.6632)" fill="#EDF2F9"/>
<rect x="179.014" y="35.9491" width="11.0321" height="0.279271" transform="rotate(-16.331 179.014 35.9491)" fill="#EDF2F9"/>
<path d="M208.919 68.0903L202.481 70.361C202.481 70.361 201.42 69.2204 200.76 68.2977C200.101 67.375 200.02 66.9464 200.02 66.9464L206.347 64.7634C206.347 64.7634 207.202 66.6041 208.919 68.0903Z" fill="#FFBE2C"/>
<path d="M215.247 117.431L192.793 132.509C192.793 132.509 186.849 130.46 180.294 122.634C179.945 122.218 179.602 121.786 179.264 121.342C175.185 115.998 171.961 108.96 170.314 104.999C169.535 103.128 169.108 101.941 169.108 101.941L192.397 89.638C192.397 89.638 193.921 96.584 199.77 103.94C200.002 104.231 200.239 104.521 200.485 104.809C204.008 108.982 208.612 112.687 211.733 114.985C213.821 116.52 215.247 117.431 215.247 117.431Z" fill="white"/>
<rect x="178.505" y="110.271" width="17.2166" height="0.209307" transform="rotate(-30.7093 178.505 110.271)" fill="#3478F6"/>
<rect x="180.714" y="113.313" width="17.2367" height="0.209294" transform="rotate(-31.0384 180.714 113.313)" fill="#3478F6"/>
<rect x="186.221" y="119.82" width="17.2355" height="0.209294" transform="rotate(-31.0384 186.221 119.82)" fill="#3478F6"/>
<rect x="183.168" y="115.947" width="17.2367" height="0.209294" transform="rotate(-31.0384 183.168 115.947)" fill="#3478F6"/>
<rect x="188.48" y="123.223" width="17.2355" height="0.209294" transform="rotate(-31.0384 188.48 123.223)" fill="#3478F6"/>
<rect x="184.234" y="102.097" width="7.90632" height="0.209307" transform="rotate(-30.7093 184.234 102.097)" fill="#3478F6"/>
<rect x="183.288" y="100.331" width="7.90613" height="0.209307" transform="rotate(-30.7093 183.288 100.331)" fill="#3478F6"/>
<path d="M209.795 117.296L205.734 120.024C205.734 120.024 204.793 119.422 204.17 118.9C203.548 118.377 203.415 118.095 203.415 118.095L207.415 115.448C207.415 115.448 208.338 116.572 209.795 117.296Z" fill="#6969F9"/>
<rect x="88.021" y="13.3334" width="12.5124" height="7.25859" fill="white"/>
<path d="M171.751 73.0138C169.925 71.0456 167.991 68.639 166.098 65.7328C158.839 54.5824 155.59 37.4798 155.59 37.4798L159.654 36.2681C160.433 42.1784 162.583 55.3472 167.201 65.0292C168.689 68.1478 170.244 70.7943 171.751 73.0138Z" fill="#CCE2E1"/>
<path d="M179.264 121.342C172.946 115.376 168.1 106.523 168.1 106.523L170.314 104.999C171.961 108.961 175.185 115.999 179.264 121.342Z" fill="#CCE2E1"/>
<path d="M139.474 88.3588C145.297 91.306 151.584 93.9494 156.444 95.2084C159.392 95.9664 161.82 96.2319 163.321 95.7243C171.589 92.7565 173.129 88.5207 176.481 79.7756L170.434 75.9814C167.095 77.5879 164.631 83.6209 162.233 88.6459L157.52 87.7851L141.219 84.8578L139.474 88.3588Z" fill="#EDB6A4"/>
<path d="M138.854 89.0384C137.89 89.6353 136.954 90.0599 136.105 89.9726C135.04 89.5609 133.867 88.5833 132.653 87.3835C131.969 86.4947 133.355 83.8717 134.709 84.1465L137.559 84.4646L137.209 83.5278C137.25 82.8749 137.628 82.7727 138.464 83.4169L140.474 85.2484L138.854 89.0384Z" fill="#EDB6A4"/>
<path d="M155.644 96.246C158.704 97.0249 162.126 97.2759 163.603 96.5703C171.59 92.7561 174.002 89.3162 177.481 80.3299L170.548 75.9814C167.082 77.6322 164.436 83.1882 161.946 88.3517L157.349 87.8326C156.819 89.0595 154.907 93.4052 155.644 96.246Z" fill="#FDAC2A"/>
<path d="M156.311 87.012C154.986 90.1194 154.584 92.8365 154.477 96.0364C155.079 96.5959 155.917 96.908 156.978 96.9855C157.774 93.4824 158.344 90.4332 158.478 87.4642C158.099 86.9228 157.106 86.9588 156.311 87.012Z" fill="#E68822"/>
<path opacity="0.1" d="M202.986 173C207.129 173 210.487 172.328 210.487 171.5C210.487 170.671 207.129 170 202.986 170C198.843 170 195.484 170.671 195.484 171.5C195.484 172.328 198.843 173 202.986 173Z" fill="black"/>
<path d="M199.146 157.82L202.209 159.2C202.973 158.773 203.56 159.012 204.146 159.255L206.079 160.853L198.222 169.371L196.456 168.197L198.091 163.303L196.336 161.815L199.146 157.82Z" fill="#EDB6A4"/>
<path d="M203.963 158.81C204.995 158.942 205.714 159.624 206.659 160.819L197.58 171.09C196.137 172.586 194.918 172.237 195.554 170.49L197.877 163.346C198.578 163.448 199.31 163.329 200.137 162.54C200.994 161.762 201.715 160.925 202.259 160.009C201.858 159.66 201.507 159.292 201.888 158.634L203.963 158.81Z" fill="#393768"/>
<path d="M189.504 111.057L178.922 106.987C175.126 113.595 171.96 127.726 174.258 136.159C177.874 144.298 180.615 150.825 194.818 162.998L199.485 157.33L185.508 136.516C188.155 126.767 190.791 118.102 189.504 111.057Z" fill="#393768"/>
<path opacity="0.1" d="M174.32 136.654C176.729 141.475 178.792 145.728 183.482 150.996C182.294 147.693 180.053 144.697 179.085 141.307C178.543 139.347 178.419 137.315 178.324 135.308C178.27 133.96 178.216 132.613 178.558 131.297C179.163 128.745 181.439 126.338 181.616 123.706C181.778 121.278 178.077 120.673 176.048 121.131C175.464 121.262 174.887 121.495 174.369 121.775C173.31 127.05 173.082 132.539 174.32 136.654Z" fill="black"/>
<path d="M170.386 164.998L171.73 167.906C172.513 168.058 172.785 168.597 173.054 169.137L173.48 171.511L163.033 173L162.478 171.043L166.464 168.418L166.099 166.235L170.386 164.998Z" fill="#EDB6A4"/>
<path d="M172.712 168.485C173.395 169.259 173.509 170.262 173.475 171.813L160.452 173.967C158.466 174.202 157.778 173.136 159.321 172.179L165.424 168.087C165.88 168.622 166.495 169.005 167.592 168.924C168.703 168.871 169.75 168.683 170.715 168.318C170.632 167.784 170.598 167.267 171.284 166.999L172.712 168.485Z" fill="#393768"/>
<path d="M185.483 110.675L172.86 103.987C167.808 109.954 163.495 123.525 160.612 129.419C157.652 135.897 161.055 147.702 164.302 165.998L171.478 164.659L170.797 136.841C177.32 127.707 185.131 119.557 185.483 110.675Z" fill="#393768"/>
<path d="M190.297 110.529C190.297 110.976 190.203 111.224 190.061 111.324C187.882 113.011 175.714 111.473 171.026 106.856C170.884 106.707 170.695 106.509 170.553 106.36C170.505 106.31 170.505 106.31 170.458 106.261C171.235 96.6333 168.832 95.3401 167.98 89.4331C167.507 86.4544 167.096 83.1785 168.091 79.0089C169.701 73.7472 177.256 72.6621 180.425 75.5345C190.55 84.3417 190.913 105.814 190.297 110.529Z" fill="#FDAC2A"/>
<path d="M176.481 73.7494C175.704 72.1795 175.263 70.5926 175.346 68.9801L170.18 69.3007L169.48 75.9814C172.09 75.7469 174.464 75.0755 176.481 73.7494Z" fill="#D8A598"/>
<path opacity="0.1" d="M169.48 73.2061C169.831 73.1734 170.263 73.1087 170.696 73.044C171.479 72.9466 172.263 72.8489 172.993 73.1985C173.696 73.4522 174.156 74.1217 174.752 74.6312C174.888 74.7908 175.023 74.9496 175.212 74.9812C175.725 74.8846 176.103 74.6284 176.481 74.3721C175.695 72.5549 175.206 70.8322 175.311 68.9801L169.825 69.343L169.48 73.2061Z" fill="black"/>
<path d="M175.84 69.7349C172.771 71.9591 169.924 73.4606 167.728 72.8397C166.109 67.9514 165.837 63.2629 168.282 58.978L177.481 60.5449L175.84 69.7349Z" fill="#EDB6A4"/>
<path opacity="0.1" d="M166.479 65.6575C166.801 65.8087 167.185 65.9239 167.439 65.9446C167.851 65.9586 168.2 66.0084 168.578 65.957C169.709 65.8034 170.84 65.6492 171.937 65.4305C172.341 65.2779 172.842 65.1544 173.177 64.8718C173.917 64.4366 174.416 63.5469 174.477 62.7443C174.489 62.3109 174.475 61.9785 174.365 61.6175C174.255 61.2559 174.021 60.9674 173.726 60.7153L169.617 59.9786C169.556 60.0147 169.556 60.0147 169.459 59.9861C168.897 60.146 168.37 60.3715 167.746 60.5675C166.932 62.2384 166.531 63.9227 166.479 65.6575Z" fill="black"/>
<path d="M164.8 64.2528C166.372 64.9784 168.077 64.5594 169.852 63.6425C169.986 64.8359 169.944 65.9319 169.52 66.5049C169.723 66.8559 169.757 66.9141 170.229 67.0435C170.673 66.2298 171.062 65.2536 171.655 65.3176C172.495 65.6707 172.766 66.1384 172.835 66.9448C172.867 67.9625 171.787 69.119 170.758 70.363C172.181 70.9004 173.19 71.201 174.103 70.7866C175.525 70.6346 176.316 69.4472 177.422 67.855C178.498 66.2793 177.416 64.9382 178.226 63.6587C178.932 62.4738 178.131 57.9601 176.368 58.4869C174.758 58.932 174.475 58.8543 172.884 57.0652C171.276 55.2468 169.587 55.8992 168.953 57.6207C168.336 59.3712 167.899 58.4828 166.139 58.0501C164.362 57.5881 162.542 60.4675 164.023 60.8975C163.958 62.5036 163.861 63.4541 164.8 64.2528Z" fill="#393768"/>
<path d="M169.761 125.978L160.797 135.851C160.419 136.267 159.776 136.298 159.36 135.921L144.435 122.369C144.019 121.992 143.988 121.348 144.366 120.932L153.33 111.059C153.708 110.643 154.351 110.612 154.767 110.99L169.692 124.541C170.108 124.919 170.139 125.562 169.761 125.978Z" fill="#E6E9F8"/>
<rect x="146.704" y="121.815" width="6.50287" height="1.92121" transform="rotate(-47.7641 146.704 121.815)" fill="#A8CFEF"/>
<rect x="150.534" y="125.292" width="8.36894" height="1.39727" transform="rotate(-47.7641 150.534 125.292)" fill="#A8CFEF"/>
<rect x="152.563" y="127.134" width="10.6412" height="1.39727" transform="rotate(-47.7641 152.563 127.134)" fill="#A8CFEF"/>
<rect x="154.801" y="129.166" width="8.36894" height="1.39727" transform="rotate(-47.7641 154.801 129.166)" fill="#A8CFEF"/>
<rect x="156.83" y="131.008" width="10.6412" height="1.39727" transform="rotate(-47.7641 156.83 131.008)" fill="#A8CFEF"/>
<path d="M166.186 127.909C166.958 127.909 167.583 127.283 167.583 126.511C167.583 125.739 166.958 125.113 166.186 125.113C165.414 125.113 164.788 125.739 164.788 126.511C164.788 127.283 165.414 127.909 166.186 127.909Z" fill="#A8CFEF"/>
<path opacity="0.1" d="M190.484 110.52C190.484 110.97 190.383 111.22 190.232 111.319C187.915 113.018 174.97 111.469 169.983 106.824C169.832 106.674 169.631 106.474 169.48 106.324C169.882 105.325 170.89 104.676 171.847 104.276C172.905 103.826 173.223 98.6569 173.804 97.6997C175.821 94.3758 171.719 93.2805 172.173 89.9336C172.626 86.537 178.355 83.5528 178.657 80.1562C178.758 78.8073 182.487 85.7431 182.588 86.0428C187.276 98.1622 184.436 103.957 183.831 104.757C183.328 105.506 187.663 110.97 190.484 110.52Z" fill="black"/>
<path d="M161.428 114.689C167.5 112.08 173.621 108.911 177.72 105.946C180.201 104.143 181.955 102.424 182.498 100.92C185.346 92.5224 182.904 88.5412 177.971 80.1877L171.073 82.4147C170.252 86.0734 173.559 91.9552 176.094 97.1236L172.41 100.235L159.709 111.03L161.428 114.689Z" fill="#EDB6A4"/>
<path d="M161.442 114.68C161.234 115.849 160.917 116.888 160.275 117.545C159.243 118.183 157.715 118.567 155.993 118.851C154.862 118.881 153.84 116.126 154.964 115.163L157.044 112.977L156.198 112.209C155.601 111.648 156.212 111.844 156.967 111.583L159.703 111.02L161.442 114.68Z" fill="#EDB6A4"/>
<path d="M177.886 106.555C180.368 104.753 182.655 102.342 183.003 100.781C184.887 92.344 183.658 88.3351 178.725 79.9816L171.073 82.4143C170.252 86.0729 173 91.6089 175.535 96.7776L172.319 99.9001C172.959 101.083 175.204 105.295 177.886 106.555Z" fill="#FDAC2A"/>
<path d="M171.58 100.082C173.141 103.09 174.992 105.123 177.407 107.227C178.228 107.105 179.008 106.639 179.751 105.85C177.543 103.01 175.542 100.635 173.323 98.6561C172.66 98.6131 172.05 99.4202 171.58 100.082Z" fill="#E68822"/>
<rect x="105.117" y="74.8759" width="38.5625" height="1.10179" fill="#C4C4C4"/>
<rect x="105.117" y="63.858" width="38.5625" height="2.20357" fill="#948686"/>
<rect x="105.117" y="78.1812" width="38.5625" height="1.10179" fill="#C4C4C4"/>
<rect x="105.117" y="81.4866" width="38.5625" height="1.10179" fill="#C4C4C4"/>
<rect x="105.117" y="84.7919" width="38.5625" height="1.10179" fill="#C4C4C4"/>
<rect x="105.117" y="88.0973" width="38.5625" height="1.10179" fill="#C4C4C4"/>
<rect x="105.117" y="95.8098" width="38.5625" height="1.10179" fill="#C4C4C4"/>
<rect x="105.117" y="99.1151" width="30.85" height="1.10179" fill="#C4C4C4"/>
<rect x="105.117" y="102.42" width="34.1553" height="1.10179" fill="#C4C4C4"/>
<rect x="105.117" y="105.726" width="34.1553" height="1.10179" fill="#C4C4C4"/>
<rect x="105.117" y="109.031" width="38.5625" height="1.10179" fill="#C4C4C4"/>
<rect x="105.117" y="118.947" width="24.2393" height="1.10179" fill="#C4C4C4"/>
<rect x="105.117" y="125.558" width="24.2393" height="1.10179" fill="#C4C4C4"/>
<rect x="105.117" y="122.253" width="24.2393" height="1.10179" fill="#C4C4C4"/>
<rect x="105.117" y="128.863" width="24.2393" height="1.10179" fill="#C4C4C4"/>
</svg>
