<svg width="125" height="70" viewBox="0 0 125 70" fill="none" xmlns="http://www.w3.org/2000/svg">
<path d="M62.82 30.7582C62.5275 30.7582 62.2554 30.8387 62.0114 30.9676H61.9956L53.4825 35.5313C53.1531 35.6705 52.92 36.006 52.92 36.4C52.92 36.7911 53.1497 37.1267 53.4755 37.2687V37.287L62.0027 41.8361L62.0097 41.8324C62.2545 41.9622 62.5266 42.0418 62.82 42.0418C63.1134 42.0418 63.3856 41.9622 63.6304 41.8324L63.6374 41.8361L72.1646 37.287V37.2687C72.4904 37.1267 72.72 36.7911 72.72 36.4C72.72 36.006 72.4869 35.6705 72.1575 35.5313L63.6445 30.9676H63.6286C63.3847 30.8387 63.1125 30.7582 62.82 30.7582ZM55.149 40.2806L53.4825 41.1731C53.1531 41.3123 52.92 41.6478 52.92 42.0418C52.92 42.4329 53.1497 42.7685 53.4755 42.9104V42.9288L62.0027 47.4779L62.0097 47.4742C62.2545 47.604 62.5266 47.6836 62.82 47.6836C63.1134 47.6836 63.3856 47.604 63.6304 47.4742L63.6374 47.4779L72.1646 42.9288V42.9104C72.4904 42.7685 72.72 42.4329 72.72 42.0418C72.72 41.6478 72.4869 41.3123 72.1575 41.1731L70.4911 40.2806C67.8766 41.6788 64.3081 43.5813 64.2667 43.5973C63.8032 43.8136 63.3177 43.9224 62.82 43.9224C62.3205 43.9224 61.8334 43.8127 61.3681 43.5955C61.3285 43.5804 57.7643 41.6797 55.149 40.2806ZM55.149 45.9223L53.4825 46.8149C53.1531 46.9541 52.92 47.2896 52.92 47.6836C52.92 48.0747 53.1497 48.4103 53.4755 48.5522V48.5706L62.0027 53.1197L62.0097 53.116C62.2545 53.2458 62.5266 53.3254 62.82 53.3254C63.1134 53.3254 63.3856 53.2458 63.6304 53.116L63.6374 53.1197L72.1646 48.5706V48.5522C72.4904 48.4103 72.72 48.0747 72.72 47.6836C72.72 47.2896 72.4869 46.9541 72.1575 46.8149L70.4911 45.9223C67.8766 47.3206 64.3081 49.2231 64.2667 49.2391C63.8032 49.4554 63.3177 49.5642 62.82 49.5642C62.3205 49.5642 61.8334 49.4545 61.3681 49.2373C61.3285 49.2222 57.7643 47.3215 55.149 45.9223Z" fill="#49A6FC"/>
</svg>
