<svg width="86" height="80" viewBox="0 0 86 80" fill="none" xmlns="http://www.w3.org/2000/svg">
<mask id="mask0_0_1519" style="mask-type:alpha" maskUnits="userSpaceOnUse" x="0" y="0" width="86" height="80">
<path d="M0 0H76C81.5229 0 86 4.47715 86 10V80H10C4.47715 80 0 75.5229 0 70V0Z" fill="white"/>
</mask>
<g mask="url(#mask0_0_1519)">
<path d="M10.2831 -6.10657L92.7831 -6.10657L92.7831 69.1978L10.2831 -6.10657Z" fill="#49A6FC"/>
<path d="M50.9892 16.6181C51.3227 16.9516 51.7432 16.9468 52.0913 16.5988L53.9909 14.6991L55.4894 16.1976C56.8573 17.5655 58.757 17.5897 60.1201 16.2266C61.4784 14.8683 61.4687 12.9928 60.1153 11.6394L58.0416 9.56569C57.7032 9.22733 57.2875 9.237 56.9395 9.58503L51.0085 15.516C50.6605 15.8641 50.6508 16.2798 50.9892 16.6181ZM54.8997 13.7904L57.6694 11.0206L58.9165 12.2678C59.8543 13.2055 59.8881 14.2448 59.0084 15.1245C58.1286 16.0042 57.0845 15.9752 56.1419 15.0326L54.8997 13.7904ZM56.8332 22.4911C57.1619 22.8198 57.5872 22.8198 57.9353 22.4718L60.1491 20.2579L61.6621 21.7709L60.5745 25.4784C60.4488 25.9231 60.4875 26.1454 60.7388 26.3968C61.053 26.711 61.5026 26.7351 61.7878 26.4499C61.9086 26.3291 61.9811 26.1986 62.0439 25.9617L62.9478 22.699C64.0789 23.2403 65.326 22.9793 66.259 22.0464C67.5592 20.7461 67.4964 19.0205 66.0608 17.5849L63.9001 15.4242C63.5617 15.0858 63.146 15.0955 62.798 15.4435L56.8525 21.389C56.5045 21.737 56.4996 22.1576 56.8332 22.4911ZM61.024 19.383L63.5327 16.8743L65.0215 18.3631C65.8578 19.1993 65.8916 20.1806 65.1134 20.9588C64.3158 21.7564 63.3781 21.737 62.5418 20.9008L61.024 19.383ZM65.3647 31.071C67.3707 33.077 70.0148 32.9562 72.2335 30.7375C74.4521 28.5188 74.5778 25.8699 72.5718 23.8639C70.561 21.8531 67.9169 21.9836 65.6982 24.2023C63.4796 26.4209 63.3539 29.0602 65.3647 31.071ZM66.317 30.1187C64.9925 28.7943 65.181 26.9333 66.8052 25.3092C68.4341 23.6802 70.2951 23.4917 71.6196 24.8161C72.944 26.1406 72.7507 27.9967 71.1217 29.6257C69.4976 31.2498 67.6414 31.4432 66.317 30.1187Z" fill="white"/>
</g>
</svg>
