<svg width="55" height="55" viewBox="0 0 55 55" fill="none" xmlns="http://www.w3.org/2000/svg">
<circle cx="27.5" cy="27.5" r="27.5" fill="#49A6FC"/>
<path d="M24.0047 15.9902C23.8058 15.9903 23.6114 16.0497 23.4464 16.1608C23.2814 16.2719 23.1533 16.4297 23.0784 16.614C23.0035 16.7983 22.9853 17.0008 23.0262 17.1955C23.067 17.3902 23.1649 17.5683 23.3075 17.707L32.6004 27L23.3075 36.293C23.2115 36.3851 23.1349 36.4955 23.0821 36.6176C23.0293 36.7397 23.0014 36.8712 23.0001 37.0042C22.9987 37.1373 23.0239 37.2692 23.0742 37.3924C23.1245 37.5156 23.1988 37.6275 23.2929 37.7216C23.387 37.8156 23.4989 37.89 23.6221 37.9403C23.7453 37.9906 23.8772 38.0158 24.0103 38.0144C24.1433 38.0131 24.2748 37.9852 24.3969 37.9324C24.519 37.8796 24.6294 37.803 24.7215 37.707L34.7215 27.707C34.909 27.5195 35.0143 27.2652 35.0143 27C35.0143 26.7348 34.909 26.4805 34.7215 26.293L24.7215 16.293C24.6283 16.1972 24.5169 16.121 24.3938 16.069C24.2707 16.017 24.1384 15.9902 24.0047 15.9902Z" fill="white" stroke="white" stroke-width="3"/>
</svg>
