<svg width="40" height="40" viewBox="0 0 40 40" fill="none" xmlns="http://www.w3.org/2000/svg">
<path d="M30 30H10L5.83337 13.3334L14.1667 20L20 9.16669L25.8334 20L34.1667 13.3334L30 30Z" fill="#FFC107"/>
<path d="M10 30H30V34.1666H10V30ZM20 5.83331C19.558 5.83331 19.1341 6.00891 18.8215 6.32147C18.509 6.63403 18.3334 7.05795 18.3334 7.49998C18.3334 7.94201 18.509 8.36593 18.8215 8.67849C19.1341 8.99105 19.558 9.16665 20 9.16665C20.4421 9.16665 20.866 8.99105 21.1786 8.67849C21.4911 8.36593 21.6667 7.94201 21.6667 7.49998C21.6667 7.05795 21.4911 6.63403 21.1786 6.32147C20.866 6.00891 20.4421 5.83331 20 5.83331ZM35 9.99998C34.558 9.99998 34.1341 10.1756 33.8215 10.4881C33.509 10.8007 33.3334 11.2246 33.3334 11.6666C33.3334 12.1087 33.509 12.5326 33.8215 12.8452C34.1341 13.1577 34.558 13.3333 35 13.3333C35.4421 13.3333 35.866 13.1577 36.1786 12.8452C36.4911 12.5326 36.6667 12.1087 36.6667 11.6666C36.6667 11.2246 36.4911 10.8007 36.1786 10.4881C35.866 10.1756 35.4421 9.99998 35 9.99998ZM5.00004 9.99998C4.55801 9.99998 4.13409 10.1756 3.82153 10.4881C3.50897 10.8007 3.33337 11.2246 3.33337 11.6666C3.33337 12.1087 3.50897 12.5326 3.82153 12.8452C4.13409 13.1577 4.55801 13.3333 5.00004 13.3333C5.44207 13.3333 5.86599 13.1577 6.17855 12.8452C6.49111 12.5326 6.66671 12.1087 6.66671 11.6666C6.66671 11.2246 6.49111 10.8007 6.17855 10.4881C5.86599 10.1756 5.44207 9.99998 5.00004 9.99998Z" fill="#FF9800"/>
</svg>
