<svg width="32" height="32" viewBox="0 0 32 32" fill="none" xmlns="http://www.w3.org/2000/svg">
<rect x="1.92004" y="9.70374" width="21.0162" height="21.0162" rx="3" fill="white"/>
<path d="M21.0257 9.70374H3.83061C2.77502 9.70374 1.92004 10.5587 1.92004 11.6143V28.8094C1.92004 29.865 2.77502 30.72 3.83061 30.72H21.0257C22.0813 30.72 22.9363 29.865 22.9363 28.8094V11.6143C22.9363 10.5587 22.0813 9.70374 21.0257 9.70374ZM14.3387 24.9883H6.69646C6.16914 24.9883 5.74117 24.5603 5.74117 24.033C5.74117 23.5057 6.16914 23.0777 6.69646 23.0777H14.3387C14.866 23.0777 15.294 23.5057 15.294 24.033C15.294 24.5603 14.866 24.9883 14.3387 24.9883ZM18.1598 21.1671H6.69646C6.16914 21.1671 5.74117 20.7392 5.74117 20.2118C5.74117 19.6845 6.16914 19.2566 6.69646 19.2566H18.1598C18.6872 19.2566 19.1151 19.6845 19.1151 20.2118C19.1151 20.7392 18.6872 21.1671 18.1598 21.1671ZM18.1598 17.346H6.69646C6.16914 17.346 5.74117 16.918 5.74117 16.3907C5.74117 15.8634 6.16914 15.4354 6.69646 15.4354H18.1598C18.6872 15.4354 19.1151 15.8634 19.1151 16.3907C19.1151 16.918 18.6872 17.346 18.1598 17.346Z" fill="#49A6FC"/>
<rect x="12.8174" y="1.91998" width="17.1243" height="17.1243" rx="3" fill="#161616"/>
<path d="M14.3741 1.91998C13.5233 1.91998 12.8173 2.62592 12.8173 3.47674V9.13671C12.5811 9.27311 12.3848 9.46919 12.2482 9.70533C12.1116 9.94146 12.0394 10.2093 12.0389 10.4821C12.0392 10.7552 12.1112 11.0234 12.2478 11.2598C12.3844 11.4962 12.5808 11.6926 12.8173 11.8291V17.4876C12.8173 18.3384 13.5233 19.0443 14.3741 19.0443H28.3849C29.2357 19.0443 29.9416 18.3384 29.9416 17.4876V11.8276C30.1779 11.6912 30.3742 11.4951 30.5108 11.259C30.6474 11.0228 30.7195 10.7549 30.72 10.4821C30.7198 10.2091 30.6478 9.94089 30.5111 9.70446C30.3745 9.46804 30.1781 9.27172 29.9416 9.13519V3.47674C29.9416 2.62592 29.2357 1.91998 28.3849 1.91998H14.3741ZM14.3741 3.47674H28.3849V9.13671C28.1486 9.27311 27.9524 9.46919 27.8158 9.70533C27.6791 9.94146 27.607 10.2093 27.6065 10.4821C27.6067 10.7552 27.6788 11.0234 27.8154 11.2598C27.952 11.4962 28.1484 11.6926 28.3849 11.8291V17.4876H14.3741V11.8276C14.6103 11.6912 14.8066 11.4951 14.9432 11.259C15.0798 11.0228 15.152 10.7549 15.1525 10.4821C15.1522 10.2091 15.0802 9.94089 14.9436 9.70446C14.807 9.46804 14.6106 9.27172 14.3741 9.13519V3.47674Z" fill="#161616"/>
<path d="M21.3682 6.5903C21.331 6.59111 21.2939 6.59434 21.2572 6.59996H18.266H17.8769C17.662 6.59996 17.4877 6.75807 17.4877 6.9529V8.01173C17.4877 8.20656 17.662 8.36467 17.8769 8.36467H18.266C18.4809 8.36467 18.6552 8.20656 18.6552 8.01173V7.65879H20.6012V13.3059H20.212C19.9972 13.3059 19.8228 13.464 19.8228 13.6588V14.0118C19.8228 14.2066 19.9972 14.3647 20.212 14.3647H21.2534C21.3369 14.3772 21.4222 14.3772 21.5057 14.3647H22.5471C22.762 14.3647 22.9363 14.2066 22.9363 14.0118V13.6588C22.9363 13.464 22.762 13.3059 22.5471 13.3059H22.1579V7.65879H24.1039V8.01173C24.1039 8.20656 24.2782 8.36467 24.4931 8.36467H24.8823C25.0971 8.36467 25.2715 8.20656 25.2715 8.01173V6.9529C25.2715 6.75807 25.0971 6.59996 24.8823 6.59996H24.4931H21.5042C21.4593 6.59313 21.4137 6.5899 21.3682 6.5903Z" fill="white"/>
</svg>
