<svg width="125" height="70" viewBox="0 0 125 70" fill="none" xmlns="http://www.w3.org/2000/svg">
<circle cx="62.5" cy="27.5" r="27.5" fill="#49A6FC"/>
<path d="M61.6893 14.6802C61.134 14.6884 60.6047 14.9166 60.2176 15.3148C59.8305 15.713 59.6174 16.2486 59.625 16.8039V25.184H51.2449C50.9672 25.1801 50.6916 25.2314 50.434 25.3349C50.1764 25.4384 49.9419 25.5921 49.7442 25.787C49.5465 25.982 49.3895 26.2142 49.2823 26.4704C49.1752 26.7265 49.12 27.0014 49.12 27.279C49.12 27.5567 49.1752 27.8315 49.2823 28.0877C49.3895 28.3438 49.5465 28.5761 49.7442 28.771C49.9419 28.9659 50.1764 29.1196 50.434 29.2232C50.6916 29.3267 50.9672 29.378 51.2449 29.374H59.625V37.7542C59.621 38.0318 59.6723 38.3074 59.7759 38.565C59.8794 38.8226 60.0331 39.0571 60.228 39.2548C60.4229 39.4525 60.6552 39.6095 60.9113 39.7167C61.1675 39.8238 61.4424 39.879 61.72 39.879C61.9976 39.879 62.2725 39.8238 62.5286 39.7167C62.7848 39.6095 63.0171 39.4525 63.212 39.2548C63.4069 39.0571 63.5606 38.8226 63.6641 38.565C63.7677 38.3074 63.8189 38.0318 63.815 37.7542V29.374H72.1951C72.4727 29.378 72.7484 29.3267 73.006 29.2232C73.2636 29.1196 73.4981 28.9659 73.6958 28.771C73.8935 28.5761 74.0505 28.3438 74.1577 28.0877C74.2648 27.8315 74.32 27.5567 74.32 27.279C74.32 27.0014 74.2648 26.7265 74.1577 26.4704C74.0505 26.2142 73.8935 25.982 73.6958 25.787C73.4981 25.5921 73.2636 25.4384 73.006 25.3349C72.7484 25.2314 72.4727 25.1801 72.1951 25.184H63.815V16.8039C63.8189 16.5238 63.7665 16.2457 63.661 15.9862C63.5555 15.7267 63.399 15.491 63.2008 15.293C63.0026 15.095 62.7668 14.9387 62.5071 14.8335C62.2475 14.7282 61.9694 14.6761 61.6893 14.6802Z" fill="white"/>
</svg>
