<svg width="32" height="32" viewBox="0 0 32 32" fill="none" xmlns="http://www.w3.org/2000/svg">
<rect x="1.92004" y="9.12" width="21.6" height="21.6" rx="3" fill="white"/>
<path d="M21.5564 9.12H3.88368C2.79877 9.12 1.92004 9.99872 1.92004 11.0836V28.7564C1.92004 29.8413 2.79877 30.72 3.88368 30.72H21.5564C22.6413 30.72 23.52 29.8413 23.52 28.7564V11.0836C23.52 9.99872 22.6413 9.12 21.5564 9.12ZM14.6837 24.8291H6.82913C6.28717 24.8291 5.84732 24.3892 5.84732 23.8473C5.84732 23.3053 6.28717 22.8654 6.82913 22.8654H14.6837C15.2256 22.8654 15.6655 23.3053 15.6655 23.8473C15.6655 24.3892 15.2256 24.8291 14.6837 24.8291ZM18.611 20.9018H6.82913C6.28717 20.9018 5.84732 20.462 5.84732 19.92C5.84732 19.378 6.28717 18.9382 6.82913 18.9382H18.611C19.1529 18.9382 19.5928 19.378 19.5928 19.92C19.5928 20.462 19.1529 20.9018 18.611 20.9018ZM18.611 16.9745H6.82913C6.28717 16.9745 5.84732 16.5347 5.84732 15.9927C5.84732 15.4508 6.28717 15.0109 6.82913 15.0109H18.611C19.1529 15.0109 19.5928 15.4508 19.5928 15.9927C19.5928 16.5347 19.1529 16.9745 18.611 16.9745Z" fill="#49A6FC"/>
<rect x="9.12" y="1.91998" width="21.6" height="21.6" rx="3" fill="#F3F3F3"/>
<path d="M28.7564 1.91998H11.0836C9.99872 1.91998 9.12 2.79871 9.12 3.88362V21.5563C9.12 22.6413 9.99872 23.52 11.0836 23.52H28.7564C29.8413 23.52 30.72 22.6413 30.72 21.5563V3.88362C30.72 2.79871 29.8413 1.91998 28.7564 1.91998ZM21.8836 17.6291H14.0291C13.4871 17.6291 13.0473 17.1892 13.0473 16.6473C13.0473 16.1053 13.4871 15.6654 14.0291 15.6654H21.8836C22.4256 15.6654 22.8654 16.1053 22.8654 16.6473C22.8654 17.1892 22.4256 17.6291 21.8836 17.6291ZM25.8109 13.7018H14.0291C13.4871 13.7018 13.0473 13.2619 13.0473 12.72C13.0473 12.178 13.4871 11.7382 14.0291 11.7382H25.8109C26.3529 11.7382 26.7927 12.178 26.7927 12.72C26.7927 13.2619 26.3529 13.7018 25.8109 13.7018ZM25.8109 9.77453H14.0291C13.4871 9.77453 13.0473 9.33467 13.0473 8.79271C13.0473 8.25075 13.4871 7.81089 14.0291 7.81089H25.8109C26.3529 7.81089 26.7927 8.25075 26.7927 8.79271C26.7927 9.33467 26.3529 9.77453 25.8109 9.77453Z" fill="#161616"/>
</svg>
