<svg width="18" height="18" viewBox="0 0 18 18" fill="none" xmlns="http://www.w3.org/2000/svg">
<path d="M7.4659 1.08002C3.74821 1.08002 0.719971 4.10826 0.719971 7.82594C0.719971 11.5436 3.74821 14.5719 7.4659 14.5719C9.08256 14.5719 10.5673 13.9978 11.7309 13.0448L15.7586 17.0726C15.8208 17.1373 15.8953 17.189 15.9776 17.2246C16.06 17.2603 16.1487 17.2791 16.2384 17.28C16.3282 17.2809 16.4172 17.2639 16.5003 17.23C16.5834 17.196 16.6589 17.1459 16.7224 17.0824C16.7858 17.0189 16.836 16.9435 16.8699 16.8604C16.9038 16.7773 16.9208 16.6882 16.9199 16.5985C16.919 16.5087 16.9002 16.4201 16.8646 16.3377C16.829 16.2553 16.7773 16.1808 16.7126 16.1187L12.6848 12.0909C13.6377 10.9273 14.2118 9.44261 14.2118 7.82594C14.2118 4.10826 11.1836 1.08002 7.4659 1.08002ZM7.4659 2.4292C10.4544 2.4292 12.8626 4.83741 12.8626 7.82594C12.8626 10.8145 10.4544 13.2227 7.4659 13.2227C4.47737 13.2227 2.06916 10.8145 2.06916 7.82594C2.06916 4.83741 4.47737 2.4292 7.4659 2.4292Z" fill="#9B9B9B"/>
</svg>
