<svg width="22" height="24" viewBox="0 0 22 24" fill="none" xmlns="http://www.w3.org/2000/svg">
<path d="M9.60151 0.758194C9.08419 0.758194 8.64197 1.14025 8.54261 1.67058L8.1819 3.60554C7.29548 3.95574 6.47585 4.445 5.75612 5.06226L3.98003 4.42315C3.49079 4.24713 2.95251 4.45849 2.69331 4.92563L1.06487 7.87434C0.806751 8.34261 0.900694 8.9371 1.29057 9.2914L2.7144 10.585C2.64035 11.0605 2.59206 11.5445 2.59206 12.0418C2.59206 12.5391 2.64035 13.0231 2.7144 13.4985L1.29057 14.7921C0.900694 15.1465 0.806751 15.7409 1.06487 16.2092L2.69331 19.1579C2.95143 19.6262 3.49079 19.8375 3.98003 19.6626L5.75612 19.0235C6.47561 19.6404 7.29588 20.128 8.1819 20.478L8.54261 22.413C8.64197 22.9433 9.08419 23.3254 9.60151 23.3254H12.8626C13.3799 23.3254 13.8222 22.9433 13.9215 22.413L14.2822 20.478C15.1686 20.1278 15.9883 19.6386 16.708 19.0213L18.4841 19.6604C18.9733 19.8364 19.5116 19.6262 19.7708 19.1579L21.3992 16.207C21.6574 15.7387 21.5634 15.1465 21.1735 14.7921L19.7497 13.4985C19.8238 13.0231 19.8721 12.5391 19.8721 12.0418C19.8721 11.5445 19.8238 11.0605 19.7497 10.585L21.1735 9.2914C21.5634 8.9371 21.6574 8.34261 21.3992 7.87434L19.7708 4.92563C19.5127 4.45736 18.9733 4.24605 18.4841 4.42095L16.708 5.06006C15.9885 4.44318 15.1682 3.95558 14.2822 3.60554L13.9215 1.67058C13.8222 1.14025 13.3799 0.758194 12.8626 0.758194H9.60151ZM11.2321 7.52834C13.6178 7.52834 15.5521 9.54923 15.5521 12.0418C15.5521 14.5343 13.6178 16.5552 11.2321 16.5552C8.84634 16.5552 6.91206 14.5343 6.91206 12.0418C6.91206 9.54923 8.84634 7.52834 11.2321 7.52834Z" fill="#161616"/>
</svg>
