<svg width="30" height="30" viewBox="0 0 30 30" fill="none" xmlns="http://www.w3.org/2000/svg">
<path d="M27.1019 0.919983H3.53823C2.09168 0.919983 0.920044 2.09162 0.920044 3.53816V27.1018C0.920044 28.5483 2.09168 29.72 3.53823 29.72H27.1019C28.5484 29.72 29.72 28.5483 29.72 27.1018V3.53816C29.72 2.09162 28.5484 0.919983 27.1019 0.919983ZM17.9382 21.8654H7.4655C6.74288 21.8654 6.15641 21.279 6.15641 20.5563C6.15641 19.8337 6.74288 19.2473 7.4655 19.2473H17.9382C18.6608 19.2473 19.2473 19.8337 19.2473 20.5563C19.2473 21.279 18.6608 21.8654 17.9382 21.8654ZM23.1746 16.6291H7.4655C6.74288 16.6291 6.15641 16.0426 6.15641 15.32C6.15641 14.5974 6.74288 14.0109 7.4655 14.0109H23.1746C23.8972 14.0109 24.4837 14.5974 24.4837 15.32C24.4837 16.0426 23.8972 16.6291 23.1746 16.6291ZM23.1746 11.3927H7.4655C6.74288 11.3927 6.15641 10.8062 6.15641 10.0836C6.15641 9.361 6.74288 8.77453 7.4655 8.77453H23.1746C23.8972 8.77453 24.4837 9.361 24.4837 10.0836C24.4837 10.8062 23.8972 11.3927 23.1746 11.3927Z" fill="#49A6FC"/>
</svg>
